<svg xmlns="http://www.w3.org/2000/svg" id="Flat" height="512" viewBox="0 0 64 64" width="512"><rect fill="#cc995e" height="4" rx="1" width="42" x="11" y="39"></rect><rect fill="#efefef" height="25" rx="2" width="50" x="7" y="3"></rect><path d="m7 51h2v11h-2z" fill="#7c7c7c"></path><path d="m57 46v-12a2 2 0 0 1 2-2 2 2 0 0 1 2 2v13a4 4 0 0 1 -4 4h-11v-4h10a1 1 0 0 0 1-1z" fill="#5087b3"></path><g fill="#7c7c7c"><path d="m55 51h2v11h-2z"></path><path d="m20 54h2v8h-2z"></path><path d="m28 54h2v8h-2z"></path></g><rect fill="#61a4d9" height="22" rx="2" width="14" x="18" y="32"></rect><path d="m34 54h2v8h-2z" fill="#7c7c7c"></path><path d="m42 54h2v8h-2z" fill="#7c7c7c"></path><rect fill="#5b9acc" height="22" rx="2" width="14" x="32" y="32"></rect><rect fill="#ffde7e" height="6" rx="1" width="10" x="12" y="7"></rect><rect fill="#8eccff" height="6" rx="1" width="10" x="16" y="18"></rect><path d="m37.471 6.56h1.999v9.855h-1.999z" fill="#d6d6d6" transform="matrix(.394 -.919 .919 .394 12.757 42.322)"></path><path d="m34.536 17.082h11.882v1.999h-11.882z" fill="#d6d6d6" transform="matrix(.919 -.394 .394 .919 -3.85 17.395)"></path><rect fill="#ff675b" height="6" rx="1" width="10" x="42" y="11"></rect><rect fill="#ffde7e" height="4" rx="1" width="6" x="30" y="19"></rect><path d="m22 8h6v2h-6z" fill="#d6d6d6"></path><rect fill="#73c97c" height="6" rx="1" width="7" x="28" y="7"></rect><path d="m26 20h4v2h-4z" fill="#d6d6d6"></path><path d="m18 47h-10a1 1 0 0 1 -1-1v-12a2 2 0 0 0 -2-2 2 2 0 0 0 -2 2v13a4 4 0 0 0 4 4h11z" fill="#5087b3"></path></svg>