<svg xmlns="http://www.w3.org/2000/svg" height="512pt" viewBox="0 -5 512 512" width="512pt"><path d="m304.597656 157.152344c.042969 1.734375.671875 3.480468 1.839844 4.664062l33.644531 33.96875c6.265625-.789062 12.597657-1.214844 18.976563-1.214844 6.429687 0 12.769531.410157 18.992187 1.195313l33.625-33.949219c1.167969-1.179687 1.796875-2.925781 1.851563-4.664062zm0 0" fill="#ffaf68"></path><path d="m304.6875 158.152344h108.746094c.253906-1.546875.046875-3.171875-.695313-4.46875l-13.542969-23.664063c-1.410156-2.460937-4.878906-4.472656-7.710937-4.472656h-64.480469c-2.835937 0-6.320312 2.003906-7.75 4.449219l-13.84375 23.707031c-.753906 1.289063-.96875 2.910156-.722656 4.449219zm0 0" fill="#ffc987"></path><path d="m359.058594 194.570312c2.421875 0 4.828125.066407 7.226562.179688l13.097656-36.597656-6.742187-32.601563h-27.027344l-6.878906 32.601563 13.101563 36.613281c2.398437-.117187 4.804687-.195313 7.222656-.195313zm0 0" fill="#ffc987"></path><path d="m372.640625 125.550781h-27.03125l-6.878906 32.601563h40.652343zm0 0" fill="#ffaf68"></path><path d="m359.058594 193.570312c-30.710938 0-59.300782 9.140626-83.261719 24.855469 6.234375 8.628907 11.601563 17.933594 15.96875 27.792969 19.246094-12.996094 42.390625-20.578125 67.292969-20.578125 66.90625 0 121.148437 54.710937 121.148437 122.203125s-54.242187 122.203125-121.148437 122.203125c-66.910156 0-121.152344-54.710937-121.152344-122.203125 0-30.902344 11.375-59.117188 30.121094-80.632812-3.808594-10.773438-9.058594-20.863282-15.527344-30.023438-28.605469 28.035156-46.386719 67.246094-46.386719 110.65625 0 85.203125 68.476563 154.269531 152.945313 154.269531s152.941406-69.066406 152.941406-154.269531-68.476562-154.273438-152.941406-154.273438zm0 0" fill="#abebff"></path><path d="m281.375 226.691406c23.964844-19.082031 53.722656-31.085937 86.179688-32.878906-2.8125-.15625-5.644532-.242188-8.496094-.242188-30.710938 0-59.300782 9.140626-83.261719 24.855469 1.945313 2.6875 3.808594 5.445313 5.578125 8.265625zm0 0" fill="#76d8ff"></path><path d="m223.113281 347.84375c0-38.03125 13.648438-72.839844 36.265625-99.734375-2.105468-3.765625-4.402344-7.414063-6.878906-10.921875-28.605469 28.035156-46.386719 67.246094-46.386719 110.65625 0 85.203125 68.476563 154.269531 152.945313 154.269531 2.851562 0 5.683594-.085937 8.496094-.238281-80.515626-4.449219-144.441407-71.707031-144.441407-154.03125zm0 0" fill="#76d8ff"></path><path d="m266.683594 135.125c-1.515625 0-2.875-.929688-3.4375-2.347656-7.433594-18.835938-13.082032-24.519532-31.796875-32.003906-1.40625-.5625-2.328125-1.933594-2.328125-3.457032 0-1.523437.921875-2.894531 2.328125-3.457031 18.714843-7.484375 24.363281-13.167969 31.796875-32.003906.5625-1.417969 1.921875-2.34375 3.4375-2.34375s2.875.925781 3.433594 2.34375c7.4375 18.835937 13.082031 24.519531 31.796874 32.003906 1.410157.5625 2.332032 1.933594 2.332032 3.457031 0 1.523438-.921875 2.894532-2.332032 3.457032-18.714843 7.484374-24.359374 13.167968-31.796874 32.003906-.558594 1.417968-1.921876 2.347656-3.433594 2.347656zm0 0" fill="#ffcb00"></path><path d="m247.203125 85.824219c-4.03125 2.90625-9.050781 5.359375-15.753906 8.039062-1.40625.5625-2.328125 1.933594-2.328125 3.457031 0 1.523438.921875 2.894532 2.328125 3.457032 18.714843 7.484375 24.363281 13.167968 31.796875 32.003906.5625 1.417969 1.921875 2.347656 3.4375 2.347656s2.875-.929687 3.433594-2.347656c2.632812-6.664062 5.042968-11.679688 7.882812-15.714844-7.238281-18.207031-12.890625-23.976562-30.796875-31.242187zm0 0" fill="#ffaf10"></path><path d="m348.679688 59.695312c-1.195313 0-2.269532-.734374-2.710938-1.851562-5.871094-14.871094-10.328125-19.359375-25.101562-25.269531-1.109376-.441407-1.839844-1.523438-1.839844-2.726563s.730468-2.285156 1.839844-2.730468c14.773437-5.90625 19.230468-10.394532 25.101562-25.265626.441406-1.117187 1.515625-1.851562 2.710938-1.851562 1.195312 0 2.273437.734375 2.714843 1.851562 5.867188 14.871094 10.328125 19.359376 25.101563 25.265626 1.109375.445312 1.839844 1.527343 1.839844 2.730468s-.730469 2.285156-1.839844 2.726563c-14.773438 5.910156-19.234375 10.398437-25.101563 25.269531-.445312 1.117188-1.519531 1.851562-2.714843 1.851562zm0 0" fill="#ffaf10"></path><path d="m334.507812 19.863281c-3.378906 2.707031-7.664062 4.863281-13.640624 7.253907-1.109376.445312-1.839844 1.527343-1.839844 2.730468s.730468 2.285156 1.839844 2.730469c14.773437 5.90625 19.230468 10.394531 25.101562 25.265625.441406 1.117188 1.515625 1.851562 2.710938 1.851562 1.195312 0 2.273437-.734374 2.714843-1.851562 2.371094-6.015625 4.515625-10.328125 7.203125-13.730469-5.632812-14.046875-10.136718-18.578125-24.089844-24.25zm0 0" fill="#f39600"></path><path d="m189.429688 79.347656c-1.082032 0-2.054688-.664062-2.453126-1.675781-5.3125-13.457031-9.347656-17.519531-22.71875-22.867187-1.003906-.402344-1.664062-1.378907-1.664062-2.46875 0-1.089844.660156-2.066407 1.664062-2.46875 13.371094-5.347657 17.40625-9.410157 22.71875-22.867188.398438-1.011719 1.371094-1.675781 2.453126-1.675781 1.082031 0 2.054687.664062 2.453124 1.675781 5.3125 13.460938 9.347657 17.519531 22.71875 22.867188 1.003907.402343 1.664063 1.378906 1.664063 2.46875 0 1.089843-.660156 2.066406-1.664063 2.46875-13.371093 5.347656-17.40625 9.410156-22.71875 22.867187-.398437 1.011719-1.371093 1.675781-2.453124 1.675781zm0 0" fill="#ffaf10"></path><path d="m175.398438 44.195312c-2.863282 2.042969-6.410157 3.78125-11.140626 5.671876-1.003906.402343-1.664062 1.378906-1.664062 2.46875 0 1.089843.660156 2.066406 1.664062 2.46875 13.371094 5.347656 17.40625 9.410156 22.71875 22.867187.398438 1.011719 1.371094 1.675781 2.453126 1.675781 1.082031 0 2.054687-.664062 2.453124-1.675781 1.90625-4.832031 3.65625-8.441406 5.726563-11.34375-5.15625-12.855469-9.265625-16.921875-22.210937-22.132813zm0 0" fill="#f39600"></path><path d="m152.941406 155.226562c12.667969 0 24.976563 1.582032 36.75 4.542969 1.316406-3.082031 2.050782-6.476562 2.050782-10.046875 0-14.035156-11.304688-25.414062-25.25-25.414062h-27.097657c-13.949219 0-25.253906 11.378906-25.253906 25.414062 0 3.570313.734375 6.964844 2.054687 10.046875 11.773438-2.960937 24.078126-4.542969 36.746094-4.542969zm0 0" fill="#ffc987"></path><path d="m136.285156 156.152344c-.53125-2.054688-.816406-4.207032-.816406-6.429688 0-14.035156 11.304688-25.414062 25.25-25.414062h-21.324219c-13.945312 0-25.25 11.378906-25.25 25.414062 0 3.570313.734375 6.964844 2.050781 10.046875 6.542969-1.644531 13.246094-2.859375 20.089844-3.617187zm0 0" fill="#ffaf68"></path><path d="m219.363281 410.707031c-19.074219 12.636719-41.894531 19.996094-66.417969 19.996094-66.910156 0-121.152343-54.710937-121.152343-122.203125s54.242187-122.203125 121.152343-122.203125c66.90625 0 121.148438 54.710937 121.148438 122.203125 0 30.492188-11.074219 58.375-29.382812 79.78125 3.769531 10.84375 9.007812 20.988281 15.480468 30.1875 28.199219-27.984375 45.695313-66.914062 45.695313-109.96875 0-85.203125-68.476563-154.273438-152.945313-154.273438s-152.941406 69.074219-152.941406 154.273438 68.472656 154.269531 152.941406 154.269531c30.332032 0 58.597656-8.90625 82.375-24.265625-6.226562-8.632812-11.585937-17.941406-15.953125-27.796875zm0 0" fill="#e9edee"></path><path d="m16.996094 308.5c0-82.324219 63.929687-149.582031 144.445312-154.03125-2.8125-.15625-5.644531-.242188-8.5-.242188-84.46875 0-152.941406 69.074219-152.941406 154.273438s68.472656 154.269531 152.941406 154.269531c2.800782 0 5.578125-.101562 8.339844-.25-80.4375-4.527343-144.285156-71.75-144.285156-154.019531zm0 0" fill="#dae2e4"></path></svg>