<svg xmlns="http://www.w3.org/2000/svg" height="512pt" viewBox="0 -14 512.00067 512" width="512pt"><path d="m263.664062 347.214844.234376.671875h27.429687c3.582031 0 6.5 2.917969 6.5 6.5 0 3.585937-2.917969 6.5-6.5 6.5h-11.1875v12.753906c0 2.246094-1.828125 4.074219-4.078125 4.074219h-9.949219v32.105468c0 5.046876-4.105469 9.152344-9.148437 9.152344h-8.609375v33.738282h153.003906l-3.148437-1.863282c-5.539063-3.269531-9.316407-8.8125-10.363282-15.210937-.101562-.632813.078125-1.273438.488282-1.757813.414062-.488281 1.015624-.765625 1.652343-.765625h10.9375l.363281-1.933593c-7.167968-2.816407-12.191406-9.0625-13.441406-16.703126-.101562-.628906.078125-1.269531.488282-1.757812.414062-.488281 1.015624-.765625 1.652343-.765625h10.9375l.363281-1.929687c-7.167968-2.820313-12.191406-9.0625-13.441406-16.703126-.101562-.632812.078125-1.273437.488282-1.757812.414062-.488281 1.015624-.765625 1.652343-.765625h10.9375l.363281-1.933594c-7.167968-2.816406-12.191406-9.0625-13.441406-16.699219-.101562-.632812.078125-1.273437.488282-1.757812.414062-.488281 1.015624-.769531 1.652343-.769531h91.578125v-87.601563c0-5.820312-4.367187-12.457031-9.703125-14.753906l-57.507812-24.730469c-5.335938-2.296875-9.703125-8.933593-9.703125-14.753906v-15.777344c-9.53125 6.125-20.859375 9.695313-33.011719 9.695313h-16.386719c-12.15625 0-23.484375-3.570313-33.015625-9.699219v15.78125c0 5.816406-4.367187 12.457031-9.703125 14.753906l-57.507812 24.730469c-5.335938 2.292969-9.703125 8.933594-9.703125 14.75v34.570312c8 8.648438 14.328125 18.992188 18.339843 30.613282zm0 0" fill="#def9ff"></path><path d="m266.113281 409.820312c0 5.046876-4.105469 9.152344-9.148437 9.152344h-8.613282v33.738282h17.761719zm0 0" fill="#c2f8ff"></path><path d="m263.664062 347.214844.234376.671875h2.214843v-55.375c0-5.816407 4.367188-12.457031 9.707031-14.75l57.503907-24.730469c5.335937-2.296875 9.703125-8.9375 9.703125-14.753906v-17.789063c-7.523438-1.53125-14.542969-4.457031-20.789063-8.472656v15.78125c0 5.816406-4.367187 12.457031-9.707031 14.75l-57.503906 24.730469c-5.335938 2.296875-9.703125 8.9375-9.703125 14.753906v34.570312c8 8.648438 14.328125 18.992188 18.339843 30.613282zm0 0" fill="#c2f8ff"></path><path d="m371.636719 221.714844h-16.382813c-3.199218 0-6.339844-.246094-9.40625-.722656l17.597656 18.132812 17.597657-18.132812c-3.066407.476562-6.207031.722656-9.40625.722656zm0 0" fill="#ffe2b8"></path><path d="m401.359375 452.710938-3.152344-1.863282c-5.539062-3.269531-9.3125-8.816406-10.359375-15.210937-.105468-.632813.074219-1.273438.488282-1.757813.410156-.488281 1.015624-.769531 1.652343-.769531h10.933594l.367187-1.929687c-7.167968-2.816407-12.191406-9.0625-13.441406-16.703126-.105468-.628906.074219-1.269531.488282-1.757812.410156-.488281 1.015624-.765625 1.652343-.765625h10.933594l.367187-1.933594c-7.167968-2.816406-12.191406-9.058593-13.441406-16.699219-.105468-.632812.074219-1.273437.488282-1.757812.410156-.488281 1.015624-.769531 1.652343-.769531h10.933594l.367187-1.929688c-7.167968-2.816406-12.191406-9.0625-13.441406-16.703125-.105468-.628906.074219-1.269531.488282-1.757812.410156-.488282 1.015624-.765625 1.652343-.765625h91.578125v-87.601563c0-5.820312-4.367187-12.457031-9.707031-14.753906l-57.503906-24.730469c-5.339844-2.296875-9.707031-8.933593-9.707031-14.753906v-15.777344c-7.074219 4.546875-15.132813 7.691407-23.796876 9.003907l-49.945312 50.601562c-4.082031 4.136719-7.425781 12.285156-7.425781 18.101562v162.984376zm0 0" fill="#abebff"></path><path d="m294.113281 160.71875v-32.511719h-11.628906c-7.230469 0-13.09375 5.847657-13.09375 13.0625v15.8125c0 7.214844 5.863281 13.0625 13.09375 13.0625h12.363281c-.480468-3.074219-.734375-6.21875-.734375-9.425781zm0 0" fill="#ffe2b8"></path><path d="m444.402344 128.207031h-11.628906v32.511719c0 3.207031-.253907 6.351562-.730469 9.425781h12.359375c7.234375 0 13.09375-5.847656 13.09375-13.0625v-15.8125c0-7.214843-5.859375-13.0625-13.09375-13.0625zm0 0" fill="#f8d5ab"></path><path d="m293.613281 160.71875c0 34.242188 27.820313 61.996094 62.140625 61.996094h16.382813c34.316406 0 62.136719-27.753906 62.136719-61.996094v-43.148438h-140.660157zm0 0" fill="#ffe2b8"></path><path d="m314.484375 160.71875v-42.121094h-20.84375l-.027344 42.121094c0 34.242188 27.820313 61.996094 62.140625 61.996094h16.382813c.753906 0 1.5-.027344 2.246093-.054688-33.28125-1.179687-59.898437-28.453125-59.898437-61.941406zm0 0" fill="#ffc987"></path><path d="m369.460938 173.269531h-7.910157c-6.167969 0-11.1875-4.9375-11.1875-11.011719v-17.777343c0-4.140625 3.359375-7.5 7.5-7.5 4.144531 0 7.5 3.359375 7.5 7.5v13.789062h4.097657c4.140624 0 7.5 3.359375 7.5 7.5 0 4.144531-3.359376 7.5-7.5 7.5zm0 0" fill="#72563c"></path><path d="m328.378906 156.574219c-4.144531 0-7.5-3.359375-7.5-7.5v-6.734375c0-4.140625 3.355469-7.5 7.5-7.5 4.144532 0 7.5 3.359375 7.5 7.5v6.734375c0 4.140625-3.355468 7.5-7.5 7.5zm0 0" fill="#72563c"></path><path d="m398.511719 156.574219c-4.144531 0-7.5-3.359375-7.5-7.5v-6.734375c0-4.140625 3.355469-7.5 7.5-7.5 4.140625 0 7.5 3.359375 7.5 7.5v6.734375c0 4.140625-3.359375 7.5-7.5 7.5zm0 0" fill="#72563c"></path><path d="m363.660156 203.753906c-10.792968 0-21.589844-3.941406-29.808594-11.816406-2.988281-2.867188-3.089843-7.613281-.222656-10.605469 2.863282-2.988281 7.609375-3.089843 10.601563-.222656 10.714843 10.265625 28.144531 10.265625 38.859375 0 2.988281-2.867187 7.734375-2.765625 10.601562.222656 2.867188 2.992188 2.765625 7.738281-.222656 10.605469-8.21875 7.875-19.011719 11.816406-29.808594 11.816406zm0 0" fill="#72563c"></path><path d="m450.585938 55.539062c0-19.574218-15.839844-35.4375-35.386719-35.4375-6.546875 0-12.671875 1.785157-17.933594 4.890626-4.453125-14.472657-17.910156-24.992188-33.820313-24.992188-15.914062 0-29.371093 10.519531-33.820312 24.992188-5.261719-3.105469-11.390625-4.890626-17.9375-4.890626-19.542969 0-35.386719 15.863282-35.386719 35.4375 0 12.957032 6.949219 24.285157 17.3125 30.464844v32.59375h140.660157v-33.214844c9.808593-6.300781 16.3125-17.308593 16.3125-29.84375zm0 0" fill="#def9ff"></path><path d="m297.617188 48.191406c0-10.933594 4.433593-20.832031 11.59375-27.996094-18.386719 1.277344-32.90625 16.605469-32.90625 35.34375 0 12.957032 6.945312 24.285157 17.308593 30.464844v32.59375h23.335938v-36.390625c-11.570313-6.898437-19.332031-19.546875-19.332031-34.015625zm0 0" fill="#c2f8ff"></path><g fill="#0052ac"><path d="m345.789062 311.113281c-1.96875 0-3.898437-.800781-5.300781-2.199219-1.398437-1.402343-2.199219-3.332031-2.199219-5.300781 0-1.980469.800782-3.910156 2.199219-5.308593 1.402344-1.390626 3.332031-2.203126 5.300781-2.203126 1.980469 0 3.910157.8125 5.3125 2.203126 1.390626 1.398437 2.199219 3.328124 2.199219 5.308593 0 1.96875-.8125 3.898438-2.199219 5.300781-1.402343 1.398438-3.332031 2.199219-5.3125 2.199219zm0 0"></path><path d="m384.878906 311.113281c-1.980468 0-3.910156-.800781-5.308594-2.199219-1.390624-1.402343-2.191406-3.332031-2.191406-5.300781 0-1.980469.800782-3.910156 2.191406-5.308593 1.398438-1.390626 3.328126-2.191407 5.308594-2.191407 1.972656 0 3.902344.800781 5.300782 2.191407 1.390624 1.398437 2.199218 3.328124 2.199218 5.308593 0 1.96875-.808594 3.898438-2.199218 5.300781-1.398438 1.398438-3.328126 2.199219-5.300782 2.199219zm0 0"></path><path d="m345.789062 354.484375c-1.96875 0-3.898437-.800781-5.300781-2.199219-1.398437-1.402344-2.199219-3.332031-2.199219-5.300781 0-1.980469.800782-3.910156 2.199219-5.3125 1.402344-1.386719 3.332031-2.1875 5.300781-2.1875 1.980469 0 3.910157.800781 5.3125 2.1875 1.390626 1.402344 2.199219 3.332031 2.199219 5.3125 0 1.96875-.8125 3.898437-2.199219 5.300781-1.402343 1.398438-3.332031 2.199219-5.3125 2.199219zm0 0"></path><path d="m384.878906 354.484375c-1.980468 0-3.910156-.800781-5.308594-2.199219-1.390624-1.402344-2.191406-3.332031-2.191406-5.300781 0-1.980469.800782-3.910156 2.191406-5.3125 1.398438-1.386719 3.328126-2.1875 5.308594-2.1875 1.972656 0 3.902344.800781 5.300782 2.1875 1.390624 1.402344 2.199218 3.332031 2.199218 5.3125 0 1.96875-.808594 3.898437-2.199218 5.300781-1.398438 1.398438-3.328126 2.199219-5.300782 2.199219zm0 0"></path><path d="m345.789062 397.851562c-1.96875 0-3.898437-.796874-5.300781-2.199218-1.398437-1.390625-2.199219-3.328125-2.199219-5.300782 0-1.976562.800782-3.910156 2.199219-5.308593 1.402344-1.390625 3.332031-2.191407 5.300781-2.191407 1.980469 0 3.910157.800782 5.3125 2.191407 1.390626 1.398437 2.199219 3.339843 2.199219 5.308593 0 1.972657-.8125 3.910157-2.199219 5.300782-1.402343 1.402344-3.332031 2.199218-5.3125 2.199218zm0 0"></path><path d="m384.878906 397.851562c1.351563 0 2.679688-.382812 3.832032-1.066406-.371094-1.117187-.671876-2.273437-.863282-3.464844-.105468-.628906.074219-1.269531.488282-1.757812.410156-.488281 1.015624-.765625 1.652343-.765625h2.367188c.011719-.148437.023437-.296875.023437-.445313 0-1.96875-.808594-3.910156-2.199218-5.296874-1.398438-1.402344-3.328126-2.203126-5.300782-2.203126-1.980468 0-3.910156.800782-5.308594 2.203126-1.390624 1.386718-2.191406 3.328124-2.191406 5.296874 0 1.972657.800782 3.902344 2.191406 5.300782 1.398438 1.402344 3.328126 2.199218 5.308594 2.199218zm0 0"></path><path d="m345.789062 441.222656c-1.96875 0-3.898437-.800781-5.300781-2.1875-1.398437-1.402344-2.199219-3.332031-2.199219-5.3125 0-1.96875.800782-3.910156 2.199219-5.300781 1.402344-1.398437 3.332031-2.199219 5.300781-2.199219 1.980469 0 3.910157.800782 5.3125 2.199219 1.390626 1.402344 2.199219 3.332031 2.199219 5.300781 0 1.980469-.8125 3.910156-2.199219 5.3125-1.402343 1.386719-3.332031 2.1875-5.3125 2.1875zm0 0"></path><path d="m384.878906 441.222656c1.472656 0 2.921875-.445312 4.144532-1.257812-.53125-1.382813-.933594-2.832032-1.175782-4.328125-.105468-.632813.074219-1.273438.484375-1.757813.414063-.488281 1.015625-.769531 1.652344-.769531h2.363281c-.148437-1.753906-.925781-3.433594-2.167968-4.6875-1.402344-1.398437-3.332032-2.199219-5.300782-2.199219-1.980468 0-3.910156.800782-5.3125 2.199219-1.390625 1.402344-2.1875 3.332031-2.1875 5.300781 0 1.980469.800782 3.910156 2.1875 5.300782 1.402344 1.398437 3.332032 2.199218 5.3125 2.199218zm0 0"></path></g><path d="m178.988281 288.753906v-16.882812c0-4.671875-3.785156-8.460938-8.449219-8.460938h-42.25c-4.667968 0-8.449218 3.789063-8.449218 8.460938v16.882812zm0 0" fill="#69cdff"></path><path d="m140.984375 288.753906v-16.882812c0-4.671875 3.785156-8.460938 8.449219-8.460938h-21.144532c-4.667968 0-8.449218 3.789063-8.449218 8.460938v16.882812zm0 0" fill="#00a9ff"></path><path d="m264.933594 347.886719c-11.589844-34.929688-44.460938-60.132813-83.234375-60.132813h-64.570313c-38.769531 0-71.644531 25.203125-83.238281 60.132813zm0 0" fill="#e0e0e0"></path><path d="m68.25 347.886719c11.59375-34.929688 44.464844-60.132813 83.238281-60.132813h-34.359375c-38.773437 0-71.648437 25.203125-83.238281 60.132813zm0 0" fill="#c7c8ca"></path><path d="m49.476562 418.972656h21.097657v33.738282h-21.097657zm0 0" fill="#69cdff"></path><path d="m228.253906 418.972656h21.097656v33.738282h-21.097656zm0 0" fill="#69cdff"></path><path d="m31.714844 377.714844v32.105468c0 5.585938 4.566406 10.152344 10.148437 10.152344h215.101563c5.582031 0 10.148437-4.566406 10.148437-10.152344v-32.105468zm0 0" fill="#c7c8ca"></path><path d="m63.839844 409.820312v-32.105468h-32.125v32.105468c0 5.585938 4.566406 10.152344 10.148437 10.152344h32.125c-5.582031 0-10.148437-4.566406-10.148437-10.152344zm0 0" fill="#a7a9ac"></path><path d="m17.6875 360.886719v12.753906c0 2.789063 2.285156 5.074219 5.074219 5.074219h253.300781c2.792969 0 5.078125-2.285156 5.078125-5.074219v-12.753906zm0 0" fill="#69cdff"></path><path d="m49.625 373.636719v-12.75h-31.9375v12.75c0 2.792969 2.285156 5.078125 5.074219 5.078125h31.9375c-2.789063 0-5.074219-2.285156-5.074219-5.078125zm0 0" fill="#00a9ff"></path><path d="m409.269531 391.382812c-11.179687 0-20.605469-8.015624-22.410156-19.054687-.148437-.921875.109375-1.859375.714844-2.570313.601562-.707031 1.484375-1.117187 2.414062-1.117187h118.84375c.929688 0 1.8125.410156 2.414063 1.117187.605468.710938.863281 1.648438.714844 2.570313-1.808594 11.039063-11.234376 19.054687-22.414063 19.054687zm0 0" fill="#ffcb00"></path><path d="m409.269531 391.382812c-11.179687 0-20.605469-8.015624-22.410156-19.054687-.148437-.921875.109375-1.859375.714844-2.570313.601562-.707031 1.484375-1.117187 2.414062-1.117187h118.84375c.929688 0 1.8125.410156 2.414063 1.117187.605468.710938.863281 1.648438.714844 2.570313-1.808594 11.039063-11.234376 19.054687-22.414063 19.054687zm0 0" fill="#ffcb00"></path><path d="m418.835938 372.328125c-.152344-.921875.109374-1.859375.710937-2.570313.601563-.707031 1.484375-1.117187 2.414063-1.117187h-31.972657c-.933593 0-1.816406.410156-2.417969 1.117187-.601562.710938-.859374 1.648438-.710937 2.570313 1.804687 11.039063 11.230469 19.054687 22.410156 19.054687h31.976563c-11.179688 0-20.605469-8.015624-22.410156-19.054687zm0 0" fill="#ffaf10"></path><path d="m409.269531 412.542969c-11.179687 0-20.605469-8.015625-22.410156-19.058594-.148437-.921875.109375-1.859375.714844-2.566406.601562-.710938 1.484375-1.121094 2.414062-1.121094h118.84375c.929688 0 1.8125.410156 2.414063 1.121094.605468.707031.863281 1.644531.714844 2.566406-1.808594 11.042969-11.234376 19.058594-22.414063 19.058594zm0 0" fill="#ff99a3"></path><path d="m418.835938 393.484375c-.152344-.921875.109374-1.859375.710937-2.566406.601563-.710938 1.484375-1.121094 2.414063-1.121094h-31.972657c-.933593 0-1.816406.410156-2.417969 1.121094-.601562.707031-.859374 1.644531-.710937 2.566406 1.804687 11.042969 11.230469 19.058594 22.410156 19.058594h31.976563c-11.179688 0-20.605469-8.015625-22.410156-19.058594zm0 0" fill="#ff788c"></path><path d="m409.269531 433.699219c-11.179687 0-20.605469-8.015625-22.410156-19.058594-.148437-.917969.109375-1.859375.714844-2.566406.601562-.710938 1.484375-1.121094 2.414062-1.121094h118.84375c.929688 0 1.8125.410156 2.414063 1.121094.605468.707031.863281 1.648437.714844 2.566406-1.808594 11.042969-11.234376 19.058594-22.414063 19.058594zm0 0" fill="#ffcb00"></path><path d="m418.835938 414.640625c-.152344-.917969.109374-1.859375.710937-2.566406.601563-.710938 1.484375-1.121094 2.414063-1.121094h-31.972657c-.933593 0-1.816406.410156-2.417969 1.121094-.601562.707031-.859374 1.648437-.710937 2.566406 1.804687 11.042969 11.230469 19.058594 22.410156 19.058594h31.976563c-11.179688 0-20.605469-8.015625-22.410156-19.058594zm0 0" fill="#ffaf10"></path><path d="m511.246094 433.230469c-.601563-.710938-1.484375-1.117188-2.414063-1.117188h-118.84375c-.933593 0-1.816406.40625-2.417969 1.117188-.601562.707031-.859374 1.648437-.710937 2.566406 1.25 7.636719 6.144531 13.820313 12.738281 16.914063h99.621094c6.59375-3.09375 11.488281-9.277344 12.738281-16.914063.152344-.917969-.109375-1.859375-.710937-2.566406zm0 0" fill="#ff99a3"></path><path d="m399.601562 452.710938h31.972657c-6.59375-3.09375-11.488281-9.277344-12.738281-16.914063-.148438-.917969.109374-1.859375.714843-2.566406.601563-.710938 1.480469-1.117188 2.414063-1.117188h-31.976563c-.929687 0-1.8125.40625-2.414062 1.117188-.605469.707031-.863281 1.648437-.714844 2.566406 1.25 7.636719 6.144531 13.820313 12.742187 16.914063zm0 0" fill="#ff788c"></path><path d="m512 478.371094c0 2.789062-2.285156 5.074218-5.074219 5.074218h-494.351562c-2.789063 0-5.074219-2.285156-5.074219-5.074218v-21.585938c0-2.789062 2.285156-5.074218 5.074219-5.074218h494.351562c2.789063 0 5.074219 2.285156 5.074219 5.074218zm0 0" fill="#02af8e"></path><path d="m43 478.371094v-21.585938c0-2.789062 2.285156-5.074218 5.074219-5.074218h-35.5c-2.789063 0-5.074219 2.285156-5.074219 5.074218v21.585938c0 2.789062 2.285156 5.074218 5.074219 5.074218h35.5c-2.789063 0-5.074219-2.285156-5.074219-5.074218zm0 0" fill="#008e83"></path><path d="m151.210938 233.882812h-17.75c-4.144532 0-7.5-3.355468-7.5-7.5 0-4.140624 3.355468-7.5 7.5-7.5h17.75c9.355468 0 16.964843-7.625 16.964843-17s-7.609375-17-16.964843-17h-18.214844c-4.140625 0-7.5-3.359374-7.5-7.5 0-4.140624 3.359375-7.5 7.5-7.5h18.214844c17.625 0 31.964843 14.355469 31.964843 32 0 17.648438-14.339843 32-31.964843 32zm0 0" fill="#ffc987"></path><path d="m104.597656 184.882812h-21.367187c-19.210938 0-34.839844-15.644531-34.839844-34.882812 0-19.234375 15.628906-34.882812 34.839844-34.882812h24.125c4.144531 0 7.5 3.359374 7.5 7.5 0 4.144531-3.355469 7.5-7.5 7.5h-24.125c-10.941407 0-19.839844 8.921874-19.839844 19.882812 0 10.964844 8.898437 19.882812 19.839844 19.882812h21.367187c4.144532 0 7.5 3.359376 7.5 7.5 0 4.144532-3.355468 7.5-7.5 7.5zm0 0" fill="#ffc987"></path><path d="m198.503906 61.019531h-15.292968c-4.144532 0-7.5 3.359375-7.5 7.5 0 4.144531 3.355468 7.5 7.5 7.5h15.292968c8.085938 0 14.664063 6.597657 14.664063 14.699219 0 8.105469-6.578125 14.699219-14.664063 14.699219h-43.984375c-14.378906 0-26.074219 11.710937-26.074219 26.101562v4.414063c0 4.144531 3.359376 7.5 7.5 7.5 4.144532 0 7.5-3.355469 7.5-7.5v-4.414063c0-6.121093 4.96875-11.101562 11.074219-11.101562h43.984375c16.355469 0 29.664063-13.320313 29.664063-29.699219 0-16.375-13.308594-29.699219-29.664063-29.699219zm0 0" fill="#ffc987"></path><path d="m291.328125 361.886719h-283.828125c-4.144531 0-7.5-3.355469-7.5-7.5 0-4.140625 3.355469-7.5 7.5-7.5h283.828125c4.140625 0 7.5 3.359375 7.5 7.5 0 4.144531-3.359375 7.5-7.5 7.5zm0 0" fill="#8a8c8e"></path></svg>