<svg xmlns="http://www.w3.org/2000/svg" height="512pt" viewBox="0 -10 512.00019 512" width="512pt"><path d="m43.9375 273.785156c-24.226562 0-43.9375 19.660156-43.9375 43.824219v169.207031c0 2.71875 2.191406 4.921875 4.902344 4.921875h41.441406v-217.953125zm0 0" fill="#def9ff"></path><path d="m46.34375 278.027344v-4.242188h-2.40625c-24.226562 0-43.9375 19.660156-43.9375 43.824219v169.207031c0 2.71875 2.191406 4.921875 4.902344 4.921875h21.25c-2.710938 0-4.90625-2.203125-4.90625-4.921875v-169.207031c0-17.441406 10.273437-32.535156 25.097656-39.582031zm0 0" fill="#abebff"></path><path d="m363.472656 190.621094c-2.949218 0-5.734375-.699219-8.226562-1.914063v85.078125h-87.132813v55.476563h101.054688c23.027343 0 41.761719-18.777344 41.761719-41.855469v-96.785156zm0 0" fill="#def9ff"></path><path d="m363.472656 190.621094c-2.949218 0-5.734375-.699219-8.226562-1.914063v85.078125h-87.132813v21.019532h108.304688v-104.183594zm0 0" fill="#abebff"></path><path d="m207.828125 273.785156-2.992187 9.75.199218.371094c.535156.984375.808594 2.164062.808594 3.503906v37.960938c0 1.84375-.5 3.382812-1.449219 4.449218-.890625 1.003907-2.136719 1.535157-3.597656 1.535157 0 0 0 0-.003906 0-.929688 0-1.921875-.214844-2.945313-.636719l-6.65625-2.757812-38.960937 126.835937c-.195313.644531-.394531 1.007813-.53125 1.183594-.132813-.175781-.332031-.539063-.527344-1.183594l-38.925781-126.851563-6.691406 2.773438c-1.023438.421875-2.015626.636719-2.945313.636719-3.066406 0-5.050781-2.347657-5.050781-5.984375v-37.960938c0-1.363281.28125-2.558594.835937-3.550781l.207031-.375-2.976562-9.699219h-50.28125v217.953125h218.410156c2.945313 0 5.359375-2.417969 5.359375-5.375v-212.578125zm0 0" fill="#e62937"></path><path d="m166.164062 317.589844c-3.351562 4.335937-8.578124 7.144531-14.464843 7.144531-5.882813 0-11.109375-2.808594-14.460938-7.144531l-25.921875 10.738281 38.898438 126.761719c.816406 2.667968 2.152344 2.667968 2.972656 0l38.929688-126.746094zm0 0" fill="#def9ff"></path><path d="m199.742188 244.660156c-11.164063 6.097656-23.949219 9.566406-37.527344 9.566406h-21.027344c-13.578125 0-26.363281-3.46875-37.523438-9.566406v29.125h-9.085937l3.390625 11.039063c.722656-2.117188 2.382812-3.398438 4.640625-3.398438.933594 0 1.921875.214844 2.945313.640625l31.683593 13.125c3.351563-4.335937 8.582031-7.144531 14.464844-7.144531s11.113281 2.808594 14.460937 7.144531l31.6875-13.125c1.019532-.425781 2.011719-.640625 2.945313-.640625 2.28125 0 3.957031 1.300781 4.671875 3.460938l3.410156-11.101563h-9.136718zm0 0" fill="#def9ff"></path><path d="m122.085938 251.863281c-6.496094-1.632812-12.679688-4.0625-18.425782-7.203125v29.125h-9.082031l3.386719 11.039063c.726562-2.117188 2.386718-3.398438 4.644531-3.398438.929687 0 1.921875.214844 2.945313.640625l11.441406 4.738282-3.996094-13.019532h9.085938zm0 0" fill="#abebff"></path><path d="m149.933594 394.144531c-1.324219-.324219-2.5625-1-3.535156-1.976562-1.398438-1.390625-2.199219-3.328125-2.199219-5.300781 0-1.847657.714843-3.664063 1.957031-5.03125l-18.496094-60.277344-16.34375 6.773437 38.898438 126.757813c.816406 2.667968 2.15625 2.667968 2.972656 0l7.726562-25.160156zm0 0" fill="#abebff"></path><path d="m45.34375 273.785156h28.8125v217.953125h-28.8125zm0 0" fill="#b7092b"></path><path d="m151.699219 357.828125c-1.96875 0-3.910157-.800781-5.300781-2.199219-1.398438-1.390625-2.199219-3.320312-2.199219-5.300781 0-1.96875.800781-3.898437 2.199219-5.300781 1.402343-1.398438 3.332031-2.199219 5.300781-2.199219 1.972656 0 3.910156.800781 5.3125 2.199219 1.386719 1.402344 2.1875 3.332031 2.1875 5.300781 0 1.980469-.800781 3.910156-2.1875 5.300781-1.402344 1.398438-3.332031 2.199219-5.3125 2.199219zm0 0" fill="#003c72"></path><path d="m151.699219 394.367188c-1.96875 0-3.910157-.796876-5.300781-2.199219-1.398438-1.390625-2.199219-3.328125-2.199219-5.300781 0-1.96875.800781-3.90625 2.199219-5.296876 1.390624-1.402343 3.332031-2.203124 5.300781-2.203124 1.972656 0 3.910156.800781 5.3125 2.203124 1.386719 1.390626 2.1875 3.328126 2.1875 5.296876 0 1.972656-.800781 3.910156-2.1875 5.300781-1.402344 1.402343-3.332031 2.199219-5.3125 2.199219zm0 0" fill="#003c72"></path><path d="m162.214844 254.226562h-21.027344c-5.816406 0-11.480469-.65625-16.941406-1.863281l24.121094 26.96875c1.835937 2.050781 4.835937 2.050781 6.667968 0l24.125-26.96875c-5.460937 1.207031-11.128906 1.863281-16.945312 1.863281zm0 0" fill="#f8d5ab"></path><path d="m48.746094 134.441406h13.703125v-28.589844c0-2.410156 1.957031-4.375 4.363281-4.375h76.308594c12.054687 0 23.578125-5.777343 30.828125-15.453124.816406-1.09375 2.121093-1.746094 3.484375-1.746094 1.367187 0 2.667968.652344 3.488281 1.746094 7.25 9.675781 18.769531 15.453124 30.824219 15.453124h24.84375c2.402344 0 4.359375 1.964844 4.359375 4.375v28.589844h13.707031c1.992188 0 3.890625.390625 5.644531 1.074219v-65.914063c0-38.441406-31.054687-69.601562-69.359375-69.601562h-78.480468c-38.308594 0-69.363282 31.160156-69.363282 69.601562v65.914063c1.757813-.683594 3.65625-1.074219 5.648438-1.074219zm0 0" fill="#b57a4e"></path><path d="m48.746094 134.441406h13.703125v-28.589844c0-2.410156 1.957031-4.375 4.363281-4.375h7.796875v-31.875c0-38.441406 31.054687-69.601562 69.363281-69.601562h-31.511718c-38.308594 0-69.363282 31.160156-69.363282 69.601562v65.914063c1.757813-.683594 3.65625-1.074219 5.648438-1.074219zm0 0" fill="#9b5729"></path><path d="m254.65625 133.441406h-13.707031v41.769532c0 4.03125-.304688 7.996093-.886719 11.863281h14.59375c9.191406 0 16.648438-7.476563 16.648438-16.703125v-20.222656c0-9.226563-7.453126-16.707032-16.648438-16.707032zm0 0" fill="#f8d5ab"></path><path d="m62.449219 175.210938v-41.769532h-13.703125c-9.191406 0-16.644532 7.480469-16.644532 16.703125v20.222657c0 9.226562 7.453126 16.707031 16.644532 16.707031h14.59375c-.582032-3.871094-.890625-7.832031-.890625-11.863281zm0 0" fill="#ffe2b8"></path><path d="m141.1875 255.226562c-43.964844 0-79.738281-35.894531-79.738281-80.015624v-69.359376c0-2.96875 2.402343-5.375 5.363281-5.375h76.308594c11.742187 0 22.96875-5.625 30.027344-15.050781 1.011718-1.355469 2.597656-2.148437 4.285156-2.148437s3.277344.792968 4.289062 2.148437c7.058594 9.425781 18.285156 15.050781 30.023438 15.050781h24.84375c2.960937 0 5.359375 2.40625 5.359375 5.375v69.359376c0 44.121093-35.769531 80.015624-79.734375 80.015624zm0 0" fill="#ffe2b8"></path><path d="m93.066406 175.210938v-69.359376c0-2.964843 2.398438-5.371093 5.359375-5.371093h-31.613281c-2.960938 0-5.363281 2.40625-5.363281 5.371093v69.359376c0 44.121093 35.773437 80.015624 79.738281 80.015624h21.027344c1.78125 0 3.542968-.078124 5.292968-.195312-41.503906-2.746094-74.441406-37.488281-74.441406-79.820312zm0 0" fill="#ffc987"></path><g fill="#72563c"><path d="m107.226562 151.449219c-4.144531 0-7.5-3.359375-7.5-7.5v-16.527344c0-4.140625 3.355469-7.5 7.5-7.5 4.140626 0 7.5 3.359375 7.5 7.5v16.527344c0 4.140625-3.359374 7.5-7.5 7.5zm0 0"></path><path d="m196.179688 151.449219c-4.144532 0-7.5-3.359375-7.5-7.5v-16.527344c0-4.140625 3.355468-7.5 7.5-7.5 4.140624 0 7.5 3.359375 7.5 7.5v16.527344c0 4.140625-3.359376 7.5-7.5 7.5zm0 0"></path><path d="m159.960938 174.972656h-11.269532c-7.03125 0-12.75-5.722656-12.75-12.761718v-26.800782c0-4.144531 3.355469-7.5 7.5-7.5 4.144532 0 7.5 3.355469 7.5 7.5v24.5625h9.019532c4.140624 0 7.5 3.359375 7.5 7.5 0 4.144532-3.359376 7.5-7.5 7.5zm0 0"></path><path d="m151.699219 227.246094c-19.5625 0-35.476563-14.757813-35.476563-32.894532 0-4.140624 3.355469-7.5 7.5-7.5 4.140625 0 7.5 3.359376 7.5 7.5 0 9.867188 9.1875 17.894532 20.476563 17.894532 11.292969 0 20.480469-8.027344 20.480469-17.894532 0-4.140624 3.359374-7.5 7.5-7.5 4.144531 0 7.5 3.359376 7.5 7.5 0 18.136719-15.914063 32.894532-35.480469 32.894532zm0 0"></path></g><path d="m133.398438 306.390625c0-4.589844 1.707031-8.785156 4.5-12.003906l-31.960938-13.246094c-5.160156-2.136719-9.378906.683594-9.378906 6.269531v37.960938c0 5.585937 4.21875 8.40625 9.378906 6.269531l31.960938-13.242187c-2.792969-3.222657-4.5-7.414063-4.5-12.007813zm0 0" fill="#00a9ff"></path><path d="m197.464844 281.140625-31.960938 13.246094c2.792969 3.21875 4.496094 7.414062 4.496094 12.003906 0 4.59375-1.703125 8.785156-4.496094 12.007813l31.960938 13.242187c5.160156 2.136719 9.378906-.683594 9.378906-6.269531v-37.960938c0-5.585937-4.21875-8.40625-9.378906-6.269531zm0 0" fill="#00a9ff"></path><path d="m113.539062 325.371094v-37.960938c0-1.085937.164063-2.066406.460938-2.925781l-8.0625-3.34375c-5.160156-2.136719-9.378906.683594-9.378906 6.269531v37.960938c0 5.585937 4.21875 8.40625 9.378906 6.269531l8.0625-3.339844c-.296875-.863281-.460938-1.839843-.460938-2.929687zm0 0" fill="#0079f1"></path><path d="m171 306.390625c0-10.683594-8.640625-19.34375-19.300781-19.34375-10.65625 0-19.296875 8.660156-19.296875 19.34375s8.640625 19.34375 19.296875 19.34375c10.660156 0 19.300781-8.660156 19.300781-19.34375zm0 0" fill="#76d8ff"></path><path d="m147.695312 306.390625c0-7.957031 4.800782-14.789063 11.652344-17.757813-2.347656-1.015624-4.929687-1.585937-7.648437-1.585937-10.660157 0-19.300781 8.664063-19.300781 19.34375 0 10.683594 8.640624 19.34375 19.300781 19.34375 2.71875 0 5.304687-.570313 7.648437-1.585937-6.851562-2.96875-11.652344-9.796876-11.652344-17.757813zm0 0" fill="#69cdff"></path><path d="m343.964844 167.71875c-.257813 1.28125-.394532 2.601562-.394532 3.957031 0 11.015625 8.910157 19.945313 19.902344 19.945313h62.726563c10.992187 0 19.90625-8.929688 19.90625-19.945313 0-1.355469-.140625-2.675781-.394531-3.957031zm0 0" fill="#ffe2b8"></path><path d="m375.0625 171.675781c0-1.355469.140625-2.679687.398438-3.957031h-31.496094c-.257813 1.277344-.394532 2.601562-.394532 3.957031 0 11.015625 8.910157 19.945313 19.902344 19.945313h31.496094c-10.992188 0-19.90625-8.929688-19.90625-19.945313zm0 0" fill="#ffc987"></path><path d="m511.539062 17.59375-.578124-1.574219c-.789063-2.144531-2.515626-3.808593-4.6875-4.523437-2.449219-.808594-7.105469-.898438-8.996094-.898438h-205.789063c-1.886719 0-6.546875.089844-8.996093.898438-2.171876.714844-3.898438 2.382812-4.6875 4.53125l-.574219 1.558594c-.789063 2.140624-.558594 4.523437.621093 6.476562l61.355469 53.6875v47.417969l6.382813-4.253907c.332031-.222656.71875-.339843 1.117187-.339843.398438 0 .785157.117187 1.117188.335937l6.382812 4.257813v-47.417969l40.179688-34.371094 40.175781 34.371094v47.414062l6.378906-4.25c.332032-.222656.71875-.339843 1.121094-.339843.398438 0 .785156.117187 1.113281.335937l6.386719 4.257813v-47.417969l61.355469-53.695312c1.179687-1.945313 1.40625-4.324219.621093-6.460938zm0 0" fill="#def9ff"></path><path d="m384.160156 143.925781-35.78125-23.84375c-.503906-.339843-1.089844-.507812-1.671875-.507812s-1.167969.167969-1.675781.507812l-35.777344 23.84375zm0 0" fill="#abebff"></path><path d="m346.707031 65.867188c.457031 0 .914063-.15625 1.289063-.472657l43.640625-37.382812h-89.855469l43.640625 37.382812c.367187.316407.824219.472657 1.285156.472657zm0 0" fill="#e8dd52"></path><path d="m322.777344 28.011719h-20.996094l43.640625 37.382812c.367187.316407.824219.472657 1.285156.472657.457031 0 .914063-.15625 1.289063-.472657l9.210937-7.890625zm0 0" fill="#ffcb00"></path><path d="m479.515625 143.925781-35.78125-23.84375c-.503906-.339843-1.089844-.507812-1.671875-.507812s-1.167969.167969-1.675781.507812l-35.78125 23.84375zm0 0" fill="#abebff"></path><path d="m442.0625 65.867188c.457031 0 .917969-.15625 1.285156-.472657l43.644532-37.382812h-89.855469l43.640625 37.382812c.367187.316407.824218.472657 1.285156.472657zm0 0" fill="#e8dd52"></path><path d="m418.195312 28.011719h-21.0625l43.640626 37.382812c.371093.316407.828124.472657 1.289062.472657.457031 0 .914062-.15625 1.285156-.472657l9.246094-7.917969zm0 0" fill="#ffcb00"></path><path d="m497.324219 163.640625c0 2.792969-2.285157 5.078125-5.078125 5.078125h-195.722656c-2.792969 0-5.078126-2.285156-5.078126-5.078125v-15.636719c0-2.789062 2.285157-5.078125 5.078126-5.078125h195.722656c2.792968 0 5.078125 2.285157 5.078125 5.078125zm0 0" fill="#ffaf10"></path><path d="m323.304688 163.640625v-15.636719c0-2.789062 2.285156-5.078125 5.078124-5.078125h-31.859374c-2.792969 0-5.074219 2.285157-5.074219 5.078125v15.636719c0 2.792969 2.28125 5.078125 5.074219 5.078125h31.859374c-2.792968 0-5.078124-2.285156-5.078124-5.078125zm0 0" fill="#f39600"></path></svg>