<svg xmlns="http://www.w3.org/2000/svg" height="512pt" viewBox="-37 0 512 512.001" width="512pt"><g fill="#def9ff"><path d="m184.152344 331.960938 7.3125-13.546876c1.175781-2.171874 4.253906-4.007812 6.722656-4.007812h12.96875v-21.910156h-16.410156c-2.292969 0-4.15625-1.859375-4.15625-4.148438v-31.894531h-31.296875v75.507813zm0 0"></path><path d="m264.753906 288.347656c0 2.289063-1.863281 4.148438-4.15625 4.148438h-16.410156v21.910156h12.96875c2.472656 0 5.546875 1.835938 6.71875 4.007812l7.3125 13.546876h21.105469v-75.507813h-27.539063zm0 0"></path><path d="m265.445312 448.675781v17.855469c0 2.058594-1.671874 3.730469-3.730468 3.730469h-18.730469v41.738281h49.308594v-63.324219zm0 0"></path><path d="m212.359375 470.261719h-18.734375c-2.054688 0-3.730469-1.671875-3.730469-3.730469v-17.855469h-30.601562v63.324219h53.066406zm0 0"></path></g><path d="m153.621094 448.675781v1.664063c0 5.351562-4.347656 9.699218-9.695313 9.699218h-27.109375c-5.347656 0-9.699218-4.347656-9.699218-9.699218v-46.132813c0-5.347656 4.351562-9.699219 9.699218-9.699219h19.992188v-46.085937c0-9.078125 7.390625-16.460937 16.472656-16.460937h7.523438v-75.507813h-33.535157c-14.488281 0-27.117187 8.042969-33.613281 19.875l-83.9375 113.9375c-14.847656 20.160156-9.089844 36.886719-5.925781 43.140625 3.164062 6.257812 13.230469 20.804688 38.285156 20.804688h46.925781v53.226562c0 2.519531 2.042969 4.5625 4.566406 4.5625h67.234376v-63.324219zm-64.617188-44.4375h-27.476562l27.476562-37.296875zm0 0" fill="#0079f1"></path><path d="m20.808594 409.386719 83.9375-113.9375c6.496094-11.832031 19.125-19.875 33.613281-19.875h22.445313v-19.117188h-33.535157c-14.488281 0-27.117187 8.042969-33.613281 19.871094l-83.9375 113.9375c-14.847656 20.160156-9.089844 36.886719-5.925781 43.140625 1.3125 2.589844 3.816406 6.601562 8.074219 10.417969-1.738282-8.328125-1.273438-20.570313 8.941406-34.4375zm0 0" fill="#0052ac"></path><path d="m211.359375 470.261719h32.625v41.738281h-32.625zm0 0" fill="#6d6e71"></path><path d="m211.359375 470.261719h16.535156v41.738281h-16.535156zm0 0" fill="#585959"></path><path d="m188.894531 448.675781v17.855469c0 2.601562 2.128907 4.730469 4.730469 4.730469h68.09375c2.601562 0 4.726562-2.128907 4.726562-4.730469v-17.855469zm0 0" fill="#383838"></path><path d="m210.015625 466.53125v-17.855469h-21.121094v17.855469c0 2.601562 2.128907 4.730469 4.730469 4.730469h21.121094c-2.601563 0-4.730469-2.128907-4.730469-4.730469zm0 0" fill="#282828"></path><path d="m115.921875 39.804688c0 5.128906 2.859375 9.585937 7.070313 11.871093v75.472657c.496093-.046876.992187-.074219 1.5-.074219h15.136718v-11.460938c0-56.234375 54.058594-64.632812 86.28125-64.632812s86.277344 8.398437 86.277344 64.632812v11.460938h15.140625c.507813 0 1.007813.027343 1.5.074219v-78.285157c0-26.875-22.007813-48.863281-48.902344-48.863281h-150.496093c-7.460938 0-13.507813 6.042969-13.507813 13.496094 0 6.425781 4.496094 11.792968 10.515625 13.15625-6.019531 1.359375-10.515625 6.726562-10.515625 13.152344zm0 0" fill="#b57a4e"></path><path d="m115.921875 39.804688c0 5.128906 2.859375 9.585937 7.070313 11.871093v75.472657c.496093-.046876.992187-.074219 1.5-.074219h15.136718v-11.460938c0-8.421875 1.222656-15.765625 3.390625-22.171875v-56.804687c0-14.554688 6.460938-27.664063 16.648438-36.636719h-30.238281c-7.460938 0-13.507813 6.042969-13.507813 13.496094 0 6.425781 4.496094 11.792968 10.515625 13.15625-6.019531 1.359375-10.515625 6.726562-10.515625 13.152344zm0 0" fill="#9b5729"></path><path d="m139.628906 166.519531v-40.445312h-15.136718c-9.058594 0-16.402344 7.308593-16.402344 16.324219v19.765624c0 9.015626 7.34375 16.324219 16.402344 16.324219h16.097656c-.625-3.898437-.960938-7.894531-.960938-11.96875zm0 0" fill="#ffe2b8"></path><path d="m327.328125 126.074219h-15.140625v40.445312c0 4.074219-.335938 8.070313-.960938 11.96875h16.101563c9.0625 0 16.398437-7.3125 16.398437-16.324219v-19.765624c.003907-9.015626-7.335937-16.324219-16.398437-16.324219zm0 0" fill="#eac092"></path><path d="m225.910156 49.980469c-48.203125 0-87.28125 17.832031-87.28125 65.632812v50.90625c0 33.625 21.730469 62.179688 51.960938 72.566407v-24.914063c0-2.289063 1.863281-4.152344 4.15625-4.152344h65.851562c2.292969 0 4.15625 1.863281 4.15625 4.152344v23.605469c28.382813-11.328125 48.433594-38.953125 48.433594-71.257813v-50.910156c0-47.796875-39.074219-65.628906-87.277344-65.628906zm0 0" fill="#ffe2b8"></path><path d="m190.589844 227.59375c-18.480469-14.019531-30.414063-36.152344-30.414063-61.070312v-45.855469c-.964843-.367188-1.871093-.9375-2.648437-1.714844-2.917969-2.9375-2.902344-7.6875.03125-10.605469 1.042968-1.035156 2.136718-1.980468 3.269531-2.855468 4.785156-36.914063 36.191406-52.828126 75.855469-55.183594-3.535156-.210938-7.125-.328125-10.773438-.328125-48.203125 0-87.277344 17.832031-87.277344 65.632812v50.90625c0 33.625 21.726563 62.179688 51.960938 72.566407v-11.492188zm0 0" fill="#ffc987"></path><path d="m233.445312 170.796875h-9.914062c-6.679688 0-12.113281-5.425781-12.113281-12.089844v-23.382812c0-4.140625 3.359375-7.5 7.5-7.5s7.5 3.359375 7.5 7.5v20.472656h7.027343c4.144532 0 7.5 3.359375 7.5 7.5 0 4.144531-3.355468 7.5-7.5 7.5zm0 0" fill="#72563c"></path><path d="m181.980469 155.839844c-4.140625 0-7.5-3.359375-7.5-7.5v-16.601563c0-4.144531 3.359375-7.5 7.5-7.5 4.144531 0 7.5 3.355469 7.5 7.5v16.601563c0 4.140625-3.355469 7.5-7.5 7.5zm0 0" fill="#72563c"></path><path d="m201.117188 121.164062c-1.914063 0-3.824219-.726562-5.289063-2.179687-7.636719-7.589844-20.058594-7.589844-27.691406 0-2.9375 2.921875-7.6875 2.90625-10.609375-.03125-2.917969-2.9375-2.90625-7.6875.03125-10.605469 13.464844-13.390625 35.378906-13.390625 48.84375 0 2.9375 2.917969 2.953125 7.667969.03125 10.605469-1.464844 1.472656-3.390625 2.210937-5.316406 2.210937zm0 0" fill="#b57a4e"></path><path d="m269.839844 155.839844c-4.144532 0-7.5-3.359375-7.5-7.5v-16.601563c0-4.144531 3.355468-7.5 7.5-7.5 4.140625 0 7.5 3.355469 7.5 7.5v16.601563c0 4.140625-3.359375 7.5-7.5 7.5zm0 0" fill="#72563c"></path><path d="m288.972656 121.164062c-1.910156 0-3.824218-.726562-5.285156-2.179687-7.636719-7.589844-20.0625-7.59375-27.699219 0-2.933593 2.921875-7.683593 2.90625-10.605469-.03125-2.921874-2.9375-2.90625-7.6875.03125-10.605469 13.464844-13.390625 35.378907-13.386718 48.847657 0 2.9375 2.917969 2.949219 7.667969.03125 10.605469-1.46875 1.472656-3.394531 2.210937-5.320313 2.210937zm0 0" fill="#b57a4e"></path><path d="m249.382812 210.019531c4.613282-5.292969 7.414063-12.183593 7.414063-19.714843 0-3.160157-2.589844-5.730469-5.769531-5.730469h-49.230469c-3.183594 0-5.773437 2.570312-5.773437 5.730469 0 7.53125 2.800781 14.421874 7.414062 19.714843zm0 0" fill="#ffa05f"></path><path d="m224.699219 210.019531c-4.613281-5.292969-7.425781-12.175781-7.425781-19.714843 0-3.160157 2.589843-5.730469 5.769531-5.730469h-21.246094c-3.183594 0-5.773437 2.570312-5.773437 5.730469 0 7.53125 2.800781 14.421874 7.414062 19.714843zm0 0" fill="#ff812c"></path><path d="m435.757812 422.6875-76.019531-145.921875s-8.527343-20.3125-35.1875-20.3125h-33.875v75.507813h11.285157l.066406-.925782c.375-5.035156 4.617187-8.976562 9.65625-8.976562h27.113281c5.34375 0 9.695313 4.351562 9.695313 9.699218v46.132813c0 5.351563-4.351563 9.703125-9.695313 9.703125h-20.261719v44.621094c0 9.074218-7.390625 16.457031-16.476562 16.457031h-11.382813v63.328125h67.574219c2.519531 0 4.5625-2.042969 4.5625-4.566406v-93.230469l31.941406 36.472656c4.910156 5.609375 11.832032 8.535157 18.832032 8.535157 4.882812 0 9.800781-1.425782 14.09375-4.359376 10.457031-7.132812 13.921874-20.949218 8.078124-32.164062zm0 0" fill="#0079f1"></path><path d="m405.707031 397.582031-57.21875-65.859375c0 .011719.003907.023438.003907.039063v22.835937l45.890624 52.820313c1.480469 1.707031 3.566407 2.582031 5.664063 2.582031 1.742187 0 3.496094-.605469 4.914063-1.839844 3.128906-2.714844 3.460937-7.453125.746093-10.578125zm0 0" fill="#0052ac"></path><path d="m210.15625 292.496094h35.03125v21.910156h-35.03125zm0 0" fill="#a7a9ac"></path><path d="m260.597656 209.019531h-65.851562c-2.835938 0-5.15625 2.320313-5.15625 5.152344v74.175781c0 2.832032 2.320312 5.148438 5.15625 5.148438h65.851562c2.835938 0 5.15625-2.316406 5.15625-5.148438v-74.175781c0-2.832031-2.320312-5.152344-5.15625-5.152344zm0 0" fill="#6d6e71"></path><path d="m211.160156 288.347656v-34.652344c-1.769531-.769531-3.015625-2.535156-3.015625-4.582031v-16.546875c0-2.046875 1.246094-3.8125 3.015625-4.582031v-13.8125c0-2.832031 2.320313-5.148437 5.152344-5.148437h-21.566406c-2.835938 0-5.15625 2.316406-5.15625 5.148437v74.175781c0 2.832032 2.320312 5.148438 5.15625 5.148438h21.566406c-2.832031 0-5.152344-2.316406-5.152344-5.148438zm0 0" fill="#585959"></path><path d="m213.144531 254.113281c-2.75 0-5-2.25-5-5v-16.550781c0-2.75 2.25-5 5-5h29.054688c2.75 0 5 2.25 5 5v16.550781c0 2.75-2.25 5-5 5zm0 0" fill="#fff"></path><path d="m311.683594 387.59375c-5.34375 0-9.691406-4.351562-9.691406-9.699219v-4.402343c0-2.890626 1.277343-5.609376 3.507812-7.464844l.921875-.765625-.921875-.769531c-2.230469-1.855469-3.507812-4.574219-3.507812-7.464844v-4.402344c0-2.886719 1.277343-5.605469 3.507812-7.460938l.921875-.769531-.921875-.769531c-2.230469-1.855469-3.507812-4.574219-3.507812-7.464844v-4.398437c0-.273438.015624-.535157.039062-.800781h-30.246094l-7.03125-13.019532c-1.34375-2.496094-4.761718-4.535156-7.597656-4.535156h-58.96875c-2.832031 0-6.253906 2.039062-7.601562 4.535156l-7.027344 13.019532h-30.277344c-9.609375 0-17.472656 7.855468-17.472656 17.460937v46.085937h8.117187c5.347657 0 9.695313 4.351563 9.695313 9.699219v4.402344c0 2.890625-1.277344 5.609375-3.507813 7.464844l-.925781.769531.925781.765625c2.230469 1.855469 3.507813 4.574219 3.507813 7.464844v4.402343c0 2.890626-1.277344 5.609376-3.507813 7.464844l-.925781.765625.925781.769531c2.230469 1.851563 3.507813 4.574219 3.507813 7.460938v3.738281h148.441406c9.609375 0 17.472656-7.859375 17.472656-17.460937v-44.621094zm0 0" fill="#6d6e71"></path><path d="m218.605469 428.359375c-17.726563-4.117187-30.980469-20.019531-30.980469-38.964844 0-16.792969 10.414062-31.195312 25.121094-37.121093h-76.9375v42.234374h8.117187c5.347657 0 9.695313 4.351563 9.695313 9.699219v4.402344c0 2.886719-1.277344 5.609375-3.507813 7.460937l-.925781.769532.925781.769531c2.230469 1.855469 3.507813 4.574219 3.507813 7.464844v3.285156zm0 0" fill="#383838"></path><path d="m311.683594 387.59375c-5.34375 0-9.691406-4.351562-9.691406-9.699219v-4.402343c0-2.890626 1.277343-5.609376 3.507812-7.464844l.921875-.765625-.921875-.769531c-2.230469-1.855469-3.507812-4.574219-3.507812-7.464844v-4.402344c0-.117188.015624-.230469.019531-.351562h-59.414063c14.710938 5.925781 25.121094 20.328124 25.121094 37.121093 0 18.945313-13.25 34.847657-30.980469 38.964844h82.796875v-40.765625zm0 0" fill="#383838"></path><path d="m135.808594 394.507812h8.117187c5.347657 0 9.695313 4.351563 9.695313 9.699219v4.402344c0 2.890625-1.277344 5.609375-3.507813 7.464844l-.925781.769531.925781.765625c2.230469 1.855469 3.507813 4.574219 3.507813 7.464844v3.285156h3.828125v-76.085937h-21.640625zm0 0" fill="#282828"></path><path d="m268.71875 389.394531c0 22.652344-18.378906 41.011719-41.046875 41.011719s-41.046875-18.359375-41.046875-41.011719c0-22.648437 18.378906-41.011719 41.046875-41.011719s41.046875 18.359376 41.046875 41.011719zm0 0" fill="#8a8c8e"></path><path d="m248.863281 389.394531c0 11.691407-9.492187 21.171875-21.191406 21.171875-11.703125 0-21.191406-9.480468-21.191406-21.171875 0-11.691406 9.488281-21.171875 21.191406-21.171875 11.699219 0 21.191406 9.480469 21.191406 21.171875zm0 0" fill="#00cca5"></path><path d="m219.171875 389.394531c0-9.484375 6.242187-17.507812 14.84375-20.203125-2.003906-.628906-4.132813-.96875-6.34375-.96875-11.703125 0-21.191406 9.480469-21.191406 21.171875 0 11.691407 9.488281 21.171875 21.191406 21.171875 2.210937 0 4.339844-.339844 6.34375-.96875-8.601563-2.695312-14.84375-10.722656-14.84375-20.203125zm0 0" fill="#02af8e"></path><path d="m244.160156 339.457031h-32.976562c-4.140625 0-7.5-3.359375-7.5-7.5 0-4.144531 3.359375-7.5 7.5-7.5h32.976562c4.144532 0 7.5 3.355469 7.5 7.5 0 4.140625-3.355468 7.5-7.5 7.5zm0 0" fill="#fff"></path><path d="m116.816406 461.039062c-5.898437 0-10.699218-4.796874-10.699218-10.699218v-46.132813c0-5.898437 4.800781-10.699219 10.699218-10.699219h27.109375c5.898438 0 10.695313 4.800782 10.695313 10.699219v4.402344c0 3.304687-1.503906 6.269531-3.867188 8.230469 2.363282 1.964844 3.867188 4.925781 3.867188 8.230468v4.402344c0 3.308594-1.503906 6.269532-3.867188 8.234375 2.363282 1.964844 3.867188 4.925781 3.867188 8.226563v4.402344c0 5.902343-4.796875 10.703124-10.695313 10.703124zm0 0" fill="#ffe2b8"></path><path d="m123.4375 450.339844v-46.132813c0-5.898437 4.796875-10.699219 10.695312-10.699219h-17.316406c-5.898437 0-10.695312 4.800782-10.695312 10.699219v46.132813c0 5.902344 4.796875 10.699218 10.695312 10.699218h17.316406c-5.898437 0-10.695312-4.796874-10.695312-10.699218zm0 0" fill="#ffc987"></path><path d="m338.796875 388.59375c5.898437 0 10.695313-4.800781 10.695313-10.699219v-46.132812c0-5.898438-4.796876-10.703125-10.695313-10.703125h-27.113281c-5.898438 0-10.691406 4.804687-10.691406 10.703125v4.398437c0 3.308594 1.503906 6.269532 3.867187 8.234375-2.363281 1.964844-3.867187 4.925781-3.867187 8.230469v4.402344c0 3.308594 1.503906 6.269531 3.867187 8.230468-2.363281 1.964844-3.867187 4.925782-3.867187 8.230469v4.402344c0 5.898437 4.792968 10.699219 10.691406 10.699219h27.113281zm0 0" fill="#ffe2b8"></path><path d="m319.273438 377.894531v-4.402343c0-3.304688 1.503906-6.269532 3.867187-8.230469-2.363281-1.964844-3.867187-4.925781-3.867187-8.234375v-4.398438c0-3.308594 1.503906-6.269531 3.867187-8.234375-2.363281-1.964843-3.867187-4.925781-3.867187-8.230469v-4.402343c0-5.898438 4.792968-10.699219 10.691406-10.699219h-18.28125c-5.898438 0-10.691406 4.800781-10.691406 10.699219v4.402343c0 3.308594 1.503906 6.269532 3.867187 8.230469-2.363281 1.96875-3.867187 4.929688-3.867187 8.234375v4.398438c0 3.308594 1.503906 6.269531 3.867187 8.234375-2.363281 1.964843-3.867187 4.925781-3.867187 8.230469v4.402343c0 5.898438 4.792968 10.699219 10.691406 10.699219h18.28125c-5.898438 0-10.691406-4.800781-10.691406-10.699219zm0 0" fill="#ffc987"></path></svg>