<svg xmlns="http://www.w3.org/2000/svg" height="512pt" viewBox="0 -3 512 512" width="512pt"><path d="m84.722656 247.253906h-48.195312c-15.453125 0-27.980469 12.457032-27.980469 27.816406 0 15.363282 12.527344 27.820313 27.980469 27.820313h20.421875zm0 0" fill="#eac092"></path><path d="m475.472656 247.253906h-48.03125l27.652344 55.636719h20.378906c15.453125 0 27.980469-12.453125 27.980469-27.816406s-12.527344-27.820313-27.980469-27.820313zm0 0" fill="#eac092"></path><path d="m29.335938 275.070312c0-15.359374 12.527343-27.816406 27.980468-27.816406h-20.789062c-15.453125 0-27.980469 12.457032-27.980469 27.816406 0 15.363282 12.527344 27.820313 27.980469 27.820313h20.789062c-15.453125 0-27.980468-12.457031-27.980468-27.820313zm0 0" fill="#e0aa68"></path><path d="m74.9375 303.890625h85.582031l.285157-.253906c9.613281-8.542969 21.988281-13.246094 34.839843-13.246094h120.710938c12.855469 0 25.226562 4.703125 34.84375 13.246094l.285156.253906h85.582031c8.277344 0 16.035156 2.25 22.699219 6.148437l-64.28125-129.335937c-4.550781-9.164063-13.941406-14.964844-24.222656-14.964844h-25.082031c-8.335938 4.601563-17.804688 7.109375-27.582032 7.109375-3.453125 0-6.996094-.335937-10.523437-.996094l-.660157-.121093-.363281.5625c-.316406.488281-.648437.898437-1.007812 1.257812-1.46875 1.453125-3.457031 2.222657-5.75 2.222657-3.164063 0-6.628907-1.558594-9.269531-4.167969l-.808594-.804688-.761719.625-.191406.191407c-2.628907 2.601562-6.089844 4.15625-9.257813 4.15625-2.289062 0-4.277344-.769532-5.75-2.222657-1.359375-1.351562-2.132812-3.15625-2.230468-5.234375l-.035157-.710937-.6875-.199219c-1.332031-.390625-2.652343-.910156-3.914062-1.550781l-.230469-.117188h-.960938l-.214843.722657c-2.171875 7.1875-7.171875 11.828124-12.742188 11.828124-5.398437 0-10.335937-4.449218-12.582031-11.34375l-.367188-1.132812-1.054687.5625c-3.125 1.664062-6.382813 2.546875-9.414063 2.546875-3.210937 0-5.96875-.992187-7.972656-2.871094l-.332031-.3125h-.527344l-.300781.164063c-8.351562 4.542968-17.785156 6.945312-27.285156 6.945312-9.777344 0-19.242188-2.507812-27.582032-7.109375h-24.769531c-10.265625 0-19.640625 5.78125-24.203125 14.921875l-64.574218 129.359375c6.65625-3.886719 14.398437-6.128906 22.664062-6.128906zm0 0" fill="#ffe2b8"></path><path d="m160.519531 303.890625.285157-.253906c9.613281-8.542969 21.988281-13.246094 34.839843-13.246094h120.710938c12.855469 0 25.226562 4.703125 34.84375 13.246094l.285156.253906h75.082031l-53.078125-106.800781c-1.226562-2.46875-4.484375-4.492188-7.246093-4.492188h-220.179688c-2.757812 0-6.023438 2.019532-7.253906 4.488282l-53.3125 106.804687zm0 0" fill="#ff99a3"></path><path d="m106.496094 303.890625 53.316406-106.804687c1.230469-2.46875 4.496094-4.488282 7.253906-4.488282h-21.003906c-2.757812 0-6.023438 2.019532-7.253906 4.488282l-53.3125 106.804687zm0 0" fill="#ff788c"></path><path d="m407.183594 443.976562h65.179687v48.007813h-65.179687zm0 0" fill="#383838"></path><path d="m428.796875 443.976562h21.957031v48.007813h-21.957031zm0 0" fill="#585959"></path><path d="m479.863281 491.984375v-48.007813h-15v47.007813h-6.609375v-47.007813h-15v47.007813h-6.957031v-47.007813h-15v47.007813h-6.613281v-47.007813h-15v48.007813zm0 0" fill="#282828"></path><path d="m39.636719 443.976562h65.179687v48.007813h-65.179687zm0 0" fill="#383838"></path><path d="m61.246094 443.976562h21.957031v48.007813h-21.957031zm0 0" fill="#585959"></path><path d="m112.316406 491.984375v-48.007813h-15v47.007813h-6.613281v-47.007813h-15v47.007813h-6.957031v-47.007813h-15v47.007813h-6.609375v-47.007813h-15v48.007813zm0 0" fill="#282828"></path><path d="m316.355469 290.390625c12.851562 0 25.226562 4.703125 34.84375 13.246094l.28125.253906h15.601562v-48.964844c0-5.949219-4.851562-10.773437-10.832031-10.773437h-54.171875c-5.984375 0-10.835937 4.824218-10.835937 10.773437v35.464844zm0 0" fill="#8a8c8e"></path><path d="m312.164062 290.390625v-35.464844c0-5.949219 4.851563-10.773437 10.835938-10.773437h-20.921875c-5.984375 0-10.835937 4.824218-10.835937 10.773437v35.464844zm0 0" fill="#6d6e71"></path><path d="m160.519531 303.890625.285157-.253906c9.613281-8.542969 21.988281-13.246094 34.839843-13.246094h25.113281v-35.464844c0-5.949219-4.851562-10.773437-10.835937-10.773437h-54.167969c-5.988281 0-10.835937 4.824218-10.835937 10.773437v48.964844zm0 0" fill="#8a8c8e"></path><path d="m160.519531 303.890625.285157-.253906c1.570312-1.398438 3.222656-2.679688 4.929687-3.867188v-44.84375c0-5.949219 4.851563-10.773437 10.835937-10.773437h-20.816406c-5.988281 0-10.835937 4.824218-10.835937 10.773437v48.964844zm0 0" fill="#6d6e71"></path><path d="m368.726562 342.488281v56.292969h114.207032v-50.292969c0-25.183593-20.535156-45.597656-45.871094-45.597656h-86.730469c11.246094 9.5625 18.394531 23.761719 18.394531 39.597656zm0 0" fill="#f8d5ab"></path><path d="m143.273438 398.78125v-56.292969c0-15.835937 7.148437-30.035156 18.394531-39.597656h-86.730469c-25.332031 0-45.871094 20.414063-45.871094 45.597656v50.292969zm0 0" fill="#f8d5ab"></path><path d="m49.921875 346.089844c1.257813-24.066406 21.285156-43.199219 45.808594-43.199219h-20.792969c-24.523438 0-44.550781 19.132813-45.804688 43.199219zm0 0" fill="#eac092"></path><path d="m186.976562 398.78125v-2.535156c0-2.214844 1.800782-4.015625 4.015626-4.015625h130.015624c2.214844 0 4.015626 1.800781 4.015626 4.015625v2.535156h37.203124v-56.292969c0-25.183593-20.539062-45.597656-45.871093-45.597656h-120.710938c-25.332031 0-45.867187 20.414063-45.867187 45.597656v56.292969zm0 0" fill="#fcf3eb"></path><g fill="#e0aa68"><path d="m233.890625 353.503906v38.726563h15v-27.859375zm0 0"></path><path d="m263.109375 364.367188v27.863281h15v-38.726563zm0 0"></path><path d="m316.355469 289.390625h-120.710938c-29.425781 0-53.371093 23.820313-53.371093 53.097656v56.292969h15v-56.292969c0-13.652343 7.277343-25.648437 18.175781-32.375v88.667969h11.527343v-2.535156c0-2.027344 1.515626-3.691406 3.472657-3.960938v-87.539062c1.699219-.226563 3.433593-.355469 5.195312-.355469h9.027344v87.84375h15v-87.84375h14.21875v10.457031h15v-10.457031h14.21875v10.457031h15v-10.457031h14.21875v87.84375h15v-87.84375h9.027344c1.761719 0 3.492187.128906 5.195312.355469v87.539062c1.953125.269532 3.46875 1.933594 3.46875 3.960938v2.535156h11.53125v-88.667969c10.898438 6.726563 18.171875 18.722657 18.171875 32.375v56.292969h15v-56.292969c.003906-29.277343-23.941406-53.097656-53.367187-53.097656zm0 0"></path></g><path d="m175.449219 310.113281c-10.898438 6.726563-18.171875 18.722657-18.171875 32.375v56.292969h13.472656v-56.292969c0-7.222656 1.695312-14.046875 4.703125-20.113281v-12.261719zm0 0" fill="#e0e0e0"></path><path d="m482.933594 398.78125v-50.292969c0-.804687-.023438-1.605469-.0625-2.398437h-25.113282c-37.769531 0-68.84375 23.085937-72.636718 52.691406zm0 0" fill="#ffcb00"></path><path d="m126.878906 398.78125c-3.792968-29.605469-34.863281-52.691406-72.636718-52.691406h-25.113282c-.039062.792968-.0625 1.59375-.0625 2.398437v50.292969zm0 0" fill="#ffcb00"></path><path d="m49.921875 346.089844h-20.792969c-.039062.792968-.0625 1.59375-.0625 2.398437v50.292969h20.792969v-50.292969c0-.804687.023437-1.605469.0625-2.398437zm0 0" fill="#ffaf10"></path><path d="m95.664062 398.78125c.21875-1.261719.335938-2.558594.335938-3.882812 0-12.617188-10.234375-22.847657-22.855469-22.847657-12.625 0-22.859375 10.226563-22.859375 22.847657 0 1.324218.121094 2.621093.335938 3.882812zm0 0" fill="#fff4a4"></path><path d="m461.378906 398.78125c.214844-1.261719.335938-2.558594.335938-3.882812 0-12.617188-10.234375-22.847657-22.859375-22.847657-12.621094 0-22.855469 10.226563-22.855469 22.847657 0 1.324218.117188 2.621093.335938 3.882812zm0 0" fill="#fff4a4"></path><path d="m186.976562 397.78125h-164.433593c-8.273438 0-15.042969 6.769531-15.042969 15.042969v17.105469c0 8.277343 6.769531 15.046874 15.042969 15.046874h164.433593zm0 0" fill="#c7c8ca"></path><path d="m489.457031 397.78125h-164.433593v47.195312h164.433593c8.273438 0 15.042969-6.769531 15.042969-15.046874v-17.105469c0-8.273438-6.769531-15.042969-15.042969-15.042969zm0 0" fill="#c7c8ca"></path><path d="m38.820312 429.933594v-17.105469c0-8.277344 6.769532-15.046875 15.042969-15.046875h-31.320312c-8.273438 0-15.042969 6.769531-15.042969 15.046875v17.105469c0 8.273437 6.769531 15.042968 15.042969 15.042968h31.320312c-8.273437 0-15.042969-6.769531-15.042969-15.042968zm0 0" fill="#a7a9ac"></path><path d="m322.886719 105.980469c-1.171875 0-2.265625-.457031-3.089844-1.28125l-35.777344-35.792969c-4.1875-4.191406-6.496093-9.757812-6.496093-15.683594 0-5.925781 2.308593-11.496094 6.496093-15.683594 4.183594-4.191406 9.753907-6.496093 15.675781-6.496093 5.921876 0 11.492188 2.304687 15.679688 6.496093l7.511719 7.511719 7.507812-7.511719c4.191407-4.191406 9.753907-6.496093 15.679688-6.496093 5.921875 0 11.488281 2.304687 15.679687 6.496093 4.1875 4.1875 6.492188 9.757813 6.492188 15.683594 0 5.925782-2.304688 11.496094-6.492188 15.683594l-35.78125 35.792969c-.824218.824219-1.921875 1.28125-3.085937 1.28125zm0 0" fill="#f66"></path><path d="m304.617188 58.710938c-4.1875-4.191407-6.496094-9.757813-6.496094-15.683594 0-4.285156 1.222656-8.371094 3.472656-11.894532-.628906-.050781-1.257812-.089843-1.898438-.089843-5.925781 0-11.492187 2.304687-15.675781 6.496093-4.1875 4.1875-6.496093 9.757813-6.496093 15.683594 0 5.925782 2.308593 11.492188 6.496093 15.683594l35.777344 35.792969c.824219.824219 1.917969 1.28125 3.085937 1.28125 1.167969 0 2.265626-.457031 3.089844-1.28125l12.304688-12.308594zm0 0" fill="#fe3745"></path><path d="m219.074219 63.328125c-.984375 0-1.914063-.386719-2.609375-1.082031l-30.234375-30.246094c-3.539063-3.542969-5.488281-8.25-5.488281-13.257812 0-5.003907 1.949218-9.714844 5.488281-13.25 3.539062-3.542969 8.242187-5.492188 13.25-5.492188 5.003906 0 9.710937 1.949219 13.246093 5.492188l6.347657 6.347656 6.347656-6.347656c3.542969-3.542969 8.246094-5.492188 13.25-5.492188 5.007813 0 9.710937 1.949219 13.25 5.492188 3.539063 3.535156 5.484375 8.246093 5.484375 13.25 0 5.007812-1.945312 9.714843-5.484375 13.257812l-30.234375 30.246094c-.699219.695312-1.625 1.082031-2.613281 1.082031zm0 0" fill="#ff99a3"></path><path d="m206.890625 21.46875c-3.539063-3.542969-5.492187-8.25-5.492187-13.253906 0-2.765625.613281-5.425782 1.742187-7.859375-1.195313-.234375-2.417969-.355469-3.660156-.355469-5.007813 0-9.710938 1.949219-13.25 5.492188-3.539063 3.535156-5.488281 8.246093-5.488281 13.25 0 5.007812 1.949218 9.714843 5.488281 13.257812l30.234375 30.246094c.695312.695312 1.625 1.082031 2.609375 1.082031.988281 0 1.914062-.386719 2.613281-1.082031l12.980469-12.984375zm0 0" fill="#f66"></path><path d="m504.5 505.984375h-497c-4.140625 0-7.5-3.355469-7.5-7.5s3.359375-7.5 7.5-7.5h497c4.140625 0 7.5 3.355469 7.5 7.5s-3.359375 7.5-7.5 7.5zm0 0" fill="#6d6e71"></path><path d="m326.023438 446.511719c0 2.757812-2.257813 5.015625-5.015626 5.015625h-130.015624c-2.757813 0-5.015626-2.257813-5.015626-5.015625v-50.265625c0-2.757813 2.257813-5.015625 5.015626-5.015625h130.015624c2.757813 0 5.015626 2.257812 5.015626 5.015625zm0 0" fill="#585959"></path><path d="m206.855469 446.511719v-50.265625c0-2.757813 2.257812-5.015625 5.015625-5.015625h-20.878906c-2.757813 0-5.015626 2.257812-5.015626 5.015625v50.265625c0 2.757812 2.257813 5.015625 5.015626 5.015625h20.878906c-2.757813 0-5.015625-2.257813-5.015625-5.015625zm0 0" fill="#383838"></path><path d="m282.183594 348.066406c0 2.046875-1.355469 4.703125-3.011719 5.902344l-20.160156 14.601562c-1.65625 1.203126-4.367188 1.203126-6.023438 0l-20.164062-14.601562c-1.65625-1.199219-3.011719-3.855469-3.011719-5.902344v-30.5c0-2.046875 1.675781-3.71875 3.71875-3.71875h44.933594c2.046875 0 3.71875 1.671875 3.71875 3.71875zm0 0" fill="#f39600"></path><path d="m250.335938 345.652344c-1.660157-1.199219-3.015626-3.851563-3.015626-5.898438v-25.90625h-13.789062c-2.042969 0-3.71875 1.671875-3.71875 3.71875v30.5c0 2.046875 1.355469 4.703125 3.011719 5.902344l20.164062 14.605469c1.65625 1.199219 4.367188 1.199219 6.023438 0l11.480469-8.316407zm0 0" fill="#ce7a00"></path><path d="m221.6875 165.910156c-3.808594-3.738281-4.089844-10.300781-.714844-16.722656l.570313-1.082031-1.175781-.34375c-7.324219-2.128907-12.058594-7.027344-12.058594-12.480469 0-1.019531.171875-2.027344.496094-3-4.960938-1.359375-10.140626-2.070312-15.402344-2.070312-16.742188 0-32.621094 7.175781-43.558594 19.6875-.535156.613281-.800781 1.371093-.800781 2.128906 0 .761718.265625 1.523437.800781 2.128906 10.9375 12.515625 26.816406 19.691406 43.558594 19.691406 10.195312 0 20.0625-2.675781 28.691406-7.578125-.132812-.121093-.277344-.234375-.40625-.359375zm0 0" fill="#00cca5"></path><path d="m221.6875 165.910156c-1.253906-1.234375-2.121094-2.773437-2.605469-4.515625-4.984375 1.375-10.179687 2.101563-15.464843 2.101563-16.746094 0-32.621094-7.179688-43.5625-19.691406-.535157-.609376-.800782-1.371094-.800782-2.128907 0-.132812.019532-.265625.035156-.398437-3.429687 2.496094-6.605468 5.375-9.445312 8.621094-.535156.613281-.804688 1.371093-.804688 2.128906 0 .761718.269532 1.523437.804688 2.128906 10.9375 12.515625 26.816406 19.691406 43.558594 19.691406 10.195312 0 20.058594-2.675781 28.691406-7.578125-.132812-.121093-.277344-.234375-.40625-.359375zm0 0" fill="#159e97"></path><path d="m220.972656 149.1875.570313-1.082031-1.175781-.34375c-2.609376-.757813-4.882813-1.871094-6.734376-3.234375h-26.867187c-4.144531 0-7.5 3.359375-7.5 7.5 0 4.144531 3.355469 7.5 7.5 7.5h31.949219c-.363282-3.148438.378906-6.765625 2.257812-10.339844zm0 0" fill="#003c72"></path><path d="m362.15625 149.898438c-10.9375-12.511719-26.816406-19.6875-43.558594-19.6875-7.464844 0-14.753906 1.4375-21.511718 4.125-.058594 4.484374-3.382813 8.628906-8.703126 11.101562.300782.253906.597657.519531.882813.800781l.160156.160157.726563.761718.820312-.863281c2.695313-2.667969 6.160156-4.226563 9.320313-4.226563 2.285156 0 4.273437.769532 5.746093 2.226563 1.816407 1.796875 2.582032 4.347656 2.152344 7.1875-.355468 2.371094-1.5 4.714844-3.308594 6.785156l-.574218.65625.574218.660157c1.808594 2.0625 2.953126 4.410156 3.308594 6.777343.359375 2.390625-.132812 4.570313-1.378906 6.273438 3.84375.792969 7.785156 1.210937 11.785156 1.210937 16.742188 0 32.621094-7.175781 43.558594-19.691406.535156-.605469.800781-1.367188.800781-2.125 0-.761719-.265625-1.519531-.800781-2.132812zm0 0" fill="#00cca5"></path><path d="m362.15625 149.898438c-1.898438-2.171876-3.957031-4.171876-6.132812-6.015626-7.785157 7.636719-17.566407 12.859376-28.171876 15.167969-.75.277344-1.550781.441407-2.390624.464844-3.265626.570313-6.597657.878906-9.964844.878906-3.335938 0-6.628906-.308593-9.859375-.867187h-.800781l-.132813-.152344.179687.207031c1.808594 2.066407 2.953126 4.410157 3.308594 6.78125.359375 2.390625-.132812 4.566407-1.378906 6.269531 3.84375.792969 7.789062 1.214844 11.785156 1.214844 16.742188 0 32.621094-7.175781 43.558594-19.691406.535156-.605469.804688-1.367188.804688-2.128906-.003907-.757813-.269532-1.515625-.804688-2.128906zm0 0" fill="#159e97"></path><path d="m325.234375 144.527344h-18.988281c1.660156 1.78125 2.355468 4.230468 1.945312 6.953125-.355468 2.371093-1.5 4.71875-3.308594 6.785156l-.574218.660156.527344.601563h20.398437c4.144531 0 7.5-3.355469 7.5-7.5 0-4.140625-3.355469-7.5-7.5-7.5zm0 0" fill="#003c72"></path><path d="m275.414062 159.582031.574219-.65625-.574219-.660156c-4.042968-4.617187-4.539062-10.625-1.160156-13.96875 1.476563-1.457031 3.464844-2.226563 5.75-2.226563 3.128906 0 6.550782 1.527344 9.175782 4.089844 5.378906-2.625 8.910156-6.988281 8.910156-11.941406 0-6.066406-5.28125-11.261719-12.777344-13.441406 3.472656-6.617188 3.367188-13.710938-.902344-17.902344-4.371094-4.285156-11.847656-4.296875-18.71875-.636719-2.308594-7.085937-7.5-12.03125-13.535156-12.03125-6.183594 0-11.476562 5.179688-13.695312 12.542969-6.742188-3.414062-13.976563-3.308594-18.242188.878906-4.371094 4.289063-4.382812 11.628906-.648438 18.371094-7.226562 2.265625-12.261718 7.359375-12.261718 13.28125 0 6.066406 5.277344 11.261719 12.777344 13.441406-3.476563 6.613282-3.371094 13.714844.898437 17.902344 4.371094 4.285156 11.84375 4.296875 18.71875.632812 2.308594 7.089844 7.5 12.035157 13.535156 12.035157 6.183594 0 11.476563-5.183594 13.695313-12.539063 1.695312.855469 3.417968 1.488282 5.121094 1.894532-.242188-2.929688.898437-6.253907 3.359374-9.066407zm0 0" fill="#ff99a3"></path><path d="m266.816406 134.75c0-7.652344-6.320312-13.855469-14.117187-13.855469s-14.121094 6.203125-14.121094 13.855469c0 7.648438 6.324219 13.851562 14.121094 13.851562s14.117187-6.203124 14.117187-13.851562zm0 0" fill="#fff"></path><path d="m280.003906 176.773438c3.421875 0 7.148438-1.664063 9.96875-4.457032.058594-.058594.117188-.117187.175782-.171875.054687.054688.113281.113281.171874.171875 2.824219 2.792969 6.550782 4.457032 9.972657 4.457032 2.554687 0 4.789062-.863282 6.449219-2.511719 2.046874-2.027344 2.914062-4.882813 2.4375-8.046875-.382813-2.554688-1.628907-5.101563-3.542969-7.289063 1.917969-2.191406 3.160156-4.742187 3.546875-7.296875.472656-3.160156-.394532-6.019531-2.441406-8.042968-1.664063-1.644532-3.894532-2.515626-6.449219-2.515626-3.421875 0-7.148438 1.667969-9.96875 4.457032-.058594.058594-.117188.117187-.175781.179687-.058594-.0625-.117188-.121093-.179688-.179687-2.816406-2.789063-6.542969-4.457032-9.964844-4.457032-2.558594 0-4.785156.871094-6.453125 2.515626-3.816406 3.777343-3.273437 10.328124 1.109375 15.339843-4.382812 5.003907-4.925781 11.558594-1.109375 15.335938 1.667969 1.648437 3.894531 2.511719 6.453125 2.511719zm0 0" fill="#f66"></path><path d="m296.410156 428.296875h-80.820312c-4.140625 0-7.5-3.359375-7.5-7.5 0-4.144531 3.359375-7.5 7.5-7.5h80.820312c4.140625 0 7.5 3.355469 7.5 7.5 0 4.140625-3.359375 7.5-7.5 7.5zm0 0" fill="#a7a9ac"></path></svg>