<svg xmlns="http://www.w3.org/2000/svg" height="512pt" viewBox="-41 0 512 512" width="512pt"><path d="m218.222656 78.863281c.003906-.347656.023438-.6875.023438-1.039062 0-30.785157-24.933594-55.738281-55.691406-55.738281-30.753907 0-55.6875 24.953124-55.6875 55.738281 0 .351562.019531.691406.023437 1.039062zm0 0" fill="#9b5729"></path><path d="m128.4375 78.863281c-.007812-.347656-.023438-.691406-.023438-1.039062 0-27.09375 19.316407-49.664063 44.917969-54.6875-3.488281-.683594-7.089843-1.050781-10.777343-1.050781-30.753907 0-55.6875 24.953124-55.6875 55.738281 0 .347656.019531.691406.027343 1.039062zm0 0" fill="#7f441c"></path><path d="m252.585938 324.117188c-2.289063 0-4.148438-1.863282-4.148438-4.148438v-171.34375h-172.28125c-2.289062 0-4.148438-1.863281-4.148438-4.152344v-46.90625h-61.707031c-5.664062 0-10.300781 4.636719-10.300781 10.304688v393.828125c0 5.664062 4.636719 10.300781 10.300781 10.300781h304.511719c5.664062 0 10.300781-4.636719 10.300781-10.300781v-177.582031zm0 0" fill="#eac092"></path><path d="m18.308594 501.699219v-393.828125c0-5.667969 4.636718-10.304688 10.300781-10.304688h-18.308594c-5.664062 0-10.300781 4.636719-10.300781 10.304688v393.828125c0 5.664062 4.636719 10.300781 10.300781 10.300781h18.308594c-5.664063 0-10.300781-4.636719-10.300781-10.300781zm0 0" fill="#e0aa68"></path><path d="m252.585938 324.117188c-2.289063 0-4.148438-1.863282-4.148438-4.148438v-171.34375h-172.28125c-2.289062 0-4.148438-1.863281-4.148438-4.152344v-17.886718h-35.132812c-2.835938 0-5.152344 2.316406-5.152344 5.152343v343.132813c0 2.832031 2.316406 5.152344 5.152344 5.152344h251.363281c2.835938 0 5.152344-2.320313 5.152344-5.152344v-150.753906zm0 0" fill="#fff"></path><path d="m53.335938 474.871094v-343.132813c0-2.835937 2.316406-5.152343 5.148437-5.152343h-21.609375c-2.835938 0-5.152344 2.316406-5.152344 5.152343v343.132813c0 2.832031 2.316406 5.152344 5.152344 5.152344h21.609375c-2.832031 0-5.148437-2.320313-5.148437-5.152344zm0 0" fill="#e0e0e0"></path><path d="m248.433594 77.863281h-172.277344c-2.832031 0-5.152344 2.320313-5.152344 5.152344v61.457031c0 2.832032 2.320313 5.152344 5.152344 5.152344h172.277344zm0 0" fill="#b57a4e"></path><path d="m92.480469 144.472656v-61.457031c0-2.832031 2.320312-5.148437 5.152343-5.148437h-21.480468c-2.832032 0-5.148438 2.316406-5.148438 5.148437v61.457031c0 2.835938 2.316406 5.152344 5.148438 5.152344h21.480468c-2.832031 0-5.152343-2.316406-5.152343-5.152344zm0 0" fill="#9b5729"></path><path d="m174.597656 59.714844h-24.085937c-4.140625 0-7.5-3.355469-7.5-7.5 0-4.144532 3.359375-7.5 7.5-7.5h24.085937c4.144532 0 7.5 3.355468 7.5 7.5 0 4.140625-3.355468 7.5-7.5 7.5zm0 0" fill="#602f0e"></path><path d="m98.839844 269.054688c0 1.699218-1.394532 3.089843-3.09375 3.089843h-20.910156c-1.699219 0-3.089844-1.390625-3.089844-3.089843v-20.9375c0-1.695313 1.390625-3.089844 3.089844-3.089844h20.910156c1.699218 0 3.09375 1.394531 3.09375 3.089844zm0 0" fill="#abebff"></path><path d="m82.179688 269.054688v-20.9375c0-1.695313 1.390624-3.089844 3.089843-3.089844h-10.433593c-1.699219 0-3.09375 1.394531-3.09375 3.089844v20.9375c0 1.699218 1.394531 3.089843 3.09375 3.089843h10.433593c-1.699219 0-3.089843-1.390625-3.089843-3.089843zm0 0" fill="#69cdff"></path><path d="m95.746094 279.644531h-20.910156c-5.839844 0-10.589844-4.75-10.589844-10.589843v-20.9375c0-5.835938 4.75-10.589844 10.589844-10.589844h20.910156c5.839844 0 10.59375 4.753906 10.59375 10.589844v20.9375c0 5.839843-4.753906 10.589843-10.59375 10.589843zm-16.5-15h12.09375v-12.113281h-12.09375zm0 0" fill="#0052ac"></path><path d="m98.839844 326.296875c0 1.699219-1.394532 3.089844-3.09375 3.089844h-20.910156c-1.699219 0-3.089844-1.390625-3.089844-3.089844v-20.933594c0-1.699219 1.390625-3.089843 3.089844-3.089843h20.910156c1.699218 0 3.09375 1.390624 3.09375 3.089843zm0 0" fill="#abebff"></path><path d="m82.179688 326.296875v-20.933594c0-1.699219 1.390624-3.089843 3.089843-3.089843h-10.433593c-1.699219 0-3.09375 1.390624-3.09375 3.089843v20.933594c0 1.699219 1.394531 3.089844 3.09375 3.089844h10.433593c-1.699219 0-3.089843-1.390625-3.089843-3.089844zm0 0" fill="#69cdff"></path><path d="m95.746094 336.886719h-20.910156c-5.839844 0-10.589844-4.75-10.589844-10.589844v-20.933594c0-5.839843 4.75-10.589843 10.589844-10.589843h20.910156c5.839844 0 10.59375 4.75 10.59375 10.589843v20.933594c0 5.839844-4.753906 10.589844-10.59375 10.589844zm-16.5-15h12.09375v-12.113281h-12.09375zm0 0" fill="#0052ac"></path><path d="m98.839844 383.535156c0 1.703125-1.394532 3.09375-3.09375 3.09375h-20.910156c-1.699219 0-3.089844-1.390625-3.089844-3.09375v-20.929687c0-1.699219 1.390625-3.089844 3.089844-3.089844h20.910156c1.699218 0 3.09375 1.390625 3.09375 3.089844zm0 0" fill="#abebff"></path><path d="m82.179688 383.535156v-20.929687c0-1.699219 1.390624-3.089844 3.089843-3.089844h-10.433593c-1.699219 0-3.09375 1.390625-3.09375 3.089844v20.929687c0 1.703125 1.394531 3.09375 3.09375 3.09375h10.433593c-1.699219 0-3.089843-1.390625-3.089843-3.09375zm0 0" fill="#69cdff"></path><path d="m95.746094 394.128906h-20.910156c-5.839844 0-10.589844-4.75-10.589844-10.59375v-20.929687c0-5.839844 4.75-10.589844 10.589844-10.589844h20.910156c5.839844 0 10.59375 4.75 10.59375 10.589844v20.929687c0 5.84375-4.753906 10.59375-10.59375 10.59375zm-16.5-15h12.09375v-12.113281h-12.09375zm0 0" fill="#0052ac"></path><path d="m98.839844 440.78125c0 1.699219-1.394532 3.089844-3.09375 3.089844h-20.910156c-1.699219 0-3.089844-1.390625-3.089844-3.089844v-20.933594c0-1.703125 1.390625-3.089844 3.089844-3.089844h20.910156c1.699218 0 3.09375 1.386719 3.09375 3.089844zm0 0" fill="#abebff"></path><path d="m82.179688 440.78125v-20.933594c0-1.703125 1.390624-3.089844 3.089843-3.089844h-10.433593c-1.699219 0-3.09375 1.386719-3.09375 3.089844v20.933594c0 1.699219 1.394531 3.089844 3.09375 3.089844h10.433593c-1.699219 0-3.089843-1.390625-3.089843-3.089844zm0 0" fill="#69cdff"></path><g fill="#003c72"><path d="m248.433594 250.714844h-111.464844c-4.144531 0-7.5 3.355468-7.5 7.5 0 4.140625 3.355469 7.5 7.5 7.5h111.464844zm0 0"></path><path d="m248.433594 319.96875v-12.140625h-111.464844c-4.144531 0-7.5 3.355469-7.5 7.5 0 4.140625 3.355469 7.5 7.5 7.5h112.625c-.714844-.746094-1.160156-1.75-1.160156-2.859375zm0 0"></path><path d="m253.367188 379.941406h-116.398438c-4.144531 0-7.5-3.355468-7.5-7.5 0-4.144531 3.355469-7.5 7.5-7.5h116.398438c4.140624 0 7.5 3.355469 7.5 7.5 0 4.144532-3.359376 7.5-7.5 7.5zm0 0"></path><path d="m253.367188 437.054688h-116.398438c-4.144531 0-7.5-3.355469-7.5-7.5 0-4.144532 3.355469-7.5 7.5-7.5h116.398438c4.140624 0 7.5 3.355468 7.5 7.5 0 4.140624-3.359376 7.5-7.5 7.5zm0 0"></path></g><path d="m162.554688 227.347656c-.839844 0-1.625-.324218-2.21875-.917968l-25.730469-25.644532c-3.011719-3-4.671875-6.992187-4.671875-11.238281 0-4.242187 1.660156-8.230469 4.671875-11.230469 3.011719-3.003906 7.015625-4.660156 11.273437-4.660156 4.261719 0 8.261719 1.65625 11.28125 4.660156l5.394532 5.378906 5.402343-5.378906c3.015625-3.003906 7.019531-4.660156 11.277344-4.660156s8.265625 1.65625 11.277344 4.660156c3.007812 3 4.667969 6.988282 4.667969 11.230469 0 4.246094-1.660157 8.238281-4.667969 11.238281l-25.734375 25.644532c-.59375.589843-1.382813.917968-2.222656.917968zm0 0" fill="#fe3745"></path><path d="m147.398438 192.585938c-3.015626-3-4.671876-6.992188-4.671876-11.238282 0-2.714844.683594-5.320312 1.960938-7.632812-3.808594.277344-7.351562 1.878906-10.082031 4.601562-3.011719 3-4.671875 6.988282-4.671875 11.230469 0 4.246094 1.660156 8.238281 4.671875 11.238281l25.730469 25.644532c.59375.59375 1.378906.917968 2.21875.917968.839843 0 1.628906-.324218 2.222656-.917968l8.292968-8.261719zm0 0" fill="#cf043c"></path><path d="m430.144531 319.96875c0 2.832031-2.316406 5.148438-5.148437 5.148438h-172.410156c-2.832032 0-5.148438-2.316407-5.148438-5.148438v-314.820312c0-2.832032 2.316406-5.148438 5.148438-5.148438h172.410156c2.832031 0 5.148437 2.316406 5.148437 5.148438zm0 0" fill="#abebff"></path><path d="m268.640625 319.96875v-314.820312c0-2.832032 2.320313-5.148438 5.152344-5.148438h-21.207031c-2.832032 0-5.152344 2.316406-5.152344 5.148438v314.816406c0 2.835937 2.320312 5.152344 5.152344 5.152344h21.207031c-2.832031 0-5.152344-2.316407-5.152344-5.148438zm0 0" fill="#76d8ff"></path><path d="m341.980469 91.738281c-2.398438-2.390625-3.722657-5.570312-3.722657-8.953125 0-3.382812 1.320313-6.558594 3.722657-8.945312 2.402343-2.394532 5.59375-3.714844 8.988281-3.714844 3.398438 0 6.589844 1.320312 8.996094 3.714844l5.347656 5.324218 5.347656-5.324218c1.695313-1.691406 3.789063-2.835938 6.070313-3.367188 1.535156-3.125 2.371093-6.570312 2.371093-10.152344 0-6.167968-2.410156-11.972656-6.789062-16.332031-4.382812-4.367187-10.203125-6.769531-16.398438-6.769531-6.191406 0-12.015624 2.402344-16.398437 6.769531l-7.851563 7.820313-7.851562-7.820313c-4.386719-4.367187-10.210938-6.769531-16.402344-6.769531-6.195312 0-12.011718 2.402344-16.390625 6.769531-4.386719 4.359375-6.796875 10.164063-6.796875 16.332031 0 6.171876 2.410156 11.976563 6.796875 16.34375l37.410157 37.289063c.867187.855469 2.011718 1.332031 3.230468 1.332031 1.222656 0 2.367188-.476562 3.234375-1.332031l14.6875-14.636719zm0 0" fill="#fe3745"></path><path d="m342.707031 105.664062-37.410156-37.285156c-4.386719-4.367187-6.800781-10.171875-6.800781-16.347656 0-5.335938 1.816406-10.394531 5.144531-14.484375-4.757813.769531-9.148437 2.976563-12.621094 6.441406-4.382812 4.359375-6.796875 10.164063-6.796875 16.328125 0 6.175782 2.414063 11.980469 6.796875 16.347656l37.414063 37.285157c.863281.859375 2.007812 1.335937 3.230468 1.335937 1.21875 0 2.363282-.476562 3.230469-1.335937l8.089844-8.058594c-.09375-.078125-.191406-.140625-.277344-.226563zm0 0" fill="#cf043c"></path><path d="m365.3125 115.285156c-.726562 0-1.402344-.28125-1.914062-.789062l-22.121094-22.046875c-2.59375-2.582031-4.019532-6.011719-4.019532-9.664063 0-3.648437 1.425782-7.078125 4.019532-9.652344 2.589844-2.585937 6.03125-4.007812 9.691406-4.007812s7.105469 1.421875 9.703125 4.007812l4.640625 4.621094 4.640625-4.621094c2.589844-2.585937 6.035156-4.007812 9.699219-4.007812 3.660156 0 7.101562 1.421875 9.691406 4.007812 2.589844 2.574219 4.015625 6.003907 4.015625 9.652344 0 3.652344-1.425781 7.082032-4.015625 9.664063l-22.125 22.046875c-.511719.507812-1.1875.789062-1.90625.789062zm0 0" fill="#ff99a3"></path><path d="m354.324219 84.066406c-2.589844-2.582031-4.019531-6.011718-4.019531-9.664062 0-1.835938.363281-3.613282 1.054687-5.257813-.132813-.003906-.257813-.019531-.390625-.019531-3.660156 0-7.101562 1.417969-9.691406 4.003906-2.59375 2.578125-4.019532 6.007813-4.019532 9.65625 0 3.652344 1.425782 7.078125 4.019532 9.660156l22.121094 22.050782c.511718.507812 1.1875.789062 1.914062.789062.71875 0 1.394531-.28125 1.90625-.789062l8.820312-8.789063zm0 0" fill="#f66"></path><path d="m396.65625 162.367188h-91.507812c-4.144532 0-7.5-3.359376-7.5-7.5 0-4.144532 3.355468-7.5 7.5-7.5h91.507812c4.144531 0 7.5 3.355468 7.5 7.5 0 4.140624-3.355469 7.5-7.5 7.5zm0 0" fill="#003c72"></path><path d="m396.65625 187.503906h-91.507812c-4.144532 0-7.5-3.355468-7.5-7.5 0-4.140625 3.355468-7.5 7.5-7.5h91.507812c4.144531 0 7.5 3.359375 7.5 7.5 0 4.144532-3.355469 7.5-7.5 7.5zm0 0" fill="#003c72"></path><path d="m396.65625 212.644531h-91.507812c-4.144532 0-7.5-3.355469-7.5-7.5 0-4.140625 3.355468-7.5 7.5-7.5h91.507812c4.144531 0 7.5 3.359375 7.5 7.5s-3.355469 7.5-7.5 7.5zm0 0" fill="#0052ac"></path><path d="m396.65625 237.785156h-91.507812c-4.144532 0-7.5-3.355468-7.5-7.5 0-4.144531 3.355468-7.5 7.5-7.5h91.507812c4.144531 0 7.5 3.355469 7.5 7.5 0 4.144532-3.355469 7.5-7.5 7.5zm0 0" fill="#0052ac"></path><path d="m396.65625 262.925781h-91.507812c-4.144532 0-7.5-3.355469-7.5-7.5s3.355468-7.5 7.5-7.5h91.507812c4.144531 0 7.5 3.355469 7.5 7.5s-3.355469 7.5-7.5 7.5zm0 0" fill="#0079f1"></path><path d="m396.65625 288.066406h-91.507812c-4.144532 0-7.5-3.355468-7.5-7.5 0-4.144531 3.355468-7.5 7.5-7.5h91.507812c4.144531 0 7.5 3.355469 7.5 7.5 0 4.144532-3.355469 7.5-7.5 7.5zm0 0" fill="#0079f1"></path><path d="m280.921875 162.371094c-1.96875 0-3.898437-.800782-5.300781-2.199219-1.398438-1.402344-2.199219-3.332031-2.199219-5.300781 0-1.980469.800781-3.910156 2.199219-5.3125 1.402344-1.390625 3.332031-2.1875 5.300781-2.1875 1.980469 0 3.910156.800781 5.3125 2.1875 1.390625 1.402344 2.1875 3.332031 2.1875 5.3125 0 1.96875-.800781 3.898437-2.1875 5.300781-1.402344 1.398437-3.34375 2.199219-5.3125 2.199219zm0 0" fill="#003c72"></path><path d="m280.921875 187.511719c-1.96875 0-3.898437-.8125-5.300781-2.203125-1.398438-1.398438-2.199219-3.328125-2.199219-5.308594 0-1.96875.800781-3.898438 2.199219-5.300781 1.390625-1.390625 3.332031-2.199219 5.300781-2.199219 1.980469 0 3.910156.808594 5.3125 2.199219 1.390625 1.398437 2.1875 3.332031 2.1875 5.300781 0 1.980469-.800781 3.910156-2.1875 5.308594-1.402344 1.390625-3.34375 2.203125-5.3125 2.203125zm0 0" fill="#003c72"></path><path d="m280.921875 212.648438c-1.96875 0-3.898437-.800782-5.300781-2.199219-1.398438-1.398438-2.199219-3.328125-2.199219-5.308594 0-1.972656.800781-3.902344 2.199219-5.300781 1.390625-1.402344 3.332031-2.199219 5.300781-2.199219 1.980469 0 3.910156.796875 5.3125 2.199219 1.390625 1.398437 2.1875 3.328125 2.1875 5.300781 0 1.976563-.800781 3.910156-2.1875 5.308594-1.402344 1.402343-3.34375 2.199219-5.3125 2.199219zm0 0" fill="#0052ac"></path><path d="m280.921875 237.789062c-1.96875 0-3.898437-.808593-5.300781-2.199218-1.398438-1.398438-2.199219-3.328125-2.199219-5.300782 0-1.980468.800781-3.910156 2.199219-5.308593 1.402344-1.390625 3.332031-2.191407 5.300781-2.191407 1.980469 0 3.910156.800782 5.3125 2.191407 1.390625 1.398437 2.1875 3.328125 2.1875 5.308593 0 1.972657-.800781 3.902344-2.1875 5.300782-1.402344 1.390625-3.332031 2.199218-5.3125 2.199218zm0 0" fill="#0052ac"></path><path d="m280.921875 262.929688c-1.96875 0-3.898437-.800782-5.300781-2.199219-1.398438-1.398438-2.199219-3.332031-2.199219-5.308594 0-1.972656.800781-3.902344 2.199219-5.300781 1.402344-1.390625 3.332031-2.199219 5.300781-2.199219 1.980469 0 3.910156.808594 5.3125 2.199219 1.390625 1.398437 2.1875 3.328125 2.1875 5.300781 0 1.976563-.800781 3.90625-2.1875 5.308594-1.402344 1.398437-3.332031 2.199219-5.3125 2.199219zm0 0" fill="#0079f1"></path><path d="m280.921875 288.070312c-1.96875 0-3.898437-.800781-5.300781-2.199218-1.398438-1.402344-2.199219-3.332032-2.199219-5.300782 0-1.980468.800781-3.910156 2.199219-5.3125 1.402344-1.390624 3.332031-2.1875 5.300781-2.1875 1.980469 0 3.910156.800782 5.3125 2.1875 1.390625 1.402344 2.1875 3.332032 2.1875 5.3125 0 1.96875-.800781 3.898438-2.1875 5.300782-1.402344 1.398437-3.332031 2.199218-5.3125 2.199218zm0 0" fill="#0079f1"></path><path d="m95.746094 451.371094h-20.910156c-5.839844 0-10.589844-4.75-10.589844-10.589844v-20.933594c0-5.839844 4.75-10.589844 10.589844-10.589844h20.910156c5.839844 0 10.59375 4.75 10.59375 10.589844v20.933594c0 5.839844-4.753906 10.589844-10.59375 10.589844zm-16.5-15h12.09375v-12.113282h-12.09375zm0 0" fill="#0052ac"></path></svg>