<svg xmlns="http://www.w3.org/2000/svg" height="512pt" viewBox="0 -9 512 512" width="512pt"><path d="m10.300781 493.007812c-5.664062 0-10.300781-4.636718-10.300781-10.304687v-472.402344c0-5.664062 4.636719-10.300781 10.300781-10.300781h491.398438c5.664062 0 10.300781 4.636719 10.300781 10.300781v472.402344c0 5.667969-4.636719 10.304687-10.300781 10.304687zm0 0" fill="#def9ff"></path><path d="m32.761719 32.777344h446.472656v343.355468h-446.472656zm0 0" fill="#ffaf10"></path><path d="m33.761719 33.777344h14.128906v341.355468h-14.128906zm0 0" fill="#f39600"></path><path d="m100.296875 367.355469c.207031-.777344.707031-1.429688 1.410156-1.828125l22.011719-12.511719c1.71875-.976563 1.949219-2.203125 1.933594-2.847656s-.308594-1.859375-2.074219-2.75l-16.945313-8.539063c-1.550781-.78125-2.414062-2.84375-1.882812-4.5l17.925781-55.714844h-37.910156c-20.316406 0-36.847656 16.460938-36.847656 36.6875v59.78125h55.96875l-3.269531-5.488281c-.414063-.695312-.527344-1.507812-.320313-2.289062zm0 0" fill="#0052ac"></path><path d="m255.601562 375.132812h21.824219v-30.828124c0-19.777344 13.726563-36.398438 32.148438-40.839844-4.972657-14.410156-18.710938-24.800782-34.851563-24.800782h-37.550781l17.582031 55.703126c.527344 1.664062-.34375 3.726562-1.898437 4.511718l-16.945313 8.539063c-1.765625.890625-2.058594 2.105469-2.074218 2.75-.015626.640625.214843 1.867187 1.933593 2.847656l22.011719 12.511719c.703125.398437 1.207031 1.050781 1.414062 1.828125.203126.78125.089844 1.59375-.324218 2.289062zm0 0" fill="#0052ac"></path><path d="m106.382812 278.664062h-21.621093c-20.316407 0-36.84375 16.460938-36.84375 36.6875v59.78125h21.617187v-59.78125c0-20.226562 16.53125-36.6875 36.847656-36.6875zm0 0" fill="#003c72"></path><path d="m144.148438 318.785156c-1.039063.429688-2.046876.648438-2.996094.648438-3.125 0-5.140625-2.390625-5.140625-6.085938v-26.59375c0-3.070312 1.398437-5.277344 3.746093-5.898437l.742188-.199219v-13.429688h-11.132812c-2.234376 0-4.625 1.742188-5.308594 3.871094l-20.261719 62.976563c-.683594 2.128906.390625 4.691406 2.386719 5.699219l16.945312 8.539062c1.992188 1.003906 2.035156 2.730469.09375 3.835938l-22.007812 12.507812c-1.945313 1.105469-2.597656 3.582031-1.457032 5.5l2.964844 4.976562h60.660156l-11.996093-59.335937zm0 0" fill="#0079f1"></path><path d="m259.730469 370.15625c1.140625-1.921875.488281-4.394531-1.457031-5.5l-22.007813-12.511719c-1.941406-1.101562-1.898437-2.828125.097656-3.832031l16.941407-8.539062c1.996093-1.007813 3.078124-3.574219 2.40625-5.707032l-19.878907-62.964844c-.675781-2.128906-3.050781-3.875-5.285156-3.875h-11.5625v13.429688l.746094.199219c2.34375.621093 3.746093 2.828125 3.746093 5.898437v26.59375c0 3.695313-2.019531 6.085938-5.144531 6.085938-.945312 0-1.953125-.21875-2.992187-.648438l-7.238282-2.988281-11.996093 59.335937h60.660156zm0 0" fill="#0079f1"></path><path d="m189.246094 308.015625-.464844.617187c-.800781 1.066407-2.003906 1.679688-3.300781 1.679688h-11.765625c-1.257813 0-2.441406-.589844-3.246094-1.609375l-.46875-.597656-19.558594 8.078125 11.917969 58.949218h34.769531l11.914063-58.945312zm0 0" fill="#fff"></path><path d="m188.433594 260.160156h-17.378906c-11.449219 0-22.207032-2.980468-31.554688-8.1875v28.972656c.511719-.167968 1.054688-.28125 1.65625-.28125.945312 0 1.953125.21875 2.992188.648438l25.90625 10.710938c.695312-1.324219 2.066406-2.234376 3.660156-2.234376h11.765625c1.632812 0 3.03125.953126 3.710937 2.324219l26.148438-10.800781c1.039062-.429688 2.046875-.648438 2.996094-.648438.597656 0 1.140624.113282 1.652343.28125v-28.972656c-9.347656 5.207032-20.105469 8.1875-31.554687 8.1875zm0 0" fill="#fff"></path><path d="m141.15625 280.664062c.945312 0 1.953125.21875 2.992188.648438l8.367187 3.460938v-27.316407c-4.570313-1.359375-8.925781-3.207031-13.015625-5.484375v28.972656c.511719-.167968 1.054688-.28125 1.65625-.28125zm0 0" fill="#e0e0e0"></path><path d="m236.339844 67.84375h-3.976563c-5.730469 0-11.09375 1.554688-15.703125 4.253906 2.394532 5.125 3.738282 10.832032 3.738282 16.847656v14.457032c4.238281 1.667968 8.105468 3.628906 11.535156 5.898437 14.199218 9.390625 21.398437 23.722657 21.398437 42.589844v10.117187l14.039063.136719v-63.394531c0-17.070312-13.890625-30.90625-31.03125-30.90625zm0 0" fill="#282828"></path><path d="m180.117188 47.828125h-46.71875c-22.800782 0-41.28125 18.40625-41.28125 41.113281v73.203125l14.039062-.136719v-10.117187c0-18.867187 7.199219-33.199219 21.398438-42.589844 12.4375-8.230469 30.484374-12.578125 52.191406-12.578125 16.191406 0 30.34375 2.421875 41.652344 7.066406v-14.847656c0-22.707031-18.484376-41.113281-41.28125-41.113281zm0 0" fill="#383838"></path><path d="m133.398438 47.828125c-22.800782 0-41.285157 18.40625-41.285157 41.113281v73.203125l14.042969-.136719v-10.117187c0-10.886719 2.410156-20.253906 7.167969-28.042969v-34.90625c0-22.707031 18.480469-41.113281 41.28125-41.113281zm0 0" fill="#282828"></path><path d="m180.015625 289.789062 22.472656-31.171874c-4.527343 1-9.226562 1.542968-14.054687 1.542968h-17.375c-4.828125 0-9.527344-.542968-14.054688-1.542968l22.472656 31.171874zm0 0" fill="#f8d5ab"></path><path d="m106.15625 195.464844v-34.457032h-12.273438c-7.667968 0-13.886718 6.199219-13.886718 13.84375v16.757813c0 7.644531 6.21875 13.839844 13.886718 13.839844h13.046876c-.507813-3.253907-.773438-6.589844-.773438-9.984375zm0 0" fill="#ffe2b8"></path><path d="m265.605469 161.007812h-12.273438v34.457032c0 3.394531-.265625 6.730468-.773437 9.984375h13.046875c7.671875 0 13.886719-6.195313 13.886719-13.839844v-16.757813c0-7.644531-6.214844-13.84375-13.886719-13.84375zm0 0" fill="#f8d5ab"></path><path d="m179.746094 95.722656c-41.195313 0-74.589844 15.261719-74.589844 56.167969v43.574219c0 36.28125 29.503906 65.695312 65.898438 65.695312h17.378906c36.394531 0 65.898437-29.414062 65.898437-65.695312v-43.574219c0-40.90625-33.394531-56.167969-74.585937-56.167969zm0 0" fill="#ffe2b8"></path><path d="m126.394531 195.464844v-37.480469c-.011719 0-.027343.003906-.039062.003906-1.925781 0-3.851563-.738281-5.316407-2.210937-2.921874-2.933594-2.910156-7.683594.023438-10.605469 1.933594-1.925781 4.070312-3.53125 6.335938-4.828125 5.242187-29.117188 30.785156-42.023438 62.964843-44.257812-3.46875-.238282-7.011719-.363282-10.621093-.363282-41.191407 0-74.585938 15.261719-74.585938 56.167969v43.574219c0 36.28125 29.503906 65.695312 65.898438 65.695312h17.378906c.648437 0 1.289062-.027344 1.929687-.046875-35.5-1.019531-63.96875-30.011719-63.96875-65.648437zm0 0" fill="#ffc987"></path><path d="m186.121094 200.25h-8.386719c-6.292969 0-11.410156-5.109375-11.410156-11.394531v-19.824219c0-4.140625 3.359375-7.5 7.5-7.5s7.5 3.359375 7.5 7.5v16.21875h4.796875c4.144531 0 7.5 3.355469 7.5 7.5s-3.355469 7.5-7.5 7.5zm0 0" fill="#72563c"></path><path d="m142.554688 187.386719c-4.144532 0-7.5-3.355469-7.5-7.5v-14.074219c0-4.140625 3.355468-7.5 7.5-7.5 4.140624 0 7.5 3.359375 7.5 7.5v14.074219c0 4.144531-3.359376 7.5-7.5 7.5zm0 0" fill="#72563c"></path><path d="m126.355469 157.988281c-1.925781 0-3.851563-.738281-5.316407-2.210937-2.921874-2.933594-2.910156-7.683594.023438-10.605469 11.851562-11.800781 31.132812-11.796875 42.980469 0 2.9375 2.925781 2.945312 7.671875.023437 10.605469-2.921875 2.9375-7.671875 2.945312-10.605468.023437-6.015626-5.988281-15.800782-5.988281-21.816407 0-1.460937 1.457031-3.375 2.1875-5.289062 2.1875zm0 0" fill="#383838"></path><path d="m216.933594 187.386719c-4.140625 0-7.5-3.355469-7.5-7.5v-14.074219c0-4.140625 3.359375-7.5 7.5-7.5s7.5 3.359375 7.5 7.5v14.074219c0 4.144531-3.359375 7.5-7.5 7.5zm0 0" fill="#72563c"></path><path d="m233.132812 157.988281c-1.914062 0-3.828124-.730469-5.289062-2.1875-6.015625-5.988281-15.804688-5.988281-21.820312 0-2.933594 2.921875-7.683594 2.914063-10.605469-.023437-2.921875-2.933594-2.910157-7.683594.023437-10.605469 11.851563-11.800781 31.132813-11.800781 42.984375 0 2.933594 2.921875 2.945313 7.671875.023438 10.605469-1.464844 1.472656-3.390625 2.210937-5.316407 2.210937zm0 0" fill="#383838"></path><path d="m214.957031 280.390625-26.335937 10.867187c.621094.726563 1.011718 1.65625 1.011718 2.683594v12.21875c0 1.027344-.390624 1.953125-1.011718 2.679688l26.335937 10.871094c5.234375 2.167968 9.519531-.695313 9.519531-6.363282v-26.59375c0-5.667968-4.285156-8.53125-9.519531-6.363281zm0 0" fill="#00cca5"></path><path d="m169.5625 293.9375c0-1.0625.417969-2.027344 1.078125-2.761719l-26.109375-10.785156c-5.234375-2.167969-9.519531.695313-9.519531 6.363281v26.59375c0 5.664063 4.285156 8.527344 9.519531 6.363282l26.109375-10.789063c-.660156-.734375-1.078125-1.695313-1.078125-2.761719zm0 0" fill="#00cca5"></path><path d="m146.960938 313.347656v-26.59375c0-1.964844.523437-3.578125 1.410156-4.773437l-3.839844-1.589844c-5.234375-2.167969-9.519531.695313-9.519531 6.363281v26.59375c0 5.664063 4.285156 8.527344 9.519531 6.363282l3.839844-1.589844c-.886719-1.195313-1.410156-2.8125-1.410156-4.773438zm0 0" fill="#02af8e"></path><path d="m190.632812 306.160156c0 2.832032-2.320312 5.148438-5.152343 5.148438h-11.765625c-2.832032 0-5.152344-2.316406-5.152344-5.148438v-12.222656c0-2.832031 2.320312-5.148438 5.152344-5.148438h11.765625c2.832031 0 5.152343 2.316407 5.152343 5.148438zm0 0" fill="#159e97"></path><path d="m179.75 340.601562c-1.980469 0-3.910156-.796874-5.308594-2.199218-1.402344-1.390625-2.203125-3.328125-2.203125-5.300782 0-1.96875.800781-3.910156 2.203125-5.296874 1.398438-1.402344 3.328125-2.203126 5.308594-2.203126 1.96875 0 3.898438.800782 5.300781 2.203126 1.390625 1.386718 2.1875 3.316406 2.1875 5.296874 0 1.972657-.796875 3.910157-2.1875 5.300782-1.402343 1.402344-3.332031 2.199218-5.300781 2.199218zm0 0" fill="#a7a9ac"></path><path d="m179.75 370.433594c-1.980469 0-3.910156-.800782-5.308594-2.199219-1.390625-1.390625-2.191406-3.320313-2.191406-5.300781 0-1.96875.800781-3.910156 2.191406-5.300782 1.386719-1.398437 3.328125-2.199218 5.308594-2.199218 1.96875 0 3.898438.800781 5.300781 2.199218 1.390625 1.398438 2.1875 3.332032 2.1875 5.300782s-.796875 3.910156-2.1875 5.300781c-1.402343 1.398437-3.332031 2.199219-5.300781 2.199219zm0 0" fill="#a7a9ac"></path><path d="m179.742188 235.660156c-10.851563 0-21.050782-4.226562-28.722657-11.902344-2.929687-2.933593-2.925781-7.679687.003907-10.609374 2.929687-2.925782 7.675781-2.925782 10.605468.003906 4.839844 4.84375 11.273438 7.507812 18.113282 7.507812 6.84375 0 13.277343-2.664062 18.117187-7.507812 2.929687-2.929688 7.675781-2.933594 10.609375-.003906 2.929688 2.929687 2.929688 7.679687 0 10.609374-7.671875 7.675782-17.875 11.902344-28.726562 11.902344zm0 0" fill="#72563c"></path><path d="m370.253906 96.15625c15.757813 0 30.484375 3.1875 42.929688 9.148438-.074219-23.664063-19.261719-42.824219-42.929688-42.824219-23.660156 0-42.855468 19.160156-42.925781 42.824219 12.441406-5.957032 27.171875-9.148438 42.925781-9.148438zm0 0" fill="#7f441c"></path><path d="m349.335938 98.132812c2.863281-16.722656 15.386718-30.144531 31.613281-34.308593-3.417969-.878907-7.003907-1.34375-10.695313-1.34375-23.660156 0-42.855468 19.160156-42.925781 42.824219 6.730469-3.226563 14.132813-5.636719 22.007813-7.171876zm0 0" fill="#602f0e"></path><path d="m421.097656 301.285156h-29.320312c-2.28125 0-4.136719-1.851562-4.136719-4.132812v-12.113282c-3.039063.476563-6.152344.726563-9.324219.726563h-16.117187c-3.175781 0-6.289063-.25-9.332031-.726563v12.113282c0 2.28125-1.851563 4.132812-4.132813 4.132812h-29.320313c-23.703124 0-42.984374 19.300782-42.984374 43.019532v30.828124h187.652343v-30.828124c0-23.71875-19.28125-43.019532-42.984375-43.019532zm0 0" fill="#ffe2b8"></path><path d="m400.195312 343.210938c-11.820312 0-22.464843 5.015624-29.941406 13.023437-7.476562-8.007813-18.121094-13.023437-29.9375-13.023437-19.511718 0-35.820312 13.648437-39.945312 31.921874h139.769531c-4.128906-18.273437-20.4375-31.921874-39.945313-31.921874zm0 0" fill="#ff99a3"></path><path d="m290.949219 194.917969h11.125v-15.117188c0-1.566406 1.273437-2.84375 2.839843-2.84375h54.589844c10.304688 0 20.125-5.46875 25.621094-14.269531.523438-.835938 1.425781-1.332031 2.410156-1.332031s1.886719.496093 2.40625 1.332031c5.503906 8.800781 15.320313 14.269531 25.625 14.269531h20.027344c1.566406 0 2.839844 1.273438 2.839844 2.84375v15.117188h11.125c1.171875 0 2.304687.175781 3.375.488281v-28.886719c0-45.183593-37.019532-71.363281-82.679688-71.363281s-82.679687 26.179688-82.679687 71.363281v28.886719c1.070312-.3125 2.203125-.488281 3.375-.488281zm0 0" fill="#b57a4e"></path><path d="m290.949219 194.917969h11.125v-15.117188c0-1.566406 1.273437-2.84375 2.839843-2.84375h4.128907v-10.4375c0-41.585937 31.355469-67.050781 71.945312-70.851562-3.515625-.328125-7.09375-.515625-10.734375-.515625-45.660156 0-82.679687 26.179687-82.679687 71.363281v28.890625c1.070312-.3125 2.203125-.488281 3.375-.488281zm0 0" fill="#9b5729"></path><path d="m302.074219 225.832031v-31.914062h-11.125c-7.085938 0-12.824219 5.683593-12.824219 12.691406v15.367187c0 7.011719 5.738281 12.695313 12.824219 12.695313h11.78125c-.429688-2.886719-.65625-5.835937-.65625-8.839844zm0 0" fill="#ffe2b8"></path><path d="m449.558594 193.917969h-11.121094v31.914062c0 3.003907-.230469 5.953125-.660156 8.839844h11.78125c7.085937 0 12.828125-5.683594 12.828125-12.695313v-15.367187c0-7.007813-5.742188-12.691406-12.828125-12.691406zm0 0" fill="#f8d5ab"></path><path d="m362.195312 286.765625c-33.699218 0-61.121093-27.335937-61.121093-60.933594v-46.03125c0-2.125 1.71875-3.84375 3.839843-3.84375h54.589844c9.960938 0 19.457032-5.285156 24.773438-13.796875.703125-1.125 1.933594-1.804687 3.257812-1.804687 1.324219 0 2.554688.679687 3.253906 1.804687 5.320313 8.511719 14.816407 13.796875 24.777344 13.796875h20.027344c2.121094 0 3.839844 1.71875 3.839844 3.84375v46.03125c0 33.597657-27.417969 60.933594-61.117188 60.933594zm0 0" fill="#ffe2b8"></path><path d="m322.644531 225.832031v-46.03125c0-2.125 1.71875-3.84375 3.839844-3.84375h-21.570313c-2.121093 0-3.839843 1.71875-3.839843 3.84375v46.03125c0 33.597657 27.421875 60.933594 61.125 60.933594h16.117187c.914063 0 1.820313-.027344 2.726563-.070313-32.441407-1.425781-58.398438-28.175781-58.398438-60.863281zm0 0" fill="#ffc987"></path><g fill="#72563c"><path d="m335.035156 218.632812c-4.140625 0-7.5-3.359374-7.5-7.5v-13.332031c0-4.140625 3.359375-7.5 7.5-7.5 4.144532 0 7.5 3.359375 7.5 7.5v13.332031c0 4.140626-3.355468 7.5-7.5 7.5zm0 0"></path><path d="m405.46875 218.632812c-4.140625 0-7.5-3.359374-7.5-7.5v-13.332031c0-4.140625 3.359375-7.5 7.5-7.5 4.144531 0 7.5 3.359375 7.5 7.5v13.332031c0 4.140626-3.355469 7.5-7.5 7.5zm0 0"></path><path d="m375.824219 226.804688h-7.597657c-6.089843 0-11.042968-4.945313-11.042968-11.023438v-12.574219c0-4.140625 3.359375-7.5 7.5-7.5 4.144531 0 7.5 3.359375 7.5 7.5v8.597657h3.640625c4.144531 0 7.5 3.355468 7.5 7.5 0 4.140624-3.355469 7.5-7.5 7.5zm0 0"></path></g><path d="m370.257812 267.546875c-13.105468 0-23.773437-10.609375-23.773437-23.640625 0-2.476562 2.023437-4.488281 4.515625-4.488281h38.511719c2.488281 0 4.515625 2.011719 4.515625 4.488281-.003906 13.03125-10.664063 23.640625-23.769532 23.640625zm0 0" fill="#ffa05f"></path><path d="m361.460938 243.90625c0-2.476562 2.023437-4.488281 4.515624-4.488281h-14.976562c-2.492188 0-4.515625 2.011719-4.515625 4.488281 0 13.03125 10.664063 23.640625 23.773437 23.640625 2.613282 0 5.128907-.429687 7.484376-1.210937-9.445313-3.125-16.28125-11.996094-16.28125-22.429688zm0 0" fill="#ff812c"></path><path d="m403.800781 296.703125c-1.390625-1.398437-3.332031-2.199219-5.300781-2.199219s-3.910156.800782-5.300781 2.199219c-1.398438 1.398437-2.199219 3.328125-2.199219 5.300781 0 1.578125.515625 3.121094 1.433594 4.394532-2.199219-.734376-4.707032-.449219-6.734375 1.003906-2.328125 1.660156-3.417969 4.402344-3.078125 7.050781-1.699219-2.058594-4.441406-3.148437-7.238282-2.601563-2.8125.550782-4.941406 2.601563-5.730468 5.160157-.691406-2.589844-2.742188-4.71875-5.519532-5.378907-2.78125-.648437-5.5625.332032-7.34375 2.320313.441407-2.632813-.539062-5.410156-2.796874-7.160156-2.03125-1.570313-4.605469-1.9375-6.878907-1.21875.613281-1.105469.953125-2.359375.953125-3.636719 0-1.972656-.800781-3.902344-2.203125-5.300781-1.390625-1.398438-3.328125-2.199219-5.296875-2.199219-1.972656 0-3.910156.800781-5.300781 2.199219-1.402344 1.398437-2.199219 3.328125-2.199219 5.300781 0 1.976562.796875 3.910156 2.199219 5.308594 1.390625 1.390625 3.328125 2.191406 5.300781 2.191406.777344 0 1.550782-.128906 2.289063-.367188-1.78125 3.1875-1.019531 7.277344 1.945312 9.570313 3.140625 2.441406 7.609375 1.980469 10.199219-.949219-.648438 3.871094 1.808594 7.628906 5.679688 8.539063 3.871093.921875 7.742187-1.347657 8.890624-5.089844.878907 3.3125 3.890626 5.570313 7.238282 5.570313.480468 0 .960937-.039063 1.453125-.140626 3.898437-.757812 6.5-4.429687 6-8.316406 2.476562 3.039063 6.929687 3.65625 10.160156 1.347656 3.367187-2.410156 4.148437-7.089843 1.738281-10.460937-.007812-.011719-.019531-.019531-.027344-.035156.761719.257812 1.5625.398437 2.367188.398437 1.96875 0 3.910156-.800781 5.300781-2.191406 1.398438-1.398438 2.199219-3.328125 2.199219-5.308594 0-1.972656-.800781-3.902344-2.199219-5.300781zm0 0" fill="#fff"></path><path d="m351.089844 344.648438c-3.433594-.933594-7.046875-1.433594-10.773438-1.433594-19.511718 0-35.820312 13.644531-39.945312 31.917968h21.519531c3.339844-14.785156 14.660156-26.539062 29.199219-30.484374zm0 0" fill="#ff788c"></path><path d="m120.351562 446.648438h-83.78125c-4.140624 0-7.5-3.359376-7.5-7.5 0-4.140626 3.359376-7.5 7.5-7.5h83.78125c4.140626 0 7.5 3.359374 7.5 7.5 0 4.140624-3.359374 7.5-7.5 7.5zm0 0" fill="#76d8ff"></path><path d="m162.933594 446.648438h-17.675782c-4.144531 0-7.5-3.359376-7.5-7.5 0-4.140626 3.355469-7.5 7.5-7.5h17.675782c4.144531 0 7.5 3.359374 7.5 7.5 0 4.140624-3.355469 7.5-7.5 7.5zm0 0" fill="#76d8ff"></path><path d="m453.738281 462.839844c-.824219 0-1.597656-.3125-2.179687-.886719l-25.234375-24.785156c-2.957031-2.902344-4.582031-6.757813-4.582031-10.859375 0-4.101563 1.625-7.960938 4.582031-10.859375 2.953125-2.902344 6.878906-4.5 11.058593-4.5 4.175782 0 8.101563 1.597656 11.0625 4.5l5.292969 5.199219 5.296875-5.199219c2.957032-2.902344 6.886719-4.5 11.0625-4.5 4.175782 0 8.101563 1.597656 11.058594 4.5 2.953125 2.898437 4.578125 6.757812 4.578125 10.859375 0 4.101562-1.625 7.960937-4.578125 10.859375l-25.238281 24.785156c-.582031.574219-1.355469.886719-2.179688.886719zm0 0" fill="#e62937"></path><path d="m464.363281 453.386719-25.234375-24.78125c-2.957031-2.90625-4.582031-6.761719-4.582031-10.863281 0-2.375.558594-4.660157 1.59375-6.730469-3.707031.285156-7.15625 1.828125-9.816406 4.4375-2.957031 2.898437-4.582031 6.757812-4.582031 10.859375 0 4.101562 1.625 7.957031 4.582031 10.859375l25.238281 24.785156c.582031.574219 1.351562.886719 2.179688.886719.820312 0 1.59375-.3125 2.175781-.886719l8.597656-8.441406c-.046875-.042969-.105469-.078125-.152344-.125zm0 0" fill="#b7092b"></path><path d="m480.585938 390.132812h-449.171876c-6.976562 0-12.652343-5.675781-12.652343-12.652343v-346.050781c0-6.976563 5.675781-12.648438 12.652343-12.648438h449.171876c6.976562 0 12.648437 5.675781 12.648437 12.648438v346.050781c0 6.976562-5.671875 12.652343-12.648437 12.652343zm-446.824219-15h444.472656v-341.355468h-444.472656zm0 0" fill="#abebff"></path><path d="m333.066406 301.890625c0-.203125.011719-.402344.03125-.605469h-13.683594c-23.703124 0-42.988281 19.300782-42.988281 43.019532v30.828124h20.78125v-30.828124c0-21.289063 15.539063-39.007813 35.859375-42.414063zm0 0" fill="#ffc987"></path></svg>