<svg height="477.60001pt" viewBox="0 0 477.60001 477.60001" width="477.60001pt" xmlns="http://www.w3.org/2000/svg"><path d="m477.601562 238.800781c0 131.886719-106.914062 238.800781-238.800781 238.800781s-238.800781-106.914062-238.800781-238.800781 106.914062-238.800781 238.800781-238.800781 238.800781 106.914062 238.800781 238.800781zm0 0" fill="#382b73"/><path d="m445.398438 238.800781c0 114.101563-92.496094 206.597657-206.597657 206.597657-114.101562 0-206.597656-92.496094-206.597656-206.597657 0-114.101562 92.496094-206.597656 206.597656-206.597656 114.101563 0 206.597657 92.496094 206.597657 206.597656zm0 0" fill="#473080"/><path d="m380.199219 230.765625h-20.027344v-11.25c0-4.183594-3.390625-7.574219-7.570313-7.574219h-18.191406c-.390625 0-.777344.03125-1.152344.089844-.125.015625-.25.039062-.375.066406-.121093.023438-.246093.050782-.363281.082032-.125.03125-.242187.066406-.363281.101562-.117188.035156-.234375.078125-.351562.121094-.058594.023437-.113282.042968-.171876.066406-.113281.046875-.230468.09375-.339843.144531-.226563.101563-.441407.210938-.65625.332031-.15625.09375-.3125.1875-.460938.289063-.203125.136719-.398437.285156-.585937.4375-.46875.386719-.886719.824219-1.25 1.3125-.0625.082031-.125.164063-.183594.25-.125.191406-.25.382813-.359375.582031-.03125.058594-.066406.117188-.097656.171875-.554688 1.054688-.867188 2.253907-.867188 3.527344v-32.304687c0-4.75-3.851562-8.601563-8.601562-8.601563h-25.804688c-4.75 0-8.605469 3.851563-8.605469 8.601563v5.503906.027344 12.746093c0-.007812 0-.015625 0-.023437v25.300781h-90.054687v-25.300781.023437-12.746093c0-.007813 0-.019532 0-.027344v-5.503906c0-4.75-3.851563-8.601563-8.601563-8.601563h-25.800781c-4.75 0-8.601562 3.851563-8.601562 8.601563v32.304687c0-1.273437-.3125-2.472656-.871094-3.527344-.027344-.054687-.0625-.113281-.09375-.171875-.109375-.199218-.230469-.394531-.359375-.582031-.058594-.085937-.121094-.167969-.179688-.25-.367187-.488281-.785156-.925781-1.253906-1.3125-.1875-.152344-.382812-.300781-.582031-.4375-.152344-.101563-.304687-.195313-.464844-.289063-.210937-.121093-.429687-.234374-.652343-.332031-.109376-.050781-.226563-.097656-.339844-.144531-.058594-.023438-.113282-.042969-.171875-.066406-.113281-.042969-.234375-.082032-.351563-.121094-.117187-.035156-.238281-.070312-.359375-.101562-.121093-.03125-.242187-.058594-.367187-.082032-.121094-.027344-.246094-.050781-.371094-.066406-.375-.058594-.761719-.089844-1.152344-.089844h-18.191406c-4.183594 0-7.570312 3.390625-7.570312 7.574219v11.25h-20.027344c-4.75 0-8.601563 3.851563-8.601563 8.601563v26.867187c0 .683594.078125 1.347656.230469 1.984375.023438.109375.054688.222656.082031.328125.023438.082031.046875.167969.074219.246094.035156.117187.074219.234375.117188.347656.097656.285156.214843.558594.34375.824219.03125.0625.0625.128906.089843.1875.214844.414062.460938.8125.738281 1.1875.019532.027344.042969.054687.0625.082031.066407.085937.132813.171875.199219.257813.015625.015624.03125.035156.046875.054687.074219.089844.152344.179687.234375.269531.074219.082032.152344.164063.226563.242188.046875.050781.097656.101562.144531.148437.074219.070313.148437.140625.226563.210938.851562.773437 1.859374 1.378906 2.972656 1.765625.039062.011718.078125.023437.117187.039062.164063.054688.332031.105469.5.148438.027344.007812.058594.011718.085938.019531.675781.171875 1.382812.265625 2.109375.265625h20.027344v11.25c0 2.015625.789062 3.851562 2.078124 5.207031 1.195313 1.464844 2.808594 2.363281 4.585938 2.363281h20c1.777344 0 3.394531-.898437 4.589844-2.363281.203125-.210937.394531-.441406.574218-.679687.058594-.082032.121094-.164063.179688-.25.125-.1875.25-.382813.359375-.582032.03125-.058593.066406-.113281.09375-.171874.554687-1.054688.871094-2.253907.871094-3.523438v32.300781c0 .667969.078125 1.320313.21875 1.945313.113281.484375.265625.953125.457031 1.402344.027344.066406.054688.128906.085938.195312.199218.441406.4375.867188.707031 1.269531.039062.058594.078125.113281.121093.167969.160157.226562.328126.441406.507813.652344.042969.050781.089844.101562.136719.152344.554687.609374 1.199218 1.140624 1.90625 1.574218.117187.070313.238281.140625.359375.207032.121093.066406.246093.128906.371093.1875.0625.03125.125.0625.1875.089843.507813.230469 1.042969.410157 1.601563.539063.136719.03125.277344.0625.417969.085937.140625.027344.285156.046875.429687.066407.355469.046874.722657.070312 1.09375.070312h25.808594c.667969 0 1.316406-.074219 1.941406-.21875.136719-.035156.273438-.070312.410157-.105469.070312-.023437.136718-.042969.203124-.0625.136719-.042969.269532-.085937.402344-.136719.722656-.265624 1.402344-.625 2.019532-1.066406.507812-.359375.972656-.773437 1.390624-1.230468.277344-.304688.53125-.632813.765626-.972657.269531-.402343.507812-.824219.710937-1.269531.027344-.066406.054687-.128906.082031-.195312.191406-.449219.34375-.917969.457032-1.402344.144531-.625.21875-1.277344.21875-1.945313v-43.550781h90.054687v43.550781c0 .667969.078125 1.320313.222656 1.945313.109375.484375.265625.953125.457031 1.402344.027344.066406.054688.128906.082032.195312.203125.441406.4375.867188.710937 1.269531.230469.34375.488281.667969.765625.972657.414063.457031.882813.871093 1.386719 1.230468.617187.441406 1.300781.800782 2.023437 1.066406.132813.050782.261719.09375.398438.136719.070312.019531.136719.042969.203125.0625.136719.035157.277344.070313.414063.105469.625.144531 1.273437.21875 1.941406.21875h25.804687c.371094 0 .738281-.023438 1.097657-.070312.144531-.019532.285156-.039063.429687-.066407.136719-.023437.28125-.054687.417969-.085937.554687-.128906 1.089844-.308594 1.597656-.539063.066406-.027343.125-.058593.191406-.089843.125-.058594.246094-.121094.371094-.1875.121094-.066407.242188-.136719.359375-.207032.707031-.433594 1.351563-.964844 1.90625-1.574218.042969-.050782.089844-.101563.136719-.152344.179687-.210938.351562-.425782.511718-.652344.039063-.054688.078126-.113281.117188-.167969.269531-.402343.507812-.824219.710938-1.269531.027343-.066406.054687-.128906.082031-.195312.191406-.449219.34375-.917969.457031-1.402344.144531-.625.21875-1.277344.21875-1.945313v-32.300781c0 1.269531.3125 2.46875.867188 3.523438.03125.058593.066406.113281.097656.171874.113281.199219.230468.394532.363281.582032.054687.085937.117187.167968.179687.25.175782.238281.367188.464844.574219.679687 1.195313 1.464844 2.808594 2.363281 4.585938 2.363281h20c1.777343 0 3.394531-.898437 4.589843-2.363281 1.289063-1.355469 2.078126-3.191406 2.078126-5.207031v-11.25h20.027343c.726563 0 1.433594-.089844 2.105469-.265625.03125-.003906.058594-.011719.085938-.019531.167968-.042969.335937-.09375.5-.148438.039062-.011718.078124-.027344.117187-.039062.796875-.277344 1.539063-.667969 2.210937-1.152344.085938-.058594.167969-.121094.25-.183594.023438-.019531.046876-.039062.070313-.054687.085937-.070313.175781-.144531.261719-.214844.011718-.011719.027344-.027344.042968-.039063.144532-.128906.289063-.261718.429688-.402343.003906-.003907.003906-.003907.003906-.003907.308594-.304687.589844-.632812.84375-.980468.058594-.078125.117188-.160156.171875-.242188.074219-.109375.148438-.21875.21875-.332031.121094-.199219.238281-.402344.34375-.613281.03125-.0625.0625-.125.09375-.1875.128907-.265625.242188-.539063.34375-.824219.042969-.113281.078125-.230469.117188-.347656.027343-.082031.050781-.164063.070312-.246094.03125-.105469.058594-.21875.085938-.328125.148437-.632812.230469-1.296875.230469-1.984375v-26.867187c-.003907-4.753907-3.855469-8.601563-8.605469-8.601563zm0 0" fill="#382b73"/><path d="m380.199219 260.835938h-282.796875c-4.75 0-8.601563-3.851563-8.601563-8.601563v-26.871094c0-4.75 3.851563-8.601562 8.601563-8.601562h282.796875c4.75 0 8.601562 3.851562 8.601562 8.601562v26.871094c0 4.75-3.851562 8.601563-8.601562 8.601563zm0 0" fill="#fff"/><path d="m380.199219 248.472656h-282.796875c-4.75 0-8.601563-3.851562-8.601563-8.601562v12.363281c0 4.753906 3.851563 8.605469 8.601563 8.605469h282.796875c4.75 0 8.601562-3.855469 8.601562-8.605469v-12.363281c0 4.75-3.851562 8.601562-8.601562 8.601562zm0 0" fill="#d1d3d4"/><path d="m334.410156 279.660156h18.191406c4.179688 0 7.570313-3.390625 7.570313-7.570312v-66.574219c0-4.183594-3.390625-7.574219-7.570313-7.574219h-18.191406c-4.179687 0-7.570312 3.390625-7.570312 7.574219v66.574219c0 4.179687 3.386718 7.570312 7.570312 7.570312zm0 0" fill="#009add"/><path d="m339.953125 279.660156h7.101563c3.101562 0 5.617187-2.515625 5.617187-5.617187v-70.488281c0-3.101563-2.515625-5.613282-5.617187-5.613282h-7.101563c-3.101563 0-5.613281 2.511719-5.613281 5.613282v70.488281c0 3.101562 2.515625 5.617187 5.613281 5.617187zm0 0" fill="#1caee4"/><path d="m353.507812 220.820312h-20c-3.683593 0-6.667968 2.074219-6.667968 4.636719v-12.75c0-2.558593 2.984375-4.636719 6.667968-4.636719h20c3.679688 0 6.664063 2.078126 6.664063 4.636719v12.75c0-2.5625-2.984375-4.636719-6.664063-4.636719zm0 0" fill="#27c1e6"/><path d="m333.507812 257.625h20c3.679688 0 6.664063-3.851562 6.664063-8.601562v22.035156c0 4.75-2.984375 8.601562-6.664063 8.601562h-20c-3.683593 0-6.667968-3.851562-6.667968-8.601562v-22.035156c0 4.75 2.984375 8.601562 6.667968 8.601562zm0 0" fill="#136da0"/><path d="m336.203125 197.941406h-1.792969c-4.179687 0-7.570312 3.386719-7.570312 7.570313v66.574219c0 4.183593 3.390625 7.570312 7.570312 7.570312h1.792969zm0 0" fill="#136da0"/><path d="m292.429688 312.992188h25.804687c4.75 0 8.605469-3.851563 8.605469-8.601563v-131.183594c0-4.75-3.855469-8.601562-8.605469-8.601562h-25.804687c-4.75 0-8.601563 3.851562-8.601563 8.601562v131.183594c0 4.75 3.851563 8.601563 8.601563 8.601563zm0 0" fill="#009add"/><path d="m300.855469 312.992188h8.957031c3.316406 0 6.003906-2.6875 6.003906-6.003907v-136.375c0-3.320312-2.6875-6.007812-6.003906-6.007812h-8.957031c-3.316407 0-6.003907 2.691406-6.003907 6.007812v136.371094c0 3.320313 2.6875 6.007813 6.003907 6.007813zm0 0" fill="#1caee4"/><path d="m292.429688 289.339844h25.804687c4.75 0 8.605469-3.851563 8.605469-8.605469v23.65625c0 4.753906-3.855469 8.601563-8.605469 8.601563h-25.804687c-4.75 0-8.601563-3.851563-8.601563-8.601563v-23.65625c0 4.75 3.851563 8.605469 8.601563 8.605469zm0 0" fill="#136da0"/><path d="m318.234375 186.851562h-25.804687c-4.75 0-8.601563 2.078126-8.601563 4.636719v-12.75c0-2.558593 3.851563-4.632812 8.601563-4.632812h25.804687c4.753906 0 8.605469 2.074219 8.605469 4.632812v12.75c0-2.558593-3.855469-4.636719-8.605469-4.636719zm0 0" fill="#27c1e6"/><path d="m143.1875 279.660156h-18.1875c-4.183594 0-7.570312-3.390625-7.570312-7.570312v-66.574219c0-4.183594 3.386718-7.574219 7.570312-7.574219h18.1875c4.183594 0 7.574219 3.390625 7.574219 7.574219v66.574219c0 4.179687-3.390625 7.570312-7.574219 7.570312zm0 0" fill="#009add"/><path d="m137.644531 279.660156h-7.097656c-3.101563 0-5.617187-2.515625-5.617187-5.617187v-70.488281c0-3.101563 2.515624-5.613282 5.617187-5.613282h7.097656c3.101563 0 5.617188 2.511719 5.617188 5.613282v70.488281c0 3.101562-2.515625 5.617187-5.617188 5.617187zm0 0" fill="#1caee4"/><path d="m124.09375 220.820312h20c3.683594 0 6.667969 2.074219 6.667969 4.636719v-12.75c0-2.558593-2.984375-4.636719-6.667969-4.636719h-20c-3.683594 0-6.664062 2.078126-6.664062 4.636719v12.75c0-2.5625 2.980468-4.636719 6.664062-4.636719zm0 0" fill="#27c1e6"/><path d="m144.09375 257.625h-20c-3.683594 0-6.664062-3.851562-6.664062-8.601562v22.035156c0 4.75 2.980468 8.601562 6.664062 8.601562h20c3.683594 0 6.667969-3.851562 6.667969-8.601562v-22.035156c0 4.75-2.984375 8.601562-6.667969 8.601562zm0 0" fill="#136da0"/><path d="m141.394531 197.941406h1.792969c4.183594 0 7.574219 3.386719 7.574219 7.570313v66.574219c0 4.183593-3.390625 7.570312-7.574219 7.570312h-1.792969zm0 0" fill="#136da0"/><path d="m185.171875 312.992188h-25.808594c-4.75 0-8.601562-3.851563-8.601562-8.601563v-131.183594c0-4.75 3.851562-8.601562 8.601562-8.601562h25.808594c4.75 0 8.601563 3.851562 8.601563 8.601562v131.183594c0 4.75-3.851563 8.601563-8.601563 8.601563zm0 0" fill="#009add"/><path d="m176.742188 312.992188h-8.953126c-3.320312 0-6.007812-2.6875-6.007812-6.003907v-136.375c0-3.320312 2.691406-6.007812 6.007812-6.007812h8.953126c3.320312 0 6.007812 2.691406 6.007812 6.007812v136.371094c0 3.320313-2.6875 6.007813-6.007812 6.007813zm0 0" fill="#1caee4"/><path d="m185.171875 289.339844h-25.808594c-4.75 0-8.601562-3.851563-8.601562-8.605469v23.65625c0 4.753906 3.851562 8.601563 8.601562 8.601563h25.808594c4.75 0 8.601563-3.851563 8.601563-8.601563v-23.65625c0 4.75-3.851563 8.605469-8.601563 8.605469zm0 0" fill="#136da0"/><path d="m159.363281 186.851562h25.808594c4.75 0 8.601563 2.078126 8.601563 4.636719v-12.75c0-2.558593-3.851563-4.632812-8.601563-4.632812h-25.808594c-4.75 0-8.601562 2.074219-8.601562 4.632812v12.75c0-2.558593 3.851562-4.636719 8.601562-4.636719zm0 0" fill="#27c1e6"/><g fill="#bcbec0"><path d="m193.773438 216.765625h11.425781v44.074219h-11.425781zm0 0"/><path d="m272.402344 216.765625h11.425781v44.074219h-11.425781zm0 0"/></g></svg>