<svg height="477.60001pt" viewBox="0 0 477.60001 477.60001" width="477.60001pt" xmlns="http://www.w3.org/2000/svg"><path d="m477.601562 238.800781c0 131.886719-106.914062 238.800781-238.800781 238.800781s-238.800781-106.914062-238.800781-238.800781 106.914062-238.800781 238.800781-238.800781 238.800781 106.914062 238.800781 238.800781zm0 0" fill="#382b73"/><path d="m445.398438 238.800781c0 114.101563-92.496094 206.597657-206.597657 206.597657-114.101562 0-206.597656-92.496094-206.597656-206.597657 0-114.101562 92.496094-206.597656 206.597656-206.597656 114.101563 0 206.597657 92.496094 206.597657 206.597656zm0 0" fill="#473080"/><path d="m340.441406 216.480469c0-.007813 0-.011719 0-.019531 0-.117188-.003906-.238282-.003906-.355469-.003906-.050781-.003906-.097657-.003906-.144531-.003906-.078126-.003906-.152344-.007813-.230469-.003906-.0625-.007812-.125-.011719-.191407 0-.0625-.003906-.125-.007812-.183593 0-.046875-.003906-.089844-.007812-.136719-.003907-.082031-.007813-.164062-.011719-.246094-.003907-.03125-.007813-.066406-.007813-.097656-.007812-.089844-.011718-.179688-.019531-.265625-.003906-.042969-.003906-.082031-.007813-.121094-.007812-.085937-.015624-.175781-.023437-.265625-.003906-.015625-.003906-.03125-.003906-.046875-.011719-.105469-.019531-.210937-.03125-.320312 0-.019531-.003907-.042969-.007813-.066407-.007812-.101562-.019531-.203124-.03125-.308593-.003906-.011719-.007812-.027344-.007812-.039063-.011719-.113281-.023438-.222656-.039063-.332031 0-.007813 0-.015625-.003906-.023437-1.847656-14.214844-14-25.1875-28.714844-25.1875-1.136719 0-2.257812.066406-3.363281.195312l-.210938-1.757812c-4.0625-34.058594-28.390624-62.246094-61.484374-71.25-7.019532-1.910157-14.21875-2.894532-21.425782-2.953126-.453125-.003906-.902344-.003906-1.355468 0-7.207032.058594-14.410157 1.042969-21.425782 2.953126-33.097656 9.003906-57.421875 37.191406-61.488281 71.25l-2.992187 25.042968c-2.519532 21.105469 3.246093 41.679688 15.105468 58.015625.011719.011719.019532.027344.027344.039063.640625.878906 1.300781 1.75 1.972656 2.605468.011719.011719.019532.019532.027344.03125.679688.863282 1.375 1.707032 2.089844 2.539063.003906.003906.007812.011719.011718.015625 3.027344 3.523438 6.359376 6.808594 9.976563 9.800781.683594.566407 1.378906 1.121094 2.085937 1.667969.011719.011719.027344.023438.042969.035156.160157.125.324219.25.488281.375.027344.019532.054688.039063.082032.058594.914062.699219 1.851562 1.375 2.800781 2.035156.007813.003906.015625.011719.027344.015625l.035156.023438c.1875.132812.375.257812.5625.386719.015625.011718.03125.023437.046875.03125.015625.011718.035156.027343.054688.039062.414062.28125.828124.554688 1.246093.832031l.078125.046875c.007813.007813.019532.015625.027344.019532.179688.117187.359375.234374.542969.351562l.074219.046875c.015624.007813.035156.019531.050781.03125.171875.109375.34375.21875.519531.328125l.011719.007812c.023437.015626.046875.027344.070312.042969.027344.015625.058594.039063.089844.054688.179687.113281.367187.226562.550781.339843.003906.003907.011719.007813.019532.011719.003906.003907.011718.003907.015624.007813.253907.15625.507813.308594.765626.460937.039062.023438.078124.046875.117187.070313.226563.132812.449219.265625.671875.394531.058594.035156.117188.066406.175781.101563.222657.125.4375.25.660157.375.050781.027343.101562.058593.152343.085937.253907.144531.507813.28125.761719.421875.015625.007812.027344.015625.042969.023438.003906.003906.007812.003906.015625.007812.195312.109375.394531.21875.597656.324219.023438.011719.046875.027343.070312.039062.007813.003907.015626.007813.023438.011719.144531.078125.285156.15625.429688.230469.074218.039062.148437.078125.222656.117187.039062.019532.078125.042969.113281.0625.136719.070313.269531.136719.402344.207032.058593.027343.113281.058593.167969.085937.070312.039063.140624.070313.207031.109375.128906.0625.253906.125.382812.191406.03125.015625.070313.03125.101563.050782.078125.039062.15625.074218.230468.113281.121094.0625.246094.121093.371094.183593.023438.007813.042969.019532.066406.03125.097657.046876.195313.097657.292969.140626.015625.007812.03125.015624.046875.023437.125.058594.246094.121094.371094.179687.089844.039063.175781.082032.265625.125.03125.011719.0625.027344.09375.042969.132813.0625.261719.125.394531.183594.074219.035156.148438.070313.21875.105469.054688.023437.109375.050781.164063.074218.125.054688.25.113282.375.167969.054687.027344.109375.054688.167969.078125.089843.039063.179687.078125.269531.117188.105469.050781.21875.097656.324219.144531.039062.015625.078124.035156.113281.050781.097656.042969.191406.085938.289062.125.117188.054688.238281.105469.359375.15625.019532.011719.042969.019532.066406.027344.125.054688.257813.109375.386719.164062.101563.042969.207031.085938.3125.132813.003907 0 .003907.003906.007813.003906.242187.101563.488281.199219.730468.300781l1.890626.765626c.164062.066406.324218.128906.484374.199218.046876.019532.097657.042969.144532.0625.109375.046875.21875.09375.324218.144532.0625.027343.125.054687.1875.082031.09375.042969.1875.089843.28125.132812.066407.03125.132813.0625.195313.09375.089844.042969.183594.085938.273437.132813.0625.03125.125.0625.191407.09375.097656.050781.199219.101562.296875.152344.050781.027343.105468.054687.15625.082031.125.0625.246094.128906.367187.195312.027344.015625.058594.03125.089844.046875.144531.082032.289063.164063.4375.246094.050781.03125.101563.0625.15625.09375.09375.054688.1875.109375.28125.164062.058594.035157.117187.074219.175781.109376.089844.054687.179688.109374.269532.164062.050781.035156.109374.070312.164062.105469.085938.054687.175781.113281.261719.167969.058593.039062.113281.074218.171875.113281.089844.058593.175781.117187.265625.179687.050781.03125.101562.070313.152343.101563.109376.074219.21875.152343.328126.230469.027343.019531.054687.039062.085937.0625.132813.09375.269531.191406.402344.289062.046875.035156.09375.070312.136719.105469.089843.066406.175781.132812.261718.199219.054688.039062.109375.082031.160156.125.082032.0625.164063.128906.246094.195312.050782.039062.097656.078125.148438.121094.082031.066406.164062.132812.242187.195312.054688.042969.101563.085938.15625.128906.082031.070313.160157.140626.242188.207032.042969.042968.089843.078125.132812.121094.097657.082031.1875.164062.28125.246093.03125.03125.066407.058594.097657.089844.121093.109375.242187.222656.363281.332031.039062.039063.078125.078125.121093.113282.078126.078124.15625.152343.238282.230468.046875.046875.097656.09375.144531.144532.070313.070312.144531.140624.214844.210937.046875.050781.09375.101563.144531.148437.066406.070313.132812.140626.203125.214844.046875.046875.09375.097656.140625.148438.074219.074218.140625.152344.210938.226562.042968.046875.085937.09375.128906.140625.078125.085938.152344.167969.226562.253907.035156.039062.070313.078124.105469.117187.105469.125.210937.246094.316406.371094.035157.042969.070313.085937.109375.128906.070313.085937.140625.167969.207032.253906.042968.050781.085937.105469.128906.15625.0625.078125.125.15625.1875.238281.042968.050782.082031.105469.121094.15625.0625.078126.121093.160157.183593.238282.042969.058594.085938.113281.128907.171875.054687.070312.109374.144531.160156.214843.046875.0625.089844.125.136718.191407.054688.074219.109376.152343.164063.230469.039063.058593.078125.113281.117187.171874.089844.132813.183594.265626.273438.394532.027344.046875.054688.089844.085938.136718.058593.089844.121093.179688.179687.273438.042969.066406.082031.132812.121094.195312.050781.078126.09375.148438.144531.226563.039062.0625.078125.128906.117188.195313.046874.078124.09375.15625.140624.234374.039063.0625.078126.128907.113282.195313.046875.078125.09375.15625.136718.238281.039063.0625.074219.128906.109376.195313.046874.082031.09375.164062.136718.246093.035156.0625.070313.125.101563.1875.050781.089844.097656.183594.148437.277344.050782.097656.101563.199219.152344.296875.046875.097657.097656.195313.144531.292969.027344.058594.054688.113281.082031.171875.042969.089844.085938.179687.128907.269531.03125.070313.0625.140625.09375.207032.039062.082031.074219.164062.113281.246093.03125.070313.0625.144531.09375.214844.035156.078125.070312.15625.101562.234375.03125.074219.066407.148438.09375.222656.035157.082032.066407.160156.097657.242188.03125.074218.0625.148437.089843.222656.035157.085938.066407.171875.101563.261719.042969.113281.085937.226562.128906.339843.035157.097657.074219.199219.109375.300782.027344.078125.054688.15625.078125.234375.03125.078125.054688.152343.082031.230469.027344.078124.050782.160156.078126.238281.027343.082031.050781.164062.078124.246093.023438.074219.046876.152344.070313.230469.023437.082031.050781.160157.074219.242188.023437.082031.046875.164062.070312.242187.023438.082032.042969.160156.066406.242188.023438.078125.042969.15625.0625.234375.027344.09375.050782.1875.074219.28125.027344.113281.054688.226562.082031.339843.027344.105469.054688.214844.078126.320313.015624.082031.035156.160156.054687.242187.015625.082032.035156.164063.050781.25.019532.082032.035156.164063.050782.246094.015624.082032.035156.164063.050781.246094s.027343.164062.042969.246094c.015624.085937.03125.171875.046874.253906.015626.078125.027344.160156.039063.234375l.046875.28125c.011719.074219.019531.144531.03125.21875.015625.105469.027344.207031.042969.308594.007812.066406.019531.132812.027343.199219.203126 1.601562.265626 3.238281.183594 4.894531l-2.054687 41.03125-.511719 10.226562-.105469 2.101563-.089843 1.785156-.203126 4.085938c-.011718.15625-.015624.308593-.015624.460937.003906.453125.039062.898437.109374 1.335937.09375.582032.246094 1.144532.449219 1.683594.050781.132813.105469.265625.160157.398438.085937.195312.179687.386718.28125.574218.035156.0625.066406.128907.101562.191407.054688.097656.117188.199219.175781.292969.050781.085937.105469.167968.160157.25.117187.175781.242187.347656.371093.515624.046875.054688.089844.109376.132813.164063.179687.21875.371094.429687.570312.628906.050782.050781.101563.101563.152344.148438.195312.1875.398438.363281.609375.527343.121094.097657.25.191407.375.28125.058594.039063.117187.078126.175781.121094.09375.0625.191406.125.292969.183594.082031.054688.167969.101562.253906.152344.246094.140625.503907.265625.765625.382812.265625.117188.535156.21875.8125.304688.273438.089844.554688.164062.84375.226562.359375.078125.730469.128906 1.105469.160156.226563.019532.453125.027344.683594.027344h21.996093c.769532 0 1.507813-.101562 2.214844-.289062.070313-.019532.140625-.039063.210938-.058594 2.652344-.777344 4.765625-2.808594 5.671875-5.390625.023437-.066406.046875-.132813.070312-.203125.132813-.410156.234375-.835938.304688-1.273438.035156-.21875.0625-.4375.082031-.660156.027344-.375.035156-.75.015625-1.132812l-.292969-5.875-.851562-16.902344-.0625-1.285156-1.761719-35.167969c-.085937-1.65625-.019531-3.292969.183594-4.898437.007812-.0625.019531-.128907.027343-.195313.011719-.101563.027344-.207031.042969-.3125.007813-.070313.019531-.140625.03125-.214844.011719-.09375.027344-.183593.042969-.277343.011719-.078126.027344-.160157.039062-.238282.015626-.085937.03125-.171875.046876-.257812.015624-.078125.03125-.160156.042968-.242188.015625-.085937.035156-.171875.050782-.253906.015624-.078125.03125-.160156.046874-.238281.019532-.085938.039063-.171875.058594-.257813.015625-.078125.03125-.15625.050782-.234375.027343-.121093.054687-.238281.085937-.355469.023437-.105468.050781-.210937.078125-.316406.023438-.089844.046875-.179687.066406-.265625.023438-.082031.046875-.164062.066406-.242187.023438-.082032.046876-.164063.070313-.242188.019531-.078125.042969-.160156.066406-.238281.023438-.082031.046875-.164063.074219-.242187.023438-.082032.050781-.160157.074219-.242188.023437-.074219.046875-.152344.070312-.226562.027344-.082032.054688-.164063.082031-.246094.027344-.082032.054688-.160156.082032-.242188.027344-.074218.050781-.148437.078125-.222656.035156-.09375.066406-.183594.101562-.277344.046875-.125.09375-.25.140625-.375.03125-.085937.0625-.167968.09375-.25.03125-.074218.058594-.148437.089844-.21875.035156-.082031.066406-.167968.101562-.25.03125-.070312.058594-.140625.089844-.210937.035156-.082031.070313-.164063.105469-.242188.03125-.074219.0625-.148437.09375-.222656.035156-.078125.070313-.15625.105469-.230469.035156-.074218.070312-.148437.105468-.21875.035157-.082031.074219-.164062.113282-.246094.03125-.066406.066406-.132812.097656-.199218.050781-.105469.101562-.207032.152344-.308594.039062-.078125.078125-.152344.117187-.226562.054688-.109376.113281-.21875.167969-.328126.039062-.070312.078125-.136718.113281-.207031.039063-.074219.082031-.148437.121094-.222656.039063-.070313.078125-.136719.117187-.203125.046876-.082031.089844-.160156.136719-.242188.039063-.0625.074219-.125.113281-.191406.046876-.074218.09375-.152344.140626-.230468.039062-.066407.078124-.128907.117187-.195313.050781-.078125.097656-.160156.148437-.238281.039063-.058594.074219-.121094.113282-.179688.0625-.09375.121094-.1875.183594-.28125.027343-.042968.058593-.089844.085937-.132812.089844-.132813.179687-.265625.269531-.398438.039063-.050781.070313-.101562.109375-.152344.058594-.085937.117188-.171874.179688-.253906.039062-.054687.082031-.113281.121093-.164062.058594-.082032.113282-.160156.171876-.238282.046874-.058593.089843-.117187.136718-.175781.054688-.074219.109375-.144531.164063-.214843.042969-.0625.089843-.121094.140625-.179688.058594-.078125.117187-.152344.175781-.226562.042969-.050782.089844-.109376.132813-.164063.066406-.082031.136718-.164063.207031-.246094.035156-.042969.074219-.089843.109375-.132812.101562-.125.210937-.246094.316406-.367188.035156-.039062.074219-.082031.109375-.121093.074219-.082032.148437-.167969.222656-.25.042969-.050782.089844-.097657.132813-.148438.070312-.074219.136718-.144531.203125-.214844.046875-.050781.097656-.105468.144531-.152344.066406-.070312.136719-.144531.203125-.210937.050781-.050781.101563-.101563.148437-.152344.070313-.074219.144532-.140625.210938-.210937.046875-.046875.097656-.09375.140625-.140625.085937-.082031.171875-.164063.253906-.242188.039063-.035156.070313-.070312.105469-.101562.121094-.113281.242188-.226563.363281-.335938.035157-.03125.070313-.0625.105469-.09375.089844-.078125.179688-.160156.269531-.238281.046875-.039062.09375-.082031.144531-.125.078126-.066406.160157-.136719.238282-.203125.046875-.042969.101562-.085937.152344-.125.082031-.066406.160156-.132813.242187-.199219.050781-.039062.101563-.082031.152344-.125.082031-.066406.164062-.128906.246093-.195312.050782-.039063.101563-.078125.152344-.117188.089844-.070312.179688-.136718.269532-.207031.046874-.035156.089843-.066406.132812-.101563.132812-.097656.265625-.195312.402344-.289062.03125-.023438.066406-.046875.097656-.066406.101562-.074219.210938-.148438.3125-.222656.050781-.035157.105469-.070313.160156-.105469.089844-.0625.175782-.121094.265625-.179688.054688-.039062.109375-.074219.164063-.105469.085937-.058593.175781-.117187.265625-.171874.054687-.039063.109375-.070313.164062-.109376.09375-.054687.183594-.113281.277344-.171874.054687-.03125.109375-.0625.160156-.09375.105469-.0625.210938-.125.316407-.183594.042968-.023438.082031-.050782.125-.074219.144531-.085937.292968-.167969.441406-.25.03125-.015625.058594-.03125.089844-.046875.121093-.066406.246093-.132812.367187-.199219.050781-.023437.097656-.050781.144531-.074219.105469-.054687.210938-.109374.316406-.160156.058594-.027344.113282-.058594.167969-.085937.097657-.046875.195313-.09375.292969-.140625.0625-.03125.125-.058594.191406-.089844.09375-.042969.183594-.085938.277344-.128906.066406-.03125.128906-.058594.191406-.085938.105469-.050781.214844-.09375.320313-.144531.050781-.019531.097656-.042969.148437-.0625.160156-.070313.320313-.136719.484375-.199219l1.890625-.765625c.242188-.097656.488282-.199219.730469-.300781.003906-.003906.003906-.003906.007813-.003906.105468-.042969.210937-.089844.316406-.132813.128906-.054687.257812-.109375.386718-.160156.019532-.011719.039063-.019531.0625-.03125.125-.050781.25-.105469.375-.160156.089844-.039063.183594-.082031.273438-.121094.039062-.015625.078125-.035156.113281-.050781.109375-.046875.21875-.09375.328125-.144532.089844-.039062.179688-.078124.265625-.117187.054688-.027344.113281-.054687.171875-.078125.125-.054688.25-.113281.371094-.167969.054688-.027343.109375-.050781.164062-.074219.074219-.035156.148438-.070312.222657-.105468.128906-.0625.261719-.121094.394531-.183594.027344-.011719.058594-.027344.089844-.042969.089844-.042969.179687-.085937.269531-.125.121094-.058593.246094-.121093.367187-.175781.015626-.007812.03125-.019531.046876-.027344.097656-.046875.195312-.09375.292968-.140625.023438-.011719.046875-.023437.066406-.03125.132813-.066406.265626-.128906.398438-.195312.066406-.035157.136719-.070313.199219-.101563.035156-.015625.070312-.035156.101562-.050781.132813-.066406.269531-.132813.398438-.199219.066406-.035156.128906-.066406.191406-.097656.054687-.027344.113281-.058594.167969-.089844.136718-.066406.273437-.136718.40625-.207031.035156-.019531.070312-.039063.109375-.058594.066406-.035156.132812-.070312.199219-.105469.15625-.082031.3125-.164062.46875-.246093.003906 0 .003906-.003907.007812-.003907.011719-.007812.023438-.011718.035156-.019531.214844-.117187.429688-.230469.644532-.347656 0 0 .003906 0 .003906-.003906.007812-.003907.011718-.007813.019531-.011719.265625-.140625.53125-.289062.792969-.4375.042968-.023438.085937-.046875.132812-.074219.226563-.125.453125-.257812.679688-.386719.054687-.03125.105468-.0625.160156-.09375.226562-.132812.457031-.265624.683594-.398437.035156-.027344.078125-.046875.113281-.070313.253906-.152343.503906-.304687.753906-.457031.007813-.003906.015625-.011719.027344-.015625s.019531-.011718.027344-.015625c.183593-.109375.367187-.226562.550781-.339843.027344-.015626.054688-.035157.082031-.050782.023438-.015625.046875-.027344.066407-.042968.003906 0 .003906 0 .007812-.003907.175781-.109375.351562-.222656.527344-.332031.015625-.007812.03125-.019531.046875-.03125l.074219-.042969c.183593-.117187.363281-.234375.542968-.351562.011719-.003907.019532-.015625.03125-.019531l.058594-.039063c.417969-.273437.835938-.550781 1.25-.828125.023438-.015625.042969-.03125.070312-.050781.015626-.011719.035157-.023438.054688-.035157.191406-.132812.382812-.261718.570312-.394531l.015626-.011719c.003906 0 .007812-.003906.011718-.003906.960938-.667968 1.90625-1.355468 2.832032-2.058594.019531-.015624.039062-.027343.054687-.039062.171875-.128906.339844-.257812.507813-.390625.007812-.003906.015624-.011719.023437-.019531 4.433594-3.425782 8.472656-7.277344 12.074219-11.476563.003906-.003906.007812-.011719.011718-.015625 1.433594-1.667968 2.792969-3.390625 4.082032-5.164062.015625-.019532.03125-.039063.046875-.0625.121093-.167969.242187-.335938.363281-.503906 0 0 0-.003907.003906-.003907 3.527344-4.9375 6.5-10.257812 8.863282-15.851562.003906-.011719.007812-.023438.011718-.035157.425782-1.007812.828125-2.023437 1.210938-3.046874.007812-.011719.011718-.023438.015625-.035157.304687-.820312.601562-1.644531.878906-2.476562 0 0 .003906-.003907.003906-.003907.066407-.199218.132813-.394531.199219-.59375.007812-.027343.015625-.050781.023438-.078124.128906-.390626.257812-.785157.378906-1.175782 1.21875.15625 2.460937.238282 3.722656.238282 15.992188 0 28.960938-12.964844 28.960938-28.960938.015624-.140625.011718-.269531.011718-.394531zm0 0" fill="#382b73"/><path d="m260.171875 283.261719-24.011719 9.71875c-7.59375 3.074219-16.085937 3.074219-23.679687 0l-24.007813-9.71875c-34.34375-13.910157-55.125-49.085938-50.734375-85.878907l2.988281-25.042968c4.066407-34.0625 28.394532-62.246094 61.488282-71.25 14.472656-3.941406 29.734375-3.941406 44.207031 0 33.097656 9.003906 57.421875 37.191406 61.488281 71.25l2.988282 25.042968c4.398437 36.792969-16.382813 71.972657-50.726563 85.878907zm0 0" fill="#e43d91"/><path d="m257.761719 277.488281-22.394531 9.070313c-7.085938 2.871094-15.003907 2.871094-22.089844 0l-22.394532-9.070313c-32.039062-12.972656-51.425781-45.785156-47.328124-80.105469l2.792968-23.363281c3.792969-31.769531 26.480469-58.0625 57.355469-66.464843 13.5-3.671876 27.738281-3.671876 41.238281 0 30.871094 8.402343 53.5625 34.695312 57.355469 66.464843l2.792969 23.363281c4.09375 34.320313-15.292969 67.136719-47.328125 80.105469zm0 0" fill="#ef5a9d"/><path d="m301.078125 247.132812h-153.515625c1.488281 2.671876 3.128906 5.253907 4.90625 7.746094h143.707031c1.777344-2.492187 3.414063-5.078125 4.902344-7.746094zm0 0" fill="#e43d91"/><path d="m296.175781 254.875h-143.707031c4.105469 5.753906 8.96875 10.992188 14.480469 15.554688.003906 0 .003906 0 .003906.003906 1.386719 1.144531 2.8125 2.25 4.28125 3.304687.011719.007813.023437.019531.035156.027344.195313.140625.390625.28125.585938.417969.019531.015625.042969.03125.066406.042968.183594.132813.371094.261719.554687.394532l.09375.0625c.1875.125.367188.253906.550782.378906.027344.015625.054687.035156.082031.054688.179687.121093.363281.246093.550781.367187.035156.023437.066406.046875.105469.070313.179687.117187.359375.238281.539063.355468l.101562.066406c.1875.121094.371094.242188.558594.363282l.085937.054687c.195313.121094.390625.246094.582031.367188.023438.015625.046876.027343.070313.042969.199219.125.398437.246093.597656.371093.019531.011719.042969.023438.0625.035157 1.101563.675781 2.222657 1.324218 3.359375 1.945312.050782.03125.105469.058594.15625.085938.175782.097656.351563.191406.523438.285156.058594.03125.113281.0625.167968.089844.171876.089843.34375.179687.511719.269531.066407.039062.136719.070312.203125.105469.160156.082031.320313.167968.480469.25.074219.039062.148437.074218.21875.113281.15625.078125.316406.15625.472656.234375.078125.039062.15625.078125.234375.117187.144532.070313.285156.140625.429688.214844.097656.046875.195312.09375.296875.140625.132812.066406.269531.132812.40625.199219.09375.042969.183593.085937.277343.128906.140626.070313.28125.136719.425782.203125.09375.042969.1875.085938.28125.128906.144531.066406.285156.128906.425781.191406.097656.042969.1875.089844.28125.128907.144531.066406.289063.128906.433594.191406.089843.042969.183593.082031.273437.125.15625.066406.308594.132813.464844.199219.082031.039062.167969.074218.25.109375.1875.078125.375.160156.566406.238281.046875.019531.09375.039062.140625.058594.242188.101562.488281.199218.730469.300781l1.894531.765625c10.984375 4.449219 17.949219 15.363281 17.355469 27.203125l-2.96875 59.226563c-.246094 4.902343 3.660156 9.011718 8.570312 9.011718h21.996094c4.910156 0 8.816406-4.109375 8.570313-9.011718l-2.96875-59.226563c-.59375-11.839844 6.371093-22.753906 17.359375-27.203125l1.890625-.765625c.242187-.097656.488281-.199219.730469-.300781.046874-.019532.09375-.039063.144531-.058594.1875-.078125.378906-.160156.566406-.238281.082031-.035157.164063-.070313.246094-.109375.15625-.066406.3125-.132813.464843-.199219.09375-.042969.1875-.082031.277344-.125.140625-.0625.289063-.125.433594-.191406.09375-.039063.183594-.082031.277344-.128907.144531-.0625.289062-.128906.429687-.191406.09375-.042968.1875-.089844.28125-.128906.140625-.066406.285157-.132812.429688-.203125.089843-.042969.183593-.085937.273437-.128906.136719-.066407.273438-.132813.410156-.199219.097657-.046875.195313-.09375.292969-.140625.144531-.070313.289063-.144531.433594-.214844.078125-.039062.15625-.078125.234375-.117187l.46875-.234375c.074219-.039063.148438-.074219.222656-.113281.160156-.082032.320313-.164063.476563-.25.066406-.035157.136719-.066407.203125-.105469.171875-.089844.339844-.179688.511718-.269531.054688-.027344.113282-.058594.167969-.089844.175781-.09375.347657-.1875.523438-.285156.050781-.027344.105469-.054688.15625-.085938 1.140625-.621094 2.261719-1.269531 3.363281-1.945312.019531-.011719.039062-.023438.058594-.035157.199218-.125.398437-.246093.601562-.371093.019532-.015626.042969-.027344.066406-.042969.195313-.121094.386719-.242188.582032-.367188l.089844-.054687c.183593-.121094.371093-.238282.554687-.363282l.101563-.066406c.183593-.117187.363281-.234375.542968-.355468.035156-.023438.070313-.046876.105469-.070313.183594-.121094.367187-.246094.550781-.367187.023438-.019532.050782-.039063.078125-.054688.183594-.125.367188-.253906.550781-.378906l.09375-.0625c.1875-.132813.375-.261719.558594-.394532.019532-.011718.042969-.027343.0625-.042968.195313-.136719.394532-.277344.585938-.417969.011718-.007813.023437-.015625.035156-.027344 1.46875-1.054687 2.894531-2.160156 4.28125-3.304687.003906-.003906.003906-.003906.003906-.003906 5.515625-4.5625 10.375-9.800782 14.484375-15.554688zm0 0" fill="#f7cb15"/><g fill="#e7ad27"><path d="m207.722656 302.648438c.59375-11.839844-6.371094-22.753907-17.359375-27.203126l-1.890625-.765624c-.246094-.101563-.488281-.199219-.730468-.300782-.046876-.019531-.097657-.039062-.144532-.058594-.1875-.078124-.378906-.160156-.566406-.238281-.082031-.035156-.164062-.070312-.246094-.109375-.15625-.066406-.3125-.132812-.46875-.199218-.089844-.042969-.183594-.082032-.273437-.125-.144531-.0625-.285157-.125-.429688-.191407-.09375-.042969-.1875-.082031-.28125-.128906-.140625-.0625-.285156-.128906-.425781-.191406-.09375-.042969-.1875-.089844-.28125-.128907-.144531-.066406-.285156-.132812-.429688-.203124-.089843-.042969-.183593-.085938-.273437-.128907-.136719-.066406-.273437-.132812-.410156-.199219-.097657-.046874-.195313-.09375-.292969-.140624-.144531-.070313-.289062-.144532-.433594-.214844-.078125-.039063-.15625-.078125-.234375-.117188-.15625-.078125-.3125-.15625-.46875-.234375-.074219-.039062-.148437-.074219-.222656-.113281-.160156-.082031-.320313-.164062-.476563-.25-.070312-.035156-.136718-.066406-.203124-.105469-.171876-.089843-.339844-.179687-.511719-.269531-.054688-.027344-.113281-.058594-.167969-.089844-.175781-.09375-.351562-.1875-.523438-.285156-.050781-.027344-.105468-.054688-.160156-.085938-1.136718-.621093-2.257812-1.269531-3.359375-1.945312-.019531-.011719-.039062-.023438-.058593-.035156-.199219-.125-.402344-.246094-.601563-.371094-.019531-.015625-.042969-.027344-.066406-.042969-.195313-.121093-.390625-.242187-.582031-.367187l-.089844-.054688c-.183594-.121094-.371094-.238281-.554688-.363281l-.105468-.066406c-.179688-.117188-.359376-.234375-.539063-.355469-.035156-.023438-.070313-.046875-.105469-.070312-.183594-.121094-.367187-.246094-.550781-.371094-.023437-.015625-.050781-.035156-.078125-.054688-.183594-.125-.367188-.25-.550781-.375l-.09375-.066406c-.1875-.128906-.375-.257812-.558594-.390625-.023437-.015625-.042969-.03125-.0625-.042969-.199219-.140625-.394531-.28125-.585937-.417968-.011719-.007813-.027344-.019532-.039063-.027344-1.464844-1.058594-2.890625-2.164063-4.277344-3.308594-.003906 0-.003906 0-.003906-.003906-2.632813-2.175782-5.109375-4.503906-7.429687-6.972656h-7.054688c4.109375 5.753906 8.96875 10.992187 14.484375 15.554687 0 0 0 0 .003906.003906 1.386719 1.144531 2.8125 2.25 4.277344 3.304688.011719.007812.027344.015625.039063.027343.191406.140626.386718.28125.585937.417969.019531.015625.039063.03125.0625.042969.1875.132812.371094.261719.558594.394531l.09375.0625c.183593.125.367187.253907.550781.378907.023438.015624.054688.035156.078125.054687.183594.121094.367187.246094.550781.367187.035156.023438.070313.046876.105469.070313.179687.117187.359375.238281.539063.355469l.105468.066406c.183594.121094.371094.242188.554688.359375l.089844.058594c.195312.121093.386718.246093.582031.367187.023437.015625.046875.027344.066406.042969.199219.125.402344.246094.601563.367187.019531.015626.039062.027344.058593.039063 1.101563.675781 2.222657 1.324219 3.359375 1.945313.054688.03125.109375.058593.160156.085937.171876.097656.347657.191406.523438.285156.054688.03125.113281.058594.167969.089844.171875.089844.339843.179687.511719.269531.066406.035156.132812.070313.203124.105469.160157.082031.316407.167969.476563.25.074219.039063.148437.074219.222656.113281l.46875.234375c.078125.039063.15625.078125.234375.117188.144532.070312.289063.140625.433594.210937.097656.050782.195312.097656.292969.144532.136719.066406.273437.132812.410156.199218.089844.042969.183594.085938.273437.128906.144532.070313.285157.136719.429688.203126.09375.042968.1875.085937.28125.128906.140625.066406.285156.128906.425781.191406.09375.042969.1875.085938.28125.128906.144531.066406.285157.128906.429688.191406.09375.042969.183593.082032.273437.125.15625.066407.3125.132813.46875.199219.082032.039063.164063.074219.246094.109375.1875.078125.375.160156.566406.238282.046875.019531.097656.039062.144532.058593.242187.101563.484374.199219.730468.300781l1.890625.765626c9.449219 3.828124 15.925781 12.441406 17.175781 22.308593zm0 0"/><path d="m281.691406 261.847656c0 .003906 0 .003906-.003906.003906-1.386719 1.144532-2.8125 2.25-4.28125 3.308594-.011719.007813-.023438.015625-.035156.027344-.191406.136719-.390625.277344-.585938.417969-.019531.011719-.042968.027343-.0625.042969-.1875.132812-.371094.261718-.558594.390624l-.09375.066407c-.183593.125-.367187.25-.550781.375-.027343.019531-.050781.039062-.078125.054687-.183594.125-.367187.246094-.550781.371094-.035156.023438-.070313.046875-.105469.070312-.179687.121094-.359375.238282-.542968.355469l-.101563.066407c-.183594.121093-.371094.242187-.554687.363281l-.089844.054687c-.195313.125-.386719.246094-.582032.367188-.023437.015625-.046874.027344-.066406.042968-.203125.125-.402344.246094-.601562.371094-.019532.011719-.039063.023438-.058594.035156-1.101562.675782-2.222656 1.324219-3.363281 1.945313-.050781.03125-.105469.058594-.15625.085937-.175781.097657-.351563.191407-.523438.285157-.054687.03125-.113281.0625-.167969.089843-.171874.089844-.339843.179688-.511718.269532-.066406.039062-.136719.070312-.203125.105468-.160157.082032-.316407.167969-.476563.25-.074218.039063-.148437.074219-.222656.113282-.15625.078125-.316406.15625-.46875.234375-.078125.039062-.15625.078125-.234375.117187-.144531.070313-.289063.140625-.433594.214844-.097656.046875-.195312.09375-.292969.140625-.136718.066406-.273437.132813-.410156.199219-.089844.042968-.183594.085937-.273437.128906-.144531.070312-.285157.136719-.429688.203125-.09375.042969-.1875.085937-.28125.128906-.140625.066407-.285156.128907-.429687.195313-.09375.039062-.183594.085937-.277344.125-.144531.066406-.289062.128906-.433594.191406-.09375.042969-.183594.082031-.277344.125-.152343.066406-.308593.132812-.464843.199219-.082031.039062-.164063.074219-.246094.109375-.1875.082031-.378906.160156-.566406.238281-.050781.019531-.097657.039063-.144531.058594-.242188.101562-.488282.203125-.730469.300781l-1.890625.765625c-10.988282 4.449219-17.953125 15.363281-17.359375 27.203125l.183593 3.6875c1.25-9.871094 7.722657-18.484375 17.175782-22.308594l1.890625-.765625c.242187-.097656.488281-.203125.730469-.300781.046874-.019531.09375-.039062.144531-.0625.1875-.078125.378906-.15625.566406-.234375.082031-.039063.164063-.074219.246094-.109375.15625-.066406.3125-.132812.464843-.203125.09375-.039063.1875-.078125.277344-.121094.140625-.0625.289063-.128906.433594-.191406.09375-.042969.183594-.085937.277344-.128906.144531-.0625.289062-.128907.429687-.195313.09375-.042968.1875-.085937.28125-.128906.140625-.066406.285157-.132812.429688-.199219.089843-.042969.183593-.089843.273437-.132812.136719-.066407.273438-.128907.410156-.195313.097657-.046875.195313-.097656.292969-.144531.144531-.070313.289063-.140625.433594-.214844.078125-.035156.15625-.078125.234375-.113281.15625-.078125.3125-.160156.46875-.238281.074219-.039063.148438-.074219.222656-.113281.160156-.082032.320313-.164063.476563-.246094.066406-.035156.136719-.070313.203125-.105469.171875-.089844.339844-.179687.511718-.269531.054688-.03125.113282-.0625.167969-.089844.175781-.09375.347657-.1875.523438-.285156.050781-.027344.105469-.058594.15625-.085938 1.140625-.625 2.261719-1.273437 3.363281-1.945312.019531-.011719.039062-.023438.058594-.039063.199218-.121093.398437-.246093.601562-.371093.019532-.011719.042969-.027344.066406-.039063.195313-.125.386719-.246094.582032-.371094l.089844-.054687c.183593-.121094.371093-.238282.554687-.359375l.101563-.070313c.183593-.117187.363281-.234375.542968-.355468.035156-.023438.070313-.046876.105469-.070313.183594-.121094.367187-.242187.550781-.367187.023438-.015626.050782-.035157.078125-.054688.183594-.125.367188-.25.550781-.375l.09375-.066406c.1875-.128906.375-.257813.558594-.390625.019532-.015625.042969-.03125.0625-.042969.195313-.140625.394532-.28125.585938-.417969.011718-.007812.023437-.015625.035156-.027343 1.46875-1.058594 2.894531-2.164063 4.28125-3.308594.003906 0 .003906 0 .003906-.003906 5.515625-4.5625 10.375-9.796876 14.484375-15.550782h-7.054687c-2.320313 2.464844-4.800782 4.792969-7.429688 6.96875zm0 0"/><path d="m243.59375 364.585938c-.992188 3.617187-4.308594 6.300781-8.273438 6.300781h-22c-3.964843 0-7.277343-2.683594-8.273437-6.300781l-.292969 5.871093c-.246094 4.902344 3.660156 9.011719 8.570313 9.011719h21.996093c4.910157 0 8.816407-4.109375 8.570313-9.011719zm0 0"/><path d="m243.683594 366.371094c-.867188 3.796875-4.269532 6.660156-8.363282 6.660156h-22c-4.09375 0-7.496093-2.863281-8.363281-6.660156l-.203125 4.085937c-.246094 4.902344 3.660156 9.011719 8.570313 9.011719h21.996093c4.910157 0 8.816407-4.109375 8.570313-9.011719zm0 0"/></g><path d="m207.722656 311.226562-2.96875 59.230469c-.246094 4.902344 3.660156 9.007813 8.566406 9.007813h22c4.90625 0 8.8125-4.105469 8.570313-9.007813l-2.96875-59.230469-3.730469-56.351562h-25.742187zm0 0" fill="#fede3a"/><path d="m215.113281 304.402344-1.644531 65.152344c-.136719 5.394531 2.027344 9.910156 4.75 9.910156h12.203125c2.71875 0 4.886719-4.519532 4.75-9.910156l-1.648437-65.152344-2.066407-37.210938h-14.277343zm0 0" fill="#fff335"/><path d="m242.683594 346.398438h-36.726563l-.804687 16.085937h38.335937zm0 0" fill="#e43d91"/><path d="m234.339844 346.398438h-20.035156l-.441407 16.085937h20.914063zm0 0" fill="#ef5a9d"/><path d="m211.449219 254.875 5.734375 12.316406h14.273437l5.734375-12.316406zm0 0" fill="#fff335"/><path d="m282.820312 207.3125v.007812c-.050781.351563-.09375.707032-.132812 1.0625 0 .019532-.003906.039063-.003906.054688-.011719.109375-.023438.222656-.035156.335938v.027343c-.011719.105469-.019532.210938-.027344.316407 0 .019531-.003906.039062-.003906.0625-.007813.105468-.015626.210937-.023438.316406 0 .019531 0 .039062-.003906.054687-.003906.101563-.011719.207031-.019532.3125 0 .019531 0 .042969-.003906.066407-.003906.089843-.007812.175781-.011718.265624 0 .039063-.003907.074219-.003907.113282-.003906.105468-.007812.210937-.007812.316406 0 .015625-.003907.035156-.003907.054688-.003906.253906-.007812.503906-.007812.757812 0 1.75.15625 3.460938.449219 5.125.109375.59375.230469 1.183594.375 1.765625.113281.464844.238281.925781.371093 1.378906.273438.914063.585938 1.804688.945313 2.675781.085937.21875.179687.433594.273437.652344.703126 1.613282 1.550782 3.148438 2.527344 4.59375.066406.097656.132813.191406.199219.289063.792969 1.144531 1.667969 2.230469 2.613281 3.246093.160156.171876.320313.339844.480469.503907.164063.167969.328125.328125.492187.492187.167969.160156.335938.320313.503907.480469 1.015625.945313 2.101562 1.820313 3.246093 2.617187.097657.0625.191407.128907.289063.195313 1.441406.976563 2.980469 1.824219 4.59375 2.527344.21875.09375.433594.1875.652344.277343.871093.355469 1.761719.667969 2.675781.941407.457031.136719.914062.257812 1.378906.371093.0625.015626.125.03125.1875.046876 5.589844-12.972657 7.882813-27.476563 6.117188-42.234376l-1.765625-14.804687c-13.523438 1.085937-24.421875 11.460937-26.316407 24.734375zm0 0" fill="#a72973"/><path d="m340.445312 202.859375c0 15.992187-12.964843 28.957031-28.960937 28.957031-15.992187 0-28.957031-12.964844-28.957031-28.957031s12.964844-28.957031 28.957031-28.957031c15.996094 0 28.960937 12.964844 28.960937 28.957031zm0 0" fill="#fff"/><path d="m311.484375 208.90625c-11.921875 0-22.160156-7.207031-26.601563-17.503906-1.515624 3.515625-2.355468 7.386718-2.355468 11.457031 0 15.992187 12.964844 28.957031 28.957031 28.957031s28.960937-12.960937 28.960937-28.957031c0-4.070313-.839843-7.941406-2.355468-11.457031-4.441406 10.296875-14.679688 17.503906-26.605469 17.503906zm0 0" fill="#e6e7e8"/></svg>