<svg height="477.60001pt" viewBox="0 0 477.60001 477.60001" width="477.60001pt" xmlns="http://www.w3.org/2000/svg"><path d="m477.601562 238.800781c0 131.886719-106.914062 238.800781-238.800781 238.800781s-238.800781-106.914062-238.800781-238.800781 106.914062-238.800781 238.800781-238.800781 238.800781 106.914062 238.800781 238.800781zm0 0" fill="#382b73"/><path d="m445.398438 238.800781c0 114.101563-92.496094 206.597657-206.597657 206.597657-114.101562 0-206.597656-92.496094-206.597656-206.597657 0-114.101562 92.496094-206.597656 206.597656-206.597656 114.101563 0 206.597657 92.496094 206.597657 206.597656zm0 0" fill="#473080"/><path d="m354.429688 363.628906c.027343-.0625.054687-.125.082031-.1875.007812-.019531.015625-.039062.023437-.058594.601563-1.429687.933594-2.996093.933594-4.644531v-138.238281h-.003906v-29.328125c0-7.730469-6.269532-14-14-14h-35c-.007813-23.335937-18.996094-42.320313-42.335938-42.320313-14.113281 0-26.636718 6.945313-34.332031 17.59375-7.695313-10.648437-20.21875-17.59375-34.332031-17.59375-23.339844 0-42.328125 18.984376-42.335938 42.320313h-17c-7.730468 0-14 6.269531-14 14v167.574219c0 .121094.003906.242187.007813.367187v.058594c.003906.105469.007812.210937.015625.3125.003906.023437.003906.046875.003906.066406.007812.121094.019531.238281.03125.351563v.003906c.582031 6.082031 5.707031 10.839844 11.941406 10.839844h209.335938c2.429687 0 4.695312-.722656 6.585937-1.96875.011719-.007813.023438-.015625.039063-.023438 1.804687-1.203125 3.269531-2.875 4.210937-4.851562.019531-.039063.039063-.082032.058594-.121094.023437-.050781.046875-.101562.070313-.152344zm-132.632813-186.457031h-52.667969c.007813-14.515625 11.820313-26.320313 26.335938-26.320313 14.511718.003907 26.324218 11.804688 26.332031 26.320313zm42.332031-26.316406c14.515625 0 26.328125 11.800781 26.335938 26.320312h-52.667969c.007813-14.519531 11.816406-26.320312 26.332031-26.320312zm0 0" fill="#382b73"/><path d="m343.464844 356.746094h-209.335938c-6.625 0-12-5.371094-12-12v-138.238282h233.335938v138.238282c0 6.628906-5.375 12-12 12zm0 0" fill="#fede3a"/><g fill="#e7ad27"><path d="m127.550781 206.5v148.28125c-3.261719-2.140625-5.421875-5.839844-5.421875-10.042969v-138.238281zm0 0"/><path d="m179.109375 206.507812h5.414063v150.238282h-5.414063zm0 0"/><path d="m236.089844 206.507812h5.414062v150.238282h-5.414062zm0 0"/><path d="m293.070312 206.507812h5.414063v150.238282h-5.414063zm0 0"/><path d="m355.46875 206.5v138.238281c0 4.203125-2.160156 7.882813-5.417969 10.042969v-148.28125zm0 0"/><path d="m122.128906 212.265625v-6.179687h233.335938v6.179687zm0 0"/></g><path d="m355.464844 206.507812h-233.335938v-29.335937c0-7.730469 6.269532-14 14-14h205.335938c7.730468 0 14 6.269531 14 14zm0 0" fill="#1caee4"/><path d="m122.128906 187.507812h233.335938v19h-233.335938zm0 0" fill="#009add"/><path d="m237.796875 356.746094v-150.238282h-16v13.757813h-52.667969v-13.757813h-16v150.238282h16v-15.480469h52.667969v15.480469zm-68.667969-120.480469h52.667969v19h-52.667969zm0 35h52.667969v19h-52.667969zm0 54v-19h52.667969v19zm0 0" fill="#e7ad27"/><path d="m355.464844 247.265625c-19.445313 0-19.445313 16-38.894532 16-19.445312 0-19.445312-16-38.894531-16-19.445312 0-19.445312 16-38.886719 16-19.441406 0-19.441406-16-38.886718-16-19.445313 0-19.445313 16-38.886719 16-19.445313 0-19.445313-16-38.886719-16v67.335937h233.335938zm0 0" fill="#27c1e6"/><path d="m161.128906 317.265625h68.667969v16h-68.667969zm0 0" fill="#fede3a"/><path d="m161.128906 325.265625h68.667969v8h-68.667969zm0 0" fill="#f7cb15"/><path d="m161.128906 282.265625h68.667969v16h-68.667969zm0 0" fill="#fede3a"/><path d="m161.128906 290.265625h68.667969v8h-68.667969zm0 0" fill="#f7cb15"/><path d="m169.128906 356.746094h-16v-193.558594c0-23.34375 18.992188-42.332031 42.335938-42.332031 23.339844 0 42.332031 18.988281 42.332031 42.332031h-16c0-14.523438-11.8125-26.332031-26.332031-26.332031-14.523438 0-26.335938 11.808593-26.335938 26.332031zm0 0" fill="#ef5a9d"/><path d="m169.128906 163.1875c0-14.523438 11.8125-26.332031 26.335938-26.332031 14.519531 0 26.332031 11.808593 26.332031 26.332031h8c0-18.964844-15.371094-34.332031-34.332031-34.332031-18.960938 0-34.332032 15.371093-34.332032 34.332031v193.558594h8v-193.558594zm0 0" fill="#e43d91"/><path d="m161.128906 247.265625h68.667969v16h-68.667969zm0 0" fill="#ef5a9d"/><path d="m161.128906 255.265625h68.667969v8h-68.667969zm0 0" fill="#e43d91"/><path d="m161.128906 212.265625h68.667969v16h-68.667969zm0 0" fill="#ef5a9d"/><path d="m161.128906 220.265625h68.667969v8h-68.667969zm0 0" fill="#e43d91"/><path d="m237.796875 356.746094h-16v-193.558594c0-23.34375 18.988281-42.332031 42.332031-42.332031s42.335938 18.988281 42.335938 42.332031h-16c0-14.523438-11.8125-26.332031-26.335938-26.332031-14.519531 0-26.332031 11.808593-26.332031 26.332031zm0 0" fill="#ef5a9d"/><path d="m237.796875 163.1875c0-14.523438 11.8125-26.332031 26.332031-26.332031 14.523438 0 26.335938 11.808593 26.335938 26.332031h8c0-18.964844-15.371094-34.332031-34.335938-34.332031-18.960937 0-34.332031 15.371093-34.332031 34.332031v193.558594h8zm0 0" fill="#e43d91"/><path d="m277.679688 265.765625c-19.445313 0-19.445313 16-38.890626 16-19.441406 0-19.441406-16-38.886718-16-19.441406 0-19.441406 16-38.882813 16-19.445312 0-19.445312-16-38.886719-16v48.835937h233.332032v-48.835937c-19.445313 0-19.445313 16-38.894532 16-19.445312 0-19.445312-16-38.890624-16zm0 0" fill="#1caee4"/><path d="m277.679688 284.265625c-19.445313 0-19.445313 16-38.890626 16-19.441406 0-19.441406-16-38.886718-16-19.441406 0-19.441406 16-38.882813 16-19.445312 0-19.445312-16-38.886719-16v60.480469c0 6.628906 5.371094 12 12 12h209.332032c6.628906 0 12-5.371094 12-12v-60.480469c-19.445313 0-19.445313 16-38.894532 16-19.445312 0-19.445312-16-38.890624-16zm0 0" fill="#009add"/><path d="m277.679688 302.90625c-19.445313 0-19.445313 16-38.890626 16-19.441406 0-19.441406-16-38.886718-16-19.441406 0-19.441406 16-38.882813 16-19.445312 0-19.445312-16-38.886719-16v41.839844c0 6.628906 5.371094 12 12 12h209.332032c6.628906 0 12-5.371094 12-12v-41.839844c-19.445313 0-19.445313 16-38.894532 16-19.445312 0-19.445312-16-38.890624-16zm0 0" fill="#136da0"/></svg>