<svg height="477.60001pt" viewBox="0 0 477.60001 477.60001" width="477.60001pt" xmlns="http://www.w3.org/2000/svg"><path d="m477.601562 238.800781c0 131.886719-106.914062 238.800781-238.800781 238.800781s-238.800781-106.914062-238.800781-238.800781 106.914062-238.800781 238.800781-238.800781 238.800781 106.914062 238.800781 238.800781zm0 0" fill="#382b73"/><path d="m445.398438 238.800781c0 114.101563-92.496094 206.597657-206.597657 206.597657-114.101562 0-206.597656-92.496094-206.597656-206.597657 0-114.101562 92.496094-206.597656 206.597656-206.597656 114.101563 0 206.597657 92.496094 206.597657 206.597656zm0 0" fill="#473080"/><path d="m342.753906 252.085938h-207.90625c-6.246094 0-11.78125 4.03125-13.691406 9.980468-1.738281 5.421875-.117188 11.359375 4.140625 15.140625l74.289063 66.03125h-.164063l-4.28125 11.949219-3.121094 8.71875-.21875.617188c-.792969 2.210937-.75 4.464843-.074219 6.472656.03125.09375.0625.183594.097657.273437.300781.808594.707031 1.578125 1.199219 2.277344.109374.15625.222656.3125.34375.460937.117187.148438.242187.296876.371093.4375.0625.074219.128907.144532.195313.210938.261718.28125.539062.542969.835937.792969.511719.429687 1.074219.8125 1.675781 1.136719.773438.410156 1.609376.726562 2.503907.925781.097656.019531.195312.039062.296875.058593.601562.113282 1.222656.171876 1.867187.171876h75.378907c1.070312 0 2.089843-.167969 3.039062-.46875.09375-.03125.1875-.0625.28125-.097657.558594-.199219 1.09375-.445312 1.601562-.734375 1.011719-.582031 1.902344-1.335937 2.640626-2.214844.183593-.21875.359374-.445312.523437-.679687.054687-.078125.109375-.15625.160156-.238281.109375-.160156.207031-.320313.304688-.488282.046875-.082031.09375-.164062.140625-.25.457031-.839843.792968-1.746093.996094-2.695312.058593-.28125.105468-.570312.140624-.863281.023438-.195313.039063-.390625.050782-.585938.023437-.390625.023437-.789062-.003906-1.191406-.011719-.199219-.03125-.398437-.058594-.597656-.089844-.703125-.257813-1.414063-.507813-2.117188l-.222656-.617187-3.121094-8.714844-4.277343-11.949219h-.164063l74.289063-66.035156c4.257812-3.78125 5.878906-9.71875 4.140624-15.136719-1.914062-5.949218-7.445312-9.980468-13.691406-9.980468zm0 0" fill="#382b73"/><path d="m384.621094 148.175781c-.011719-.015625-.023438-.035156-.035156-.050781-.035157-.050781-.066407-.097656-.101563-.144531-.015625-.027344-.035156-.050781-.050781-.078125-.03125-.039063-.0625-.082032-.089844-.121094-.019531-.023438-.039062-.050781-.058594-.074219-.03125-.042969-.0625-.082031-.09375-.121093-.015625-.023438-.035156-.046876-.054687-.066407-.03125-.042969-.066407-.082031-.097657-.125-.015624-.019531-.035156-.042969-.054687-.066406-.035156-.042969-.074219-.085937-.109375-.128906-.015625-.015625-.027344-.035157-.046875-.050781-.109375-.121094-.21875-.238282-.335937-.351563-.003907-.003906-.003907-.007813-.007813-.011719-.054687-.050781-.105469-.105468-.164063-.15625l-.027343-.027344c-.050781-.046874-.101563-.09375-.152344-.140624-.007813-.007813-.019531-.015626-.027344-.023438-.050781-.046875-.101562-.089844-.152343-.136719-.011719-.007812-.019532-.015625-.027344-.023437-.058594-.050782-.121094-.097656-.179688-.144532v-.003906c-.257812-.203125-.527344-.394531-.800781-.566406 0-.003906-.003906-.003906-.007813-.003906-.066406-.042969-.132812-.085938-.203124-.125-2.738282-1.628906-6.253907-1.730469-9.164063.011718l-67.289063 40.238282c-8.613281 4.390625-16.332031 10.230468-22.855468 17.234375-.003906-.066407-.011719-.132813-.019532-.203125-.03125-.296875-.078124-.589844-.140624-.886719-.007813-.027344-.011719-.054687-.019532-.085937-.039062-.152344-.078125-.304688-.125-.457032-.050781-.179687-.109375-.351562-.175781-.527344-.011719-.039062-.027344-.074218-.042969-.113281-.4375-1.132812-1.144531-2.179687-2.113281-3.046875l-6.738281-6.039062s.003906.003906.007812.003906l-12.132812-10.871094c-1.496094-1.339844-3.355469-2.011718-5.214844-2.042968-.007812 0-.011719 0-.015625 0-.066406-.003907-.128906-.003907-.191406 0-.015625 0-.035157 0-.050781 0-.050782 0-.101563 0-.15625.003906-.019532 0-.039063 0-.058594 0-.046875.003906-.097656.003906-.144532.007812-.023437.003906-.039062.003906-.058593.003906l1.386719-9.347656c.648437-4.367187-2.371094-8.4375-6.738282-9.085937l-25.0625-3.71875c-4.367187-.648438-8.4375 2.367187-9.085937 6.742187l-3.621094 24.40625-3.371094-.9375c-4.253906-1.1875-8.667969 1.296875-9.855469 5.554688l-4.378906 15.6875v-.003906l-2.433594 8.714843c-.054687.199219-.101562.398438-.144531.597657-.105469.53125-.152343 1.066406-.152343 1.59375 0 .066406.003906.128906.003906.195312.035156 1.246094.367187 2.453125.9375 3.523438.027344.054687.058594.113281.089844.167968.050781.089844.105468.179688.160156.265625.042968.078125.09375.152344.140625.226563.480469.722656 1.074219 1.371094 1.773437 1.910156.074219.058594.148438.117188.222656.167969.054688.039062.109376.078125.160157.113281.21875.148438.441406.285156.675781.414062.523438.285157 1.085938.515626 1.6875.683594l5.503906 1.535156c-.007812.007813-.011718.015626-.019531.019532-.136719.164062-.25.339844-.328125.527344-.121094.277343-.175781.574218-.15625.863281.003906.097656.019531.195312.042969.292969.011719.046874.027343.09375.042969.140624.0625.1875.160156.367188.292968.53125.035156.042969.066406.082032.105469.121094.074219.078125.160156.152344.253906.222656.09375.070313.195313.136719.308594.195313.277344.144531.554687.289063.828125.425781 1.113281.5625 2.234375 1.097656 3.375 1.597656.851562.375 1.714844.730469 2.582031 1.070313.164063.066406.328125.128906.496094.195313.203125.078124.410156.15625.613281.234374.984375.367188 1.96875.714844 2.964844 1.039063.546875.179687 1.097656.355469 1.648438.523437.554687.167969 1.109374.328126 1.664062.484376 1.386719.390624 2.789062.746093 4.195312 1.066406.792969.183594 1.59375.351562 2.394532.515625.386718.074219.769531.152343 1.152344.222656.464843.089844.929687.171875 1.398437.253906.097656.015625.195313.03125.292969.046875 3.367187.574219 6.765625.980469 10.167968 1.253906 7.878907.628907 16.199219.933594 24.132813-.226562.191406-.027344.382813-.054688.574219-.085938.578125-.089843 1.148437-.1875 1.71875-.292968.761718-.140625 1.515625-.296875 2.269531-.46875 1.265625-.289063 2.53125-.664063 3.78125-1.121094.183594-.066406.367187-.136719.546875-.207031.066406-.023438.125-.050781.191406-.074219.183594-.074219.371094-.148438.558594-.226562.058594-.023438.113281-.046876.171875-.070313.089844-.039063.179687-.078125.273437-.117187.070313-.03125.140626-.0625.210938-.09375 3.21875-1.429688 6.214844-3.414063 8.585938-5.882813.003906-.003906.011718-.007813.015624-.011719 1.105469-1.15625 2.074219-2.417968 2.867188-3.773437.042969-.074219.082031-.144531.125-.21875.652344-1.15625 1.171875-2.382813 1.539062-3.671875.164063-.566406.292969-1.140625.394532-1.730469.023437-.160156.050781-.316406.074218-.476563.011719-.097656.023438-.191406.035157-.289062.023437-.171875.039062-.34375.054687-.515625.03125-.347656.050782-.699219.0625-1.054687.003906-.175782.003906-.351563.003906-.53125-.003906-.175782-.007812-.359376-.011718-.539063 0-.015625-.003906-.027344-.003906-.042969 1.433593-2.007812 2.964843-3.933594 4.589843-5.769531.132813-.152344.269531-.308594.40625-.457031.957031-1.0625 1.941407-2.09375 2.957031-3.089844 1.308594-1.285156 2.664063-2.519531 4.066407-3.695312.9375-.789063 1.894531-1.550782 2.867187-2.285157.164063-.125.328125-.246093.492188-.367187 3.113281-2.304688 6.417968-4.355469 9.894531-6.125l42.289063-21.171875 28.183593-14.105469c.9375-.46875 1.753907-1.078125 2.4375-1.785156.054688-.058594.109375-.121094.164063-.179688.101562-.113281.203125-.226562.296875-.34375.078125-.09375.152343-.1875.226562-.28125.09375-.125.183594-.25.273438-.378906.132812-.195312.253906-.390625.367187-.59375.039063-.066406.078125-.132812.113282-.199219.070312-.136719.140624-.273437.207031-.414062.066406-.140625.128906-.28125.1875-.421875.4375-1.070313.667969-2.214844.671875-3.375 0-1.710938-.480469-3.4375-1.5-4.976563zm-150.5 70.90625.652344-2.328125.894531-3.203125 8.082031 7.242188-10.59375 1.742187.96875-3.460937c0 .003906-.003906.003906-.003906.007812zm0 0" fill="#382b73"/><path d="m278.015625 329.238281h-78.425781l-74.292969-66.03125c-4.253906-3.78125-5.875-9.71875-4.136719-15.140625 1.910156-5.949218 7.441406-9.984375 13.691406-9.984375h207.902344c6.25 0 11.78125 4.035157 13.691406 9.984375 1.738282 5.417969.117188 11.355469-4.140624 15.140625zm0 0" fill="#1caee4"/><path d="m261.664062 329.238281h-45.730468l-43.320313-66.03125c-2.480469-3.78125-3.425781-9.71875-2.410156-15.140625 1.113281-5.949218 4.339844-9.984375 7.980469-9.984375h121.230468c3.644532 0 6.871094 4.035157 7.984376 9.984375 1.011718 5.417969.066406 11.355469-2.414063 15.140625zm0 0" fill="#fff"/><path d="m261.664062 329.238281h-45.730468l-43.320313-66.03125c-2.480469-3.78125-3.425781-9.71875-2.410156-15.140625 1.113281-5.949218 4.339844-9.984375 7.980469-9.984375h121.230468c3.644532 0 6.871094 4.035157 7.984376 9.984375 1.011718 5.417969.066406 11.355469-2.414063 15.140625zm0 0" fill="#27c1e6"/><path d="m276.492188 363.742188h-75.382813c-6.84375 0-11.617187-6.78125-9.308594-13.222657l7.625-21.28125h78.753907l7.621093 21.28125c2.304688 6.441407-2.46875 13.222657-9.308593 13.222657zm0 0" fill="#1caee4"/><path d="m259.359375 363.742188h-41.117187c-3.730469 0-6.335938-6.78125-5.074219-13.222657l4.15625-21.28125h42.953125l4.160156 21.28125c1.253906 6.441407-1.347656 13.222657-5.078125 13.222657zm0 0" fill="#27c1e6"/><path d="m285.578125 349.902344c-1.484375 3.457031-4.890625 6.011718-9.085937 6.011718h-75.382813c-4.195313 0-7.601563-2.554687-9.085937-6.011718l-.222657.617187c-2.308593 6.441407 2.46875 13.222657 9.308594 13.222657h75.382813c6.84375 0 11.617187-6.78125 9.308593-13.222657zm0 0" fill="#009add"/><path d="m282.457031 341.1875-4.28125-11.949219h-78.75l-4.28125 11.949219zm0 0" fill="#1caee4"/><path d="m221.835938 219.347656-24.402344-6.816406c-4.253906-1.1875-6.742188-5.601562-5.554688-9.855469l6.816406-24.398437c1.1875-4.257813 5.601563-6.742188 9.855469-5.554688l24.398438 6.8125c4.257812 1.1875 6.742187 5.601563 5.554687 9.855469l-6.8125 24.402344c-1.1875 4.253906-5.601562 6.742187-9.855468 5.554687zm0 0" fill="#fff"/><path d="m224.269531 210.628906-24.402343-6.8125c-4.253907-1.1875-6.742188-5.601562-5.554688-9.855468l-2.433594 8.714843c-1.1875 4.257813 1.300782 8.667969 5.554688 9.855469l24.402344 6.816406c4.253906 1.1875 8.667968-1.300781 9.855468-5.554687l2.433594-8.71875c-1.1875 4.257812-5.601562 6.742187-9.855469 5.554687zm0 0" fill="#d1d3d4"/><path d="m238.160156 184.109375-5.433594 6.066406c-2.949218 3.289063-2.671874 8.347657.617188 11.292969l1.429688 1.28125 3.730468-13.359375c.507813-1.820313.34375-3.667969-.34375-5.28125zm0 0" fill="#d1d3d4"/><path d="m280.414062 194.894531-16.90625 18.867188c-2.949218 3.289062-8.007812 3.566406-11.296874.617187l-18.867188-16.910156c-3.289062-2.945312-3.566406-8.003906-.617188-11.292969l16.90625-18.867187c2.949219-3.289063 8.007813-3.570313 11.296876-.617188l18.867187 16.90625c3.289063 2.949219 3.566406 8.007813.617187 11.296875zm0 0" fill="#fff"/><path d="m273.675781 188.855469-16.910156 18.863281c-2.949219 3.292969-8.003906 3.570312-11.296875.621094l6.742188 6.039062c3.289062 2.945313 8.347656 2.671875 11.296874-.617187l16.90625-18.867188c2.949219-3.289062 2.671876-8.347656-.617187-11.296875l-6.742187-6.039062c3.292968 2.949218 3.570312 8.003906.621093 11.296875zm0 0" fill="#d1d3d4"/><path d="m255.929688 164.652344c-2.304688-.097656-4.636719.800781-6.296876 2.65625l-12.980468 14.480468c-.96875-1.042968-2.230469-1.839843-3.703125-2.253906l-20.175781-5.632812-.953126 6.410156c-.648437 4.371094 2.371094 8.4375 6.738282 9.085938l25.0625 3.71875c4.367187.648437 8.4375-2.367188 9.085937-6.738282zm0 0" fill="#bcbec0"/><path d="m243.621094 187.117188-25.0625-3.71875c-4.367188-.644532-7.386719-4.714844-6.738282-9.085938l3.71875-25.058594c.648438-4.371094 4.714844-7.386718 9.085938-6.738281l25.058594 3.714844c4.371094.648437 7.386718 4.71875 6.742187 9.089843l-3.71875 25.058594c-.648437 4.367188-4.714843 7.386719-9.085937 6.738282zm0 0" fill="#fff"/><path d="m244.949219 178.164062-25.0625-3.714843c-4.367188-.648438-7.386719-4.71875-6.738281-9.089844l-1.328126 8.953125c-.648437 4.371094 2.367188 8.441406 6.738282 9.085938l25.0625 3.71875c4.367187.648437 8.4375-2.371094 9.085937-6.738282l1.328125-8.953125c-.648437 4.371094-4.714844 7.386719-9.085937 6.738281zm0 0" fill="#d1d3d4"/><path d="m281.199219 210.792969-10.289063-6.175781 1.195313-1.992188c7.953125-13.234375 19.429687-23.933594 33.179687-30.945312l67.289063-40.238282c4.105469-2.453125 9.40625-1.25 12.046875 2.734375 2.964844 4.472657 1.347656 10.535157-3.449219 12.9375l-70.472656 35.277344c-11.710938 5.96875-21.511719 15.109375-28.308594 26.414063zm0 0" fill="#fff"/><path d="m384.621094 134.175781c-.765625-1.15625-1.757813-2.082031-2.882813-2.746093 2.074219 4.320312.351563 9.636718-4.066406 11.851562l-70.472656 35.277344c-11.710938 5.96875-21.511719 15.109375-28.304688 26.414062l-1.195312 1.988282-6.023438-3.617188-.765625 1.273438 10.289063 6.175781 1.195312-1.988281c6.792969-11.304688 16.59375-20.445313 28.304688-26.414063l70.472656-35.277344c4.796875-2.402343 6.417969-8.460937 3.449219-12.9375zm0 0" fill="#d1d3d4"/><path d="m261.386719 225.683594c-7.929688 1.160156-16.25.851562-24.132813.222656-9.195312-.730469-18.378906-2.445312-26.984375-5.832031-2.316406-.910157-4.582031-1.941407-6.785156-3.097657-1.800781-.945312-1.167969-3.363281.972656-3.714843l78.089844-12.851563c1.285156-.210937 2.472656.503906 2.652344 1.601563 1.984375 12.046875-8.703125 20.414062-19.25 22.824219-1.5.34375-3.023438.621093-4.5625.847656zm0 0" fill="#d1d3d4"/><path d="m285.1875 201.9375c-1.597656 8.933594-10.464844 15.058594-19.238281 17.066406-1.5.34375-3.023438.621094-4.5625.847656-7.929688 1.160157-16.25.851563-24.132813.222657-9.195312-.730469-18.378906-2.445313-26.984375-5.832031-1.113281-.4375-2.210937-.902344-3.296875-1.394532l-2.511718.414063c-2.144532.351562-2.777344 2.773437-.976563 3.71875 2.203125 1.15625 4.472656 2.183593 6.785156 3.09375 8.609375 3.386719 17.792969 5.101562 26.988281 5.835937 7.878907.628906 16.199219.933594 24.132813-.226562 1.539063-.222656 3.058594-.503906 4.5625-.847656 10.550781-2.410157 21.234375-10.777344 19.25-22.824219-.003906-.027344-.011719-.050781-.015625-.074219zm0 0" fill="#bcbec0"/><path d="m251.519531 329.175781-25.332031.0625c-4.417969.015625-8.011719-3.558593-8.023438-7.976562l-.0625-25.335938c-.011718-4.417969 3.5625-8.011719 7.980469-8.019531l25.332031-.0625c4.421876-.015625 8.011719 3.558594 8.023438 7.976562l.0625 25.335938c.011719 4.417969-3.5625 8.007812-7.980469 8.019531zm0 0" fill="#fff"/><path d="m251.496094 320.125-25.335938.066406c-4.417968.011719-8.007812-3.5625-8.019531-7.980468l.023437 9.050781c.011719 4.417969 3.601563 7.988281 8.019532 7.976562l25.335937-.0625c4.417969-.011719 7.988281-3.601562 7.976563-8.019531l-.023438-9.050781c.015625 4.417969-3.558594 8.007812-7.976562 8.019531zm0 0" fill="#e6e7e8"/><path d="m227.230469 304.199219 5.167969-15.453125c.09375-.28125.171874-.566406.234374-.855469l-6.554687.015625c-4.417969.011719-7.988281 3.601562-7.976563 8.019531l.054688 22.191407c.195312-.03125.382812-.074219.574219-.121094.183593-.046875.371093-.101563.554687-.160156.179688-.0625.359375-.128907.539063-.203126.078125-.03125.152343-.066406.230469-.097656.410156-.183594.804687-.402344 1.175781-.652344.074219-.050781.148437-.101562.222656-.152343.175781-.128907.351563-.265625.515625-.40625.066406-.054688.132812-.113281.195312-.171875.070313-.066406.144532-.132813.214844-.203125.878906-.855469 1.570313-1.929688 1.984375-3.175781l2.871094-8.582032c0 .003906 0 .007813-.003906.007813zm0 0" fill="#d1d3d4"/><path d="m214.242188 309.824219-24.027344-8.03125c-4.1875-1.402344-6.449219-5.933594-5.050782-10.125l8.035157-24.027344c1.398437-4.1875 5.933593-6.449219 10.121093-5.046875l24.027344 8.03125c4.191406 1.402344 6.453125 5.933594 5.050782 10.121094l-8.03125 24.027344c-1.402344 4.191406-5.933594 6.453124-10.125 5.050781zm0 0" fill="#fff"/><path d="m217.113281 301.242188-24.027343-8.03125c-4.191407-1.402344-6.453126-5.933594-5.050782-10.125l-2.871094 8.582031c-1.398437 4.191406.863282 8.722656 5.050782 10.125l24.027344 8.03125c4.191406 1.398437 8.722656-.859375 10.125-5.050781l2.867187-8.582032c-1.398437 4.191406-5.933594 6.449219-10.121094 5.050782zm0 0" fill="#d1d3d4"/><path d="m217.113281 301.242188-24.027343-8.03125c-.378907-.125-.742188-.28125-1.089844-.453126l8.097656 12.339844 14.148438 4.726563c4.191406 1.402343 8.726562-.859375 10.125-5.046875l2.871093-8.585938c-1.402343 4.1875-5.9375 6.449219-10.125 5.050782zm0 0" fill="#e6e7e8"/><path d="m259.433594 295.820312c-.011719-4.417968-3.601563-7.988281-8.019532-7.976562l-5.84375.011719 4.796876 14.34375s0-.003907-.003907-.007813l2.871094 8.582032c.414063 1.246093 1.109375 2.320312 1.984375 3.175781.070312.070312.140625.136719.214844.203125.0625.058594.125.117187.191406.171875.167969.140625.339844.277343.519531.40625.074219.050781.148438.101562.222657.152343.371093.25.765624.46875 1.175781.652344.074219.03125.152343.066406.230469.097656.175781.074219.355468.140626.539062.203126.179688.058593.367188.113281.554688.160156.203124.050781.410156.09375.617187.128906zm0 0" fill="#d1d3d4"/><path d="m263.359375 309.824219 24.023437-8.03125c4.191407-1.402344 6.453126-5.933594 5.050782-10.125l-8.03125-24.027344c-1.402344-4.1875-5.933594-6.449219-10.125-5.046875l-24.023438 8.03125c-4.191406 1.402344-6.453125 5.933594-5.050781 10.121094l8.03125 24.027344c1.398437 4.191406 5.933594 6.453124 10.125 5.050781zm0 0" fill="#fff"/><path d="m260.488281 301.242188 24.027344-8.03125c4.1875-1.402344 6.449219-5.933594 5.046875-10.125l2.871094 8.582031c1.402344 4.191406-.859375 8.722656-5.050782 10.125l-24.023437 8.03125c-4.191406 1.398437-8.722656-.859375-10.125-5.050781l-2.871094-8.582032c1.402344 4.191406 5.933594 6.449219 10.125 5.050782zm0 0" fill="#d1d3d4"/><path d="m284.515625 293.207031-24.027344 8.03125c-4.191406 1.402344-8.722656-.859375-10.125-5.046875l2.871094 8.582032c1.398437 4.191406 5.933594 6.453124 10.125 5.050781l14.148437-4.730469 8.097657-12.339844c-.347657.175782-.714844.328125-1.089844.453125zm0 0" fill="#e6e7e8"/><path d="m292.609375 292.265625c-.050781-.199219-.109375-.398437-.175781-.597656l-8.03125-24.027344c-1.402344-4.1875-5.933594-6.449219-10.125-5.046875l-8.878906 2.964844-2.726563 7.667968c-1.484375 4.164063.691406 8.738282 4.855469 10.21875l23.867187 8.492188c.402344.140625.808594.253906 1.214844.328125zm0 0" fill="#bcbec0"/><path d="m284.402344 267.640625c-1.402344-4.1875-5.933594-6.449219-10.125-5.046875l-8.878906 2.964844-2.726563 7.667968c-1.484375 4.164063.691406 8.738282 4.855469 10.21875l19.605468 6.976563 3.234376-4.933594zm0 0" fill="#d1d3d4"/><path d="m267.527344 279.445312 23.867187 8.492188c4.160157 1.480469 8.738281-.695312 10.21875-4.855469l8.492188-23.867187c1.480469-4.164063-.695313-8.738282-4.859375-10.21875l-23.867188-8.492188c-4.160156-1.480468-8.738281.695313-10.21875 4.855469l-8.488281 23.867187c-1.480469 4.164063.691406 8.738282 4.855469 10.21875zm0 0" fill="#e6e7e8"/><path d="m307.710938 250.402344c-.707032-.59375-1.535157-1.078125-2.464844-1.410156l-23.867188-8.488282c-4.160156-1.484375-8.738281.691406-10.21875 4.855469l-8.488281 23.867187c-1.484375 4.160157.691406 8.738282 4.855469 10.21875l21.734375 7.730469 15.722656-23.972656c2.128906-3.242187 3.128906-8.070313 2.726563-12.800781zm0 0" fill="#fff"/><path d="m270.558594 270.921875 23.871094 8.488281c4.160156 1.484375 8.734374-.691406 10.214843-4.855468l-3.03125 8.527343c-1.480469 4.160157-6.058593 6.335938-10.21875 4.855469l-23.867187-8.492188c-4.164063-1.480468-6.335938-6.054687-4.855469-10.21875l3.03125-8.523437c-1.480469 4.160156.695313 8.738281 4.855469 10.21875zm0 0" fill="#d1d3d4"/><path d="m270.558594 270.921875c-4.160156-1.480469-6.335938-6.058594-4.855469-10.21875l-3.03125 8.523437c-1.484375 4.164063.691406 8.738282 4.855469 10.21875l21.734375 7.734376 5.105469-7.789063zm0 0" fill="#e6e7e8"/><path d="m216.933594 297.699219 10.175781-1.128907 5.289063-15.824218c1.402343-4.1875-.859376-8.71875-5.050782-10.121094l-21.992187-7.351562c-.117188.703124-.136719 1.4375-.054688 2.183593l2.800781 25.175781c.488282 4.390626 4.441407 7.554688 8.832032 7.066407zm0 0" fill="#d1d3d4"/><path d="m242.113281 290.902344-25.179687 2.796875c-4.390625.488281-8.34375-2.675781-8.832032-7.066407l-2.800781-25.175781c-.488281-4.394531 2.675781-8.347656 7.066407-8.835937l25.179687-2.796875c4.390625-.488281 8.34375 2.675781 8.832031 7.066406l2.800782 25.175781c.488281 4.390625-2.675782 8.34375-7.066407 8.835938zm0 0" fill="#fff"/><path d="m241.113281 281.90625-25.175781 2.800781c-4.394531.488281-8.347656-2.675781-8.835938-7.070312l1 8.996093c.488282 4.390626 4.445313 7.554688 8.835938 7.066407l25.175781-2.800781c4.394531-.488282 7.558594-4.441407 7.070313-8.835938l-1-8.992188c.484375 4.390626-2.679688 8.347657-7.070313 8.835938zm0 0" fill="#d1d3d4"/><path d="m248.179688 273.070312c.488281 4.394532-2.675782 8.347657-7.066407 8.835938l-25.179687 2.800781c-4.390625.488281-8.34375-2.675781-8.832032-7.066406l1 8.996094c.488282 4.390625 4.441407 7.554687 8.832032 7.066406l25.179687-2.800781c4.390625-.488282 7.554688-4.441406 7.066407-8.832032zm0 0" fill="#e6e7e8"/><path d="m278.117188 259.339844-9.8125-5.953125-4.523438 12.710937-13.53125 4.523438c-.816406.273437-1.558594.667968-2.214844 1.152344l-1.65625-14.886719c-.230468-2.058594-1.21875-3.847657-2.660156-5.117188l-11.390625 18.785157c-2.289063 3.78125-1.085937 8.699218 2.691406 10.988281l11.78125 7.144531c.273438-.269531.53125-.558594.765625-.863281l.554688 1.664062 8.5625 5.191407c3.777344 2.289062 8.699218 1.085937 10.988281-2.695313l13.136719-21.660156c2.292968-3.777344 1.085937-8.695313-2.691406-10.984375zm0 0" fill="#d1d3d4"/><path d="m256.6875 290.683594-21.664062-13.136719c-3.777344-2.292969-4.984376-7.210937-2.691407-10.988281l13.136719-21.664063c2.289062-3.777343 7.210938-4.984375 10.988281-2.691406l21.660157 13.136719c3.777343 2.292968 4.984374 7.210937 2.691406 10.988281l-13.132813 21.660156c-2.292969 3.777344-7.214843 4.984375-10.988281 2.695313zm0 0" fill="#fff"/><path d="m261.378906 282.945312-21.664062-13.136718c-3.777344-2.289063-4.984375-7.210938-2.691406-10.988282l-4.691407 7.738282c-2.289062 3.777344-1.085937 8.699218 2.691407 10.988281l21.664062 13.136719c3.777344 2.289062 8.695312 1.082031 10.988281-2.695313l4.691407-7.734375c-2.292969 3.773438-7.210938 4.980469-10.988282 2.691406zm0 0" fill="#e6e7e8"/><path d="m214.25 273.226562-6.550781-18.414062c-1.722657 1.664062-2.683594 4.078125-2.398438 6.640625l.207031 1.867187-2.1875-.730468c-4.1875-1.398438-8.71875.859375-10.121093 5.050781l-8.035157 24.023437c-.046874.144532-.089843.285157-.128906.429688.164063-.046875.328125-.101562.492188-.15625l23.867187-8.492188c4.164063-1.480468 6.335938-6.054687 4.855469-10.21875zm0 0" fill="#bcbec0"/><path d="m209.394531 279.445312-23.867187 8.492188c-4.164063 1.480469-8.738282-.695312-10.21875-4.855469l-8.492188-23.867187c-1.480468-4.164063.695313-8.738282 4.855469-10.21875l23.867187-8.492188c4.164063-1.480468 8.738282.695313 10.21875 4.855469l8.492188 23.867187c1.480469 4.164063-.691406 8.738282-4.855469 10.21875zm0 0" fill="#e6e7e8"/><path d="m205.757812 245.359375c-1.480468-4.160156-6.054687-6.335937-10.21875-4.855469l-23.867187 8.492188c-.625.222656-1.203125.515625-1.730469.863281-.527344 4.902344.460938 9.980469 2.671875 13.347656l15.597657 23.777344 21.183593-7.535156c4.160157-1.484375 6.335938-6.058594 4.855469-10.21875zm0 0" fill="#fff"/><path d="m206.363281 270.921875-23.871093 8.488281c-4.160157 1.484375-8.734376-.691406-10.214844-4.855468l3.03125 8.527343c1.480468 4.160157 6.058594 6.335938 10.21875 4.855469l23.867187-8.492188c4.164063-1.480468 6.335938-6.054687 4.859375-10.21875l-3.035156-8.523437c1.480469 4.160156-.695312 8.738281-4.855469 10.21875zm0 0" fill="#d1d3d4"/><path d="m211.21875 260.703125c1.480469 4.160156-.695312 8.738281-4.855469 10.21875l-23.257812 8.273437 5.105469 7.785157 21.183593-7.535157c4.164063-1.480468 6.335938-6.054687 4.859375-10.21875zm0 0" fill="#e6e7e8"/></svg>